<?xml version="1.0" encoding="utf-8"?>
<!-- Generator: Adobe Illustrator 26.0.1, SVG Export Plug-In . SVG Version: 6.00 Build 0)  -->
<svg version="1.1" id="Layer_1" xmlns="http://www.w3.org/2000/svg" xmlns:xlink="http://www.w3.org/1999/xlink" x="0px" y="0px"
	 viewBox="0 0 200 165" style="enable-background:new 0 0 200 165;" xml:space="preserve">
<style type="text/css">
	.st0{fill:#004D93;}
	.st1{fill:#FFFFFF;}
	.st2{fill:#344845;}
</style>
<path class="st0" d="M180,165H20c-11,0-20-9-20-20V20C0,9,9,0,20,0h160c11,0,20,9,20,20v125C200,156,191,165,180,165z"/>
<g>
	<path class="st1" d="M47.5,106.6V79.4h91c-3,5.5-4.7,11.7-4.7,18.4V111c3.3-1,6.1-2.2,8-3.2l6.6-3.2l5.4,2.6v-9.5
		c0-10.1,8.2-18.4,18.4-18.4v-20h-70.5V47.5h10v-20h-10H37.7H27.5v20h10.2v11.9H27.5v53.1c6.9,0,14-3,17.6-4.7L47.5,106.6z
		 M57.7,47.5h23.9v11.9H57.7V47.5z"/>
	<path class="st1" d="M152.7,112.3l-4.4-2.1l-4.4,2.1c-4,2-11.9,5.2-19.8,5.2c-7.9,0-15.8-3.3-19.8-5.2l-4.4-2.1l-4.4,2.1
		c-4,2-11.9,5.2-19.8,5.2c-7.9,0-15.8-3.3-19.8-5.2l-4.4-2.1l-4.4,2.1c-4,2-11.9,5.2-19.8,5.2v20c9.1,0,17.7-2.6,24.2-5.3
		c6.5,2.7,15.1,5.3,24.2,5.3c9.1,0,17.6-2.6,24.2-5.3c6.5,2.7,15.1,5.3,24.2,5.3c9.1,0,17.6-2.6,24.2-5.3c6.5,2.7,15.1,5.3,24.2,5.3
		v-20C164.6,117.5,156.7,114.3,152.7,112.3z"/>
</g>
<g>
	<path class="st2" d="M230,57.2h33.5v9.3h-21v10.9h17.6v9.3h-17.6v11.8h21.7v9.3H230V57.2z"/>
	<path class="st2" d="M270.8,57.2H292c10,0,17.2,5,17.2,15.1c0,11-7,17.4-17.2,17.4h-8.7v18.1h-12.5V57.2z M283.3,66.3v14.4h5.8
		c3.9,0,7.4-2.1,7.4-7.6c0-5.2-3.5-6.8-7.4-6.8H283.3z"/>
	<path class="st2" d="M312.7,57.2h26.1V66h-6.8V99h6.8v8.8h-26.1V99h6.7V66h-6.7V57.2z"/>
	<path class="st2" d="M345.6,57.2H359l13.3,25.1c1.1,2.2,2.6,6,3.8,9h0.3c-0.1-2.9-0.5-6.9-0.5-9.8V57.2h10.3v50.6H373l-13.8-25
		c-1.3-2.2-2.6-5.5-3.7-8.2h-0.3c0.2,2.8,0.6,6.2,0.6,9v24.3h-10.3V57.2z"/>
	<path class="st2" d="M393.1,57.2h26.1V66h-6.8V99h6.8v8.8h-26.1V99h6.7V66h-6.7V57.2z"/>
	<path class="st2" d="M423.1,81.8c0-18.2,9.7-25.5,23.2-25.5c13.3,0,23,7.3,23,25.5c0,20.2-10,26.9-23,26.9
		C432.8,108.7,423.1,101.4,423.1,81.8z M456.6,81.8c0-12.6-4.9-16.6-10.3-16.6c-5.4,0-10.3,4-10.3,16.6c0,14,4.9,18.1,10.3,18.1
		C451.6,99.9,456.6,95.8,456.6,81.8z"/>
</g>
</svg>
