<?xml version="1.0" encoding="utf-8"?>
<!-- Generator: Adobe Illustrator 26.0.1, SVG Export Plug-In . SVG Version: 6.00 Build 0)  -->
<svg version="1.1" id="Layer_1" xmlns="http://www.w3.org/2000/svg" xmlns:xlink="http://www.w3.org/1999/xlink" x="0px" y="0px"
	 viewBox="0 0 200 165" style="enable-background:new 0 0 200 165;" xml:space="preserve">
<style type="text/css">
	.st0{fill:#00A580;}
	.st1{fill:#FFFFFF;}
	.st2{fill:#344845;}
</style>
<g>
	<g>
		<path class="st0" d="M180,165H20c-11,0-20-9-20-20V20C0,9,9,0,20,0h160c11,0,20,9,20,20v125C200,156,191,165,180,165z"/>
		<path class="st1" d="M183.3,84.4c0.1-0.3,0.2-0.5,0.3-0.8c0-0.1,0-0.1,0-0.2c0.1-0.6,0.1-1.2,0-1.8c0-0.1,0-0.1,0-0.2
			c-0.1-0.3-0.1-0.6-0.3-0.8c0,0,0-0.1-0.1-0.1c-0.1-0.2-0.1-0.3-0.2-0.5l-19.8-34.2c-0.1-0.2-0.2-0.3-0.3-0.4c0,0,0-0.1-0.1-0.1
			c-0.2-0.2-0.4-0.4-0.6-0.6c-0.1-0.1-0.1-0.1-0.2-0.2c-0.2-0.2-0.5-0.4-0.7-0.5c0,0,0,0,0,0c0,0,0,0,0,0c-0.3-0.1-0.5-0.3-0.8-0.4
			c-0.1,0-0.1-0.1-0.2-0.1c-0.3-0.1-0.5-0.1-0.8-0.2c0,0-0.1,0-0.1,0c-0.2,0-0.3,0-0.5,0h-39.5c-0.2,0-0.3,0-0.5,0c0,0-0.1,0-0.1,0
			c-0.3,0-0.6,0.1-0.8,0.2c-0.1,0-0.1,0-0.2,0.1c-0.3,0.1-0.6,0.2-0.8,0.4c0,0,0,0,0,0c0,0,0,0,0,0c-0.3,0.1-0.5,0.3-0.7,0.5
			c-0.1,0-0.1,0.1-0.2,0.2c-0.2,0.2-0.4,0.4-0.6,0.6c0,0,0,0.1-0.1,0.1c-0.1,0.1-0.2,0.3-0.3,0.4L96.8,77.5H82.2l14-24.2h6.5
			c2.8,0,5-2.2,5-5s-2.2-5-5-5h-9.4c-1.8,0-3.4,1-4.3,2.5L70.6,77.5H56l14-24.2h6.5c2.8,0,5-2.2,5-5s-2.2-5-5-5h-9.4
			c-1.8,0-3.4,1-4.3,2.5L44.5,77.5H29.9l14-24.2h6.5c2.8,0,5-2.2,5-5s-2.2-5-5-5H41c-1.8,0-3.4,1-4.3,2.5L16.9,80
			c-0.1,0.2-0.2,0.3-0.2,0.5c0,0,0,0.1-0.1,0.1c-0.1,0.3-0.2,0.5-0.3,0.8c0,0.1,0,0.1,0,0.2c-0.1,0.6-0.1,1.2,0,1.8
			c0,0.1,0,0.1,0,0.2c0.1,0.3,0.1,0.5,0.3,0.8c0,0,0,0.1,0.1,0.1c0.1,0.2,0.1,0.3,0.2,0.5l19.8,34.2c0.9,1.5,2.5,2.5,4.3,2.5h9.4
			c2.8,0,5-2.2,5-5s-2.2-5-5-5h-6.5l-14-24.2h14.6l18.3,31.7c0.9,1.5,2.5,2.5,4.3,2.5h9.4c2.8,0,5-2.2,5-5s-2.2-5-5-5H70L56,87.5
			h14.6l18.3,31.7c0.9,1.5,2.5,2.5,4.3,2.5h9.4c2.8,0,5-2.2,5-5s-2.2-5-5-5h-6.5l-14-24.2h14.6l18.3,31.7c0.1,0.2,0.2,0.3,0.3,0.4
			c0,0,0,0.1,0.1,0.1c0.2,0.2,0.4,0.4,0.6,0.6c0.1,0.1,0.1,0.1,0.2,0.2c0.2,0.2,0.5,0.4,0.7,0.5c0,0,0,0,0,0c0,0,0,0,0.1,0
			c0.2,0.1,0.3,0.2,0.5,0.3c0.2,0.1,0.3,0.1,0.5,0.2c0.1,0,0.1,0,0.2,0.1c0.4,0.1,0.9,0.2,1.3,0.2c0,0,0,0,0,0h39.5c0,0,0,0,0,0
			c0.4,0,0.9-0.1,1.3-0.2c0.1,0,0.1,0,0.2-0.1c0.2,0,0.3-0.1,0.5-0.2c0.2-0.1,0.4-0.2,0.5-0.3c0,0,0,0,0.1,0c0,0,0,0,0,0
			c0.3-0.1,0.5-0.3,0.7-0.5c0.1-0.1,0.1-0.1,0.2-0.2c0.2-0.2,0.4-0.4,0.6-0.6c0,0,0-0.1,0.1-0.1c0.1-0.1,0.2-0.3,0.3-0.4L183,85
			c0.1-0.2,0.2-0.3,0.2-0.5C183.3,84.5,183.3,84.5,183.3,84.4z M158.9,106.7l-5.8-10l5.3-9.2H170L158.9,106.7z M108.3,87.5h11.5
			l5.3,9.2l-5.8,10L108.3,87.5z M119.4,58.3l5.8,10l-5.3,9.2h-11.5L119.4,58.3z M133.8,91.7l-5.3-9.2l5.3-9.2h10.7l5.3,9.2l-5.3,9.2
			H133.8z M144.5,63.3h-10.7l-5.8-10h22.2L144.5,63.3z M133.8,101.7h10.7l5.8,10h-22.2L133.8,101.7z M158.5,77.5l-5.3-9.2l5.8-10
			L170,77.5H158.5z"/>
	</g>
	<g>
		<path class="st2" d="M250,57.2h12.5v19.1h15.4V57.2h12.5v50.6h-12.5V86.4h-15.4v21.4H250V57.2z"/>
		<path class="st2" d="M312.1,57.2h12.7l17.1,50.6h-12.7l-3.1-9.6h-16.9l-3.1,9.6H295L312.1,57.2z M312.1,88.9h10.9l-3.4-10.6
			c-1.2-3.6-1.7-8.7-1.7-8.7h-0.3c0,0-0.8,5.2-1.9,8.6L312.1,88.9z"/>
		<path class="st2" d="M346.5,57.2h20.8c9.9,0,16.6,4.8,16.6,14.1c0,7.6-5.2,12.1-10.2,13.7c1.5,1.3,2.6,3,3.5,4.8
			c2.1,4.3,3.5,9,8,9c1.1,0,2-0.4,2-0.4l-1,8.9c0,0-2.7,0.7-5,0.7c-6,0-9.5-2.3-13-10.3c-1.5-3.6-3.6-9.9-6.4-9.9H359v20h-12.5V57.2
			z M359,66.3v12.4h4.5c3.6,0,7.8-1.1,7.8-6.5c0-4.4-2.8-5.9-6.3-5.9H359z"/>
		<path class="st2" d="M386.3,57.2h13l9.5,28.6c1.2,3.7,1.7,9.1,1.7,9.1h0.3c0,0,0.5-5.5,1.7-9.1l9.4-28.6h11.3l-17.3,50.6h-12.1
			L386.3,57.2z"/>
		<path class="st2" d="M437.8,57.2h33.5v9.3h-21v10.9h17.6v9.3h-17.6v11.8H472v9.3h-34.3V57.2z"/>
		<path class="st2" d="M487,91.2c-0.9,4,0.7,8.7,8.6,8.7c5.2,0,7-2.1,7-4.9c0-4.2-4.2-5.2-9.1-7c-7.4-2.5-16.6-6.2-16.6-16.7
			c0-9.4,7.3-15.2,19.6-14.9c15.1,0.3,19.4,9.2,17.8,16.9l-11.5,1c0.8-5.8-1.4-9.1-7.3-9.1c-4,0-6.2,1.5-6.2,4.6c0,4.2,4,5.5,9,7.2
			c7.6,2.6,16.7,5.6,16.7,16.1c0,9.1-6.8,15.6-19.9,15.6c-12.4,0-20.8-5.7-19.1-16.5L487,91.2z"/>
		<path class="st2" d="M518.2,57.2h40.4v9.3h-14.1v41.3H532V66.5h-13.8V57.2z"/>
		<path class="st2" d="M563.9,57.2h33.5v9.3h-21v10.9h17.6v9.3h-17.6v11.8h21.7v9.3h-34.3V57.2z"/>
		<path class="st2" d="M604.7,57.2h20.8c9.9,0,16.6,4.8,16.6,14.1c0,7.6-5.2,12.1-10.2,13.7c1.5,1.3,2.6,3,3.5,4.8
			c2.1,4.3,3.5,9,8,9c1.1,0,2-0.4,2-0.4l-1,8.9c0,0-2.7,0.7-5,0.7c-6,0-9.5-2.3-13-10.3c-1.5-3.6-3.6-9.9-6.4-9.9h-2.8v20h-12.5
			V57.2z M617.2,66.3v12.4h4.5c3.6,0,7.8-1.1,7.8-6.5c0-4.4-2.8-5.9-6.3-5.9H617.2z"/>
	</g>
</g>
</svg>
