<?xml version="1.0" encoding="utf-8"?>
<!-- Generator: Adobe Illustrator 26.0.1, SVG Export Plug-In . SVG Version: 6.00 Build 0)  -->
<svg version="1.1" id="Layer_1" xmlns="http://www.w3.org/2000/svg" xmlns:xlink="http://www.w3.org/1999/xlink" x="0px" y="0px"
	 viewBox="0 0 200 165" style="enable-background:new 0 0 200 165;" xml:space="preserve">
<style type="text/css">
	.st0{fill:#D13306;}
	.st1{fill:#FFFFFF;}
	.st2{fill:#344845;}
</style>
<g>
	<g>
		<path class="st0" d="M180,165H20c-11,0-20-9-20-20V20C0,9,9,0,20,0h160c11,0,20,9,20,20v125C200,156,191,165,180,165z"/>
		<g>
			<path class="st1" d="M100,20L45.9,51.2v62.5L100,145l54.1-31.2V51.2L100,20z M139.1,105.1L100,127.7l-39.1-22.6V59.9L100,37.3
				l39.1,22.6V105.1z"/>
			<polygon class="st1" points="88.2,58.4 73.2,67 73.2,98 88.2,106.6 88.2,90 111.8,90 111.8,106.6 126.8,98 126.8,67 111.8,58.4 
				111.8,75 88.2,75 			"/>
		</g>
	</g>
	<g>
		<path class="st2" d="M249.7,57.1h12.5v19.1h15.4V57.1h12.5v50.6h-12.5V86.2h-15.4v21.4h-12.5V57.1z"/>
		<path class="st2" d="M310.4,86.3l-16.3-29.2h14.2l6.7,12.4c1.3,2.4,2.7,5.6,2.7,5.6h0.3c0,0,1.3-3.1,2.6-5.8l6.4-12.2h11.5
			l-15.6,29.2v21.4h-12.5V86.3z"/>
		<path class="st2" d="M342.9,57.1h21.2c10,0,17.2,5,17.2,15.1c0,11-7,17.4-17.2,17.4h-8.7v18.1h-12.5V57.1z M355.4,66.2v14.4h5.8
			c3.9,0,7.4-2.1,7.4-7.6c0-5.2-3.5-6.8-7.4-6.8H355.4z"/>
		<path class="st2" d="M387,57.1h21.2c10,0,17.2,5,17.2,15.1c0,11-7,17.4-17.2,17.4h-8.7v18.1H387V57.1z M399.5,66.2v14.4h5.8
			c3.9,0,7.4-2.1,7.4-7.6c0-5.2-3.5-6.8-7.4-6.8H399.5z"/>
		<path class="st2" d="M431.1,57.1h33.5v9.3h-21v10.9h17.6v9.3h-17.6v11.8h21.7v9.3h-34.3V57.1z"/>
		<path class="st2" d="M471.9,57.1h20.8c9.9,0,16.6,4.8,16.6,14.1c0,7.6-5.2,12.1-10.2,13.7c1.5,1.3,2.6,3,3.5,4.8
			c2.1,4.3,3.5,9,8,9c1.1,0,2-0.4,2-0.4l-1,8.9c0,0-2.7,0.7-5,0.7c-6,0-9.5-2.3-13-10.3c-1.5-3.6-3.6-9.9-6.4-9.9h-2.8v20h-12.5
			V57.1z M484.4,66.2v12.4h4.5c3.6,0,7.8-1.1,7.8-6.5c0-4.4-2.8-5.9-6.3-5.9H484.4z"/>
	</g>
</g>
</svg>
