<?xml version="1.0" encoding="utf-8"?>
<!-- Generator: Adobe Illustrator 26.0.1, SVG Export Plug-In . SVG Version: 6.00 Build 0)  -->
<svg version="1.1" id="Layer_1" xmlns="http://www.w3.org/2000/svg" xmlns:xlink="http://www.w3.org/1999/xlink" x="0px" y="0px"
	 viewBox="0 0 200.5 165" style="enable-background:new 0 0 200.5 165;" xml:space="preserve">
<style type="text/css">
	.st0{fill:#A453B9;}
	.st1{fill:#FFFFFF;}
	.st2{fill:#344845;}
</style>
<g>
	<g>
		<path class="st0" d="M180,165H20c-11,0-20-9-20-20V20C0,9,9,0,20,0h160c11,0,20,9,20,20v125C200,156,191,165,180,165z"/>
		<g>
			<path class="st1" d="M171.8,50.3c0-4.1-3.4-7.5-7.5-7.5s-7.5,3.4-7.5,7.5v2.8C144.7,43.2,125,31.4,100,31.4
				c-42.1,0-69,33.5-70.2,34.9c-2.6,3.2-2,7.9,1.2,10.5c3.2,2.6,8,2,10.5-1.2c0.2-0.3,23.7-29.2,58.4-29.2c19.4,0,35.3,9,45.5,17
				h-1.8c-4.1,0-7.5,3.4-7.5,7.5s3.4,7.5,7.5,7.5h20.6c0,0,0,0,0,0c0,0,0,0,0,0c0,0,0,0,0,0c0.4,0,0.7,0,1.1-0.1c0.1,0,0.1,0,0.2,0
				c0.4-0.1,0.7-0.1,1-0.3c0.1,0,0.1,0,0.2-0.1c0.7-0.3,1.4-0.6,2.1-1.1c0,0,0.1,0,0.1-0.1c0,0,0,0,0.1,0c0.1-0.1,0.2-0.2,0.3-0.3
				c0.1-0.1,0.2-0.1,0.2-0.2c0.1-0.1,0.2-0.2,0.2-0.3c0.1-0.1,0.2-0.2,0.3-0.3c0.1-0.1,0.1-0.1,0.2-0.2c0.1-0.1,0.2-0.2,0.3-0.4
				c0-0.1,0.1-0.1,0.1-0.2c0.1-0.1,0.2-0.3,0.3-0.4c0.1-0.1,0.1-0.2,0.2-0.3c0.1-0.1,0.1-0.2,0.2-0.3c0.1-0.2,0.1-0.3,0.2-0.5
				c0-0.1,0.1-0.1,0.1-0.2c0-0.1,0.1-0.3,0.1-0.5c0-0.1,0-0.2,0.1-0.3c0-0.1,0-0.3,0.1-0.4c0-0.1,0-0.2,0.1-0.4c0-0.1,0-0.2,0-0.3
				c0-0.1,0-0.3,0-0.4c0,0,0,0,0-0.1V50.3z"/>
			<path class="st1" d="M168.9,88.2c-3.2-2.6-8-2-10.5,1.2c-0.2,0.3-23.7,29.2-58.4,29.2c-19.4,0-35.3-9-45.5-17h1.8
				c4.1,0,7.5-3.4,7.5-7.5s-3.4-7.5-7.5-7.5H35.7c-0.1,0-0.2,0-0.3,0c-0.1,0-0.3,0-0.4,0c-0.1,0-0.2,0-0.4,0c-0.1,0-0.2,0-0.4,0.1
				c-0.1,0-0.2,0.1-0.4,0.1c-0.1,0-0.2,0.1-0.3,0.1c-0.1,0-0.2,0.1-0.4,0.1c-0.1,0-0.2,0.1-0.3,0.1c-0.1,0.1-0.2,0.1-0.4,0.2
				c-0.1,0-0.2,0.1-0.3,0.1c-0.1,0.1-0.2,0.1-0.4,0.2c-0.1,0.1-0.2,0.1-0.3,0.2c-0.1,0.1-0.2,0.2-0.4,0.3c-0.1,0-0.1,0.1-0.2,0.1
				c0,0,0,0-0.1,0c-0.1,0.1-0.2,0.2-0.3,0.3c-0.1,0.1-0.2,0.1-0.2,0.2c-0.1,0.1-0.2,0.2-0.2,0.3c-0.1,0.1-0.2,0.2-0.3,0.3
				c-0.1,0.1-0.1,0.1-0.2,0.2c-0.1,0.1-0.2,0.2-0.3,0.4c0,0.1-0.1,0.1-0.1,0.2c-0.1,0.1-0.2,0.3-0.3,0.4c-0.1,0.1-0.1,0.2-0.2,0.3
				c-0.1,0.1-0.1,0.2-0.2,0.3c-0.1,0.2-0.1,0.3-0.2,0.5c0,0.1-0.1,0.1-0.1,0.2c0,0.1-0.1,0.3-0.1,0.5c0,0.1,0,0.2-0.1,0.3
				c0,0.1,0,0.3-0.1,0.4c0,0.1,0,0.2-0.1,0.4c0,0.1,0,0.2,0,0.3c0,0.1,0,0.3,0,0.4c0,0,0,0,0,0.1v20.6c0,4.1,3.4,7.5,7.5,7.5
				s7.5-3.4,7.5-7.5v-2.8c12.1,9.9,31.7,21.7,56.8,21.7c42.1,0,69-33.5,70.2-34.9C172.7,95.5,172.2,90.8,168.9,88.2z"/>
			<path class="st1" d="M74.7,82.5c0,12,8.5,22.1,19.9,24.5L98,87.5H86.6l18-29.5c-1.6-0.3-3.3-0.5-5-0.5
				C85.8,57.5,74.7,68.7,74.7,82.5z"/>
			<path class="st1" d="M99.7,107.5c13.8,0,25-11.2,25-25c0-12-8.5-22.1-19.9-24.5l-3.5,19.5h11.3l-18,29.5
				C96.2,107.3,97.9,107.5,99.7,107.5z"/>
		</g>
	</g>
	<g>
		<path class="st2" d="M230.3,81.8c0-18.2,9.7-25.5,23.2-25.5c13.3,0,23,7.3,23,25.5c0,20.2-10,26.9-23,26.9
			C239.9,108.7,230.3,101.4,230.3,81.8z M263.7,81.8c0-12.6-4.9-16.6-10.3-16.6c-5.4,0-10.3,4-10.3,16.6c0,14,4.9,18.1,10.3,18.1
			C258.8,99.9,263.7,95.8,263.7,81.8z"/>
		<path class="st2" d="M283.4,57.2h21.2c10,0,17.2,5,17.2,15.1c0,11-7,17.4-17.2,17.4h-8.7v18.1h-12.5V57.2z M295.9,66.3v14.4h5.8
			c3.9,0,7.4-2.1,7.4-7.6c0-5.2-3.5-6.8-7.4-6.8H295.9z"/>
		<path class="st2" d="M327.5,57.2h13.4l13.3,25.1c1.1,2.2,2.6,6,3.8,9h0.3c-0.1-2.9-0.5-6.9-0.5-9.8V57.2H368v50.6h-13.1l-13.8-25
			c-1.3-2.2-2.6-5.5-3.7-8.2h-0.3c0.2,2.8,0.6,6.2,0.6,9v24.3h-10.3V57.2z"/>
		<path class="st2" d="M374.9,57.2H401V66h-6.8V99h6.8v8.8h-26.1V99h6.7V66h-6.7V57.2z"/>
	</g>
</g>
</svg>
