<?xml version="1.0" encoding="utf-8"?>
<!-- Generator: Adobe Illustrator 26.0.1, SVG Export Plug-In . SVG Version: 6.00 Build 0)  -->
<svg version="1.1" id="Layer_1" xmlns="http://www.w3.org/2000/svg" xmlns:xlink="http://www.w3.org/1999/xlink" x="0px" y="0px"
	 viewBox="0 0 126.1 126.1" style="enable-background:new 0 0 126.1 126.1;" xml:space="preserve">
<style type="text/css">
	.st0{fill:#6D8480;}
	.st1{fill:#83D6AE;}
	.st2{fill:#FFFFFF;}
</style>
<g>
	<g>
		<path class="st0" d="M152,48.6h-6.3v-4.9h6.3V32.2h5.9v11.4h12.5v4.9h-12.5v28.3c0,5.6,1.9,7.3,7.2,7.3h5.3v5h-6.3
			c-7.9,0-12.2-3.3-12.2-12.3V48.6H152z"/>
		<path class="st0" d="M181.7,89.2h-5.8V43.6h5.8v8.1c2.5-5.6,7.8-8.9,15.6-8.9v6.1h-1.6c-7.6,0-14,3.4-14,14.8V89.2z"/>
		<path class="st0" d="M221.5,89.9c-12.9,0-22.4-9-22.4-23.4c0-14.5,9.3-23.4,22.4-23.4c13.3,0,21.5,9.5,21.5,21.1
			c0,1.8,0,3-0.2,4.6H205c0.5,10.7,7.9,16.3,16.4,16.3c7.8,0,13-4.1,14.7-10.2h6.2C240.3,83.3,233,89.9,221.5,89.9z M205.1,63.9h32
			c0.3-10.6-7.4-15.9-15.8-15.9C213,48,205.8,53.3,205.1,63.9z"/>
		<path class="st0" d="M283.7,63.2c0-10.1-5.5-15.3-13.8-15.3c-8.5,0-14.4,5.3-14.4,16.4v24.9h-5.8V43.6h5.8v7.8
			c2.9-5.7,8.8-8.6,15.5-8.6c10.3,0,18.5,6.3,18.5,19.7v26.7h-5.8L283.7,63.2L283.7,63.2z"/>
		<path class="st0" d="M299.9,48.6h-6.4v-4.9h6.3V32.2h5.9v11.4h12.5v4.9h-12.5v28.3c0,5.6,1.9,7.3,7.2,7.3h5.3v5h-6.3
			c-7.9,0-12.2-3.3-12.2-12.3V48.6H299.9z"/>
		<path class="st0" d="M343.6,89.9c-12.8,0-22.6-9-22.6-23.4c0-14.5,10-23.4,22.8-23.4s22.8,8.9,22.8,23.4
			C366.6,80.8,356.5,89.9,343.6,89.9z M343.6,84.8c8.6,0,16.9-5.8,16.9-18.3s-8.2-18.3-16.8-18.3s-16.8,5.8-16.8,18.3
			C327,78.9,335,84.8,343.6,84.8z"/>
	</g>
	<g>
		<rect class="st1" width="126.1" height="126.1"/>
		<g>
			<path class="st2" d="M84.4,32.4v13.4H70.1V32.4H55.9v13.4H41.6V32.4H27.4v79.8h22V86.4C49.4,75.1,63,67.3,63,67.3
				s13.6,7.8,13.6,19.1v25.8h22V32.4H84.4z"/>
			<polygon class="st2" points="37.9,16 37.9,21.4 31.1,21.4 31.1,16 24.2,16 24.2,28.1 44.8,28.1 44.8,16 			"/>
			<polygon class="st2" points="66.4,16 66.4,21.4 59.6,21.4 59.6,16 52.7,16 52.7,28.1 73.3,28.1 73.3,16 			"/>
			<polygon class="st2" points="95,16 95,21.4 88.1,21.4 88.1,16 81.2,16 81.2,28.1 101.9,28.1 101.9,16 			"/>
		</g>
	</g>
</g>
</svg>
