<?xml version="1.0" encoding="UTF-8" standalone="no"?>
<svg
   id="Layer_1"
   data-name="Layer 1"
   viewBox="0 0 287.36395 111.36238"
   version="1.1"
   sodipodi:docname="k3s-logo-light.svg"
   inkscape:version="1.2.1 (9c6d41e410, 2022-07-14)"
   xmlns:inkscape="http://www.inkscape.org/namespaces/inkscape"
   xmlns:sodipodi="http://sodipodi.sourceforge.net/DTD/sodipodi-0.dtd"
   xmlns="http://www.w3.org/2000/svg"
   xmlns:svg="http://www.w3.org/2000/svg"
   xmlns:rdf="http://www.w3.org/1999/02/22-rdf-syntax-ns#"
   xmlns:cc="http://creativecommons.org/ns#"
   xmlns:dc="http://purl.org/dc/elements/1.1/">
  <sodipodi:namedview
     id="namedview17"
     pagecolor="#ffffff"
     bordercolor="#666666"
     borderopacity="1.0"
     inkscape:showpageshadow="2"
     inkscape:pageopacity="0.0"
     inkscape:pagecheckerboard="0"
     inkscape:deskcolor="#d1d1d1"
     showgrid="false"
     inkscape:zoom="5.2546605"
     inkscape:cx="143.77713"
     inkscape:cy="55.760025"
     inkscape:window-width="3840"
     inkscape:window-height="2075"
     inkscape:window-x="0"
     inkscape:window-y="0"
     inkscape:window-maximized="1"
     inkscape:current-layer="Layer_1" />
  <defs
     id="defs4">
    <style
       id="style2">.cls-1{fill:#384745;}.cls-2{fill:#ffc61c;}</style>
  </defs>
  <title
     id="title6">sub-project-brand-logo-variants</title>
  <path
     class="cls-2"
     d="M121.58689,0H14.39255A14.43487,14.43487,0,0,0,0,14.39247V96.96991a14.43487,14.43487,0,0,0,14.39255,14.39247H121.58689a14.43487,14.43487,0,0,0,14.39255-14.39247V14.39247A14.43487,14.43487,0,0,0,121.58689,0ZM57.45811,80.98065,31.29766,96.18344A6.99993,6.99993,0,1,1,24.26348,84.079L50.42393,68.87626a6.99993,6.99993,0,1,1,7.03418,12.10439Zm10.2915-23.16221h-.03145A6.99967,6.99967,0,0,1,60.74893,50.788l.13125-30.13725a7.00056,7.00056,0,0,1,6.99931-6.96958h.03145a6.99991,6.99991,0,0,1,6.96924,7.03042l-.13125,30.13725A7.00056,7.00056,0,0,1,67.74961,57.81844Zm46.2875,35.81006a6.997,6.997,0,0,1-9.56211,2.56211L78.27627,81.06473a6.99994,6.99994,0,1,1,7-12.12421L111.475,84.06639A6.99956,6.99956,0,0,1,114.03711,93.6285Z"
     id="path14" />
  <metadata
     id="metadata229">
    <rdf:RDF>
      <cc:Work
         rdf:about="">
        <dc:title>sub-project-brand-logo-variants</dc:title>
      </cc:Work>
    </rdf:RDF>
  </metadata>
</svg>
