<?xml version="1.0" encoding="utf-8"?>
<!-- Generator: Adobe Illustrator 26.0.1, SVG Export Plug-In . SVG Version: 6.00 Build 0)  -->
<svg version="1.1" id="Layer_1" xmlns="http://www.w3.org/2000/svg" xmlns:xlink="http://www.w3.org/1999/xlink" x="0px" y="0px"
	 viewBox="0 0 136 111.4" style="enable-background:new 0 0 136 111.4;" xml:space="preserve">
<style type="text/css">
	.st0{fill:#384745;}
	.st1{fill:#5F224A;}
</style>
<path class="st0" d="M163.8,30.4h12.5v41.2h21v9.3h-33.5V30.4z"/>
<path class="st0" d="M199.4,55c0-18.2,9.7-25.4,23.2-25.4c13.3,0,23,7.3,23,25.4c0,20.2-10,26.9-23,26.9
	C209,81.8,199.4,74.6,199.4,55z M232.7,55c0-12.6-4.9-16.6-10.3-16.6s-10.3,4-10.3,16.6c0,14,4.9,18,10.3,18S232.7,69,232.7,55
	L232.7,55z"/>
<path class="st0" d="M252.3,30.4h13.4L279,55.5c1.1,2.2,2.6,6,3.8,9h0.3c-0.1-2.8-0.5-6.9-0.5-9.8V30.4h10.3v50.5h-13.1l-13.8-25
	c-1.4-2.7-2.6-5.4-3.7-8.2H262c0.2,2.8,0.6,6.2,0.6,9v24.2h-10.3V30.4z"/>
<path class="st0" d="M322.3,55.4h20.8v25.5h-8.5v-8.5c-1.8,5.6-5.8,9.4-14.5,9.4c-11.7,0-20.4-8.1-20.4-26.4s8.8-25.9,22.6-25.9
	c15.5,0,21.6,8.8,19.8,17.7l-11.7,1.3c0.9-7-2.5-10.1-7.5-10.1c-5.5,0-10.3,4-10.3,17.3s4.1,17.1,10.2,17.1c5.6,0,8.8-3.4,8.9-6.9
	v-1.4h-9.4L322.3,55.4z"/>
<path class="st0" d="M350.6,30.4h12.5v19.1h15.3V30.4h12.5v50.5h-12.5V59.5h-15.3v21.4h-12.5V30.4z"/>
<path class="st0" d="M397.7,55c0-18.2,9.7-25.4,23.2-25.4c13.3,0,23,7.3,23,25.4c0,20.2-10,26.9-23,26.9
	C407.4,81.8,397.7,74.6,397.7,55z M431.1,55c0-12.6-4.9-16.6-10.3-16.6c-5.4,0-10.3,4-10.3,16.6c0,14,4.9,18,10.3,18
	C426.2,73,431.1,69,431.1,55L431.1,55z"/>
<path class="st0" d="M450.7,30.4h20.8c9.9,0,16.5,4.8,16.5,14.1c0.1,6.3-4.1,11.9-10.2,13.7c1.5,1.3,2.7,3,3.5,4.8
	c2.1,4.3,3.5,9,7.9,9c0.7,0,1.4-0.1,2-0.4l-1,8.9c-1.6,0.4-3.3,0.6-5,0.7c-6,0-9.4-2.3-12.9-10.3c-1.5-3.6-3.6-9.9-6.4-9.9h-2.8v20
	h-12.5V30.4z M463.2,39.5v12.4h4.5c3.6,0,7.8-1.1,7.8-6.5c0-4.4-2.8-5.9-6.3-5.9L463.2,39.5z"/>
<path class="st0" d="M496.6,30.4H510l13.2,25.1c1.1,2.2,2.6,6,3.8,9h0.3c-0.1-2.8-0.5-6.9-0.5-9.8V30.4h10.3v50.5H524l-13.8-25
	c-1.4-2.7-2.6-5.4-3.7-8.2h-0.3c0.2,2.8,0.6,6.2,0.6,9v24.2h-10.3V30.4z"/>
<path class="st1" d="M68,56.4c-0.5,0-0.9,0-1.4-0.1l-3.7-0.7l3.2,19.6c0.1,0.4,0.1,0.7,0.1,1.1h3.6c0-0.4,0-0.8,0.1-1.3l3.6-19.5
	l-4.1,0.8C68.9,56.4,68.4,56.4,68,56.4z"/>
<path class="st1" d="M121.6,0H14.4C6.5,0,0,6.5,0,14.4V97c0,7.9,6.5,14.4,14.4,14.4h107.2c7.9,0,14.4-6.5,14.4-14.4V14.4
	C136,6.5,129.5,0,121.6,0z M124,29.1L122.3,41c-0.4,2.9-2.7,5.3-5.6,5.8l-28.5,5.7c0,0,0,0.1,0,0.1L83.8,77
	c-0.4,7.4-6.5,13.3-14,13.3h-3.6c-7.5,0-13.6-5.9-14-13.3l-3.9-24.3l-29-5.8c-2.9-0.6-5.1-2.9-5.6-5.8L12,29.1
	c-0.6-3.8,2.1-7.4,5.9-7.9c3.8-0.6,7.4,2.1,7.9,5.9l1,7L68,42.3l41.1-8.2l1-7c0.6-3.8,4.1-6.5,8-5.9C121.9,21.7,124.6,25.3,124,29.1
	L124,29.1z"/>
</svg>
