<svg width="468" height="144" viewBox="0 0 468 144" fill="none" xmlns="http://www.w3.org/2000/svg">
<rect width="143.471" height="144" rx="12.7059" fill="#6DC99D"/>
<path fill-rule="evenodd" clip-rule="evenodd" d="M25.828 33.5106V15.6128H31.2872V20.407H37.3332V24.5612H43.0858V20.0875H48.8384V15.6128H54.5911V20.0875H60.3437V24.5612H66.0963V20.0875H72.1413V15.6128H77.6015V33.5106H25.828ZM71.7708 90.1353H71.7668V81.0668H60.3867V90.1353H51.8279V81.0668H40.4479V125.453H31.6587V41.2321H71.7708V90.1353ZM47.2591 58.7954V68.9406H56.1704V58.7954C56.1704 56.3357 54.1734 54.3397 51.7147 54.3397C49.2551 54.3397 47.2591 56.3357 47.2591 58.7954Z" fill="#F9FAFB"/>
<path fill-rule="evenodd" clip-rule="evenodd" d="M91.6573 125.453V81.0667H101.049V90.1358H109.329V81.0667H117.465V125.453H91.6573ZM102.345 100.566V109.634H108.035V100.566H102.345Z" fill="#F9FAFB"/>
<path fill-rule="evenodd" clip-rule="evenodd" d="M73.2014 100.566H78.8914V109.634H73.2014V100.566ZM53.2618 100.478H58.9518V109.547H53.2618V100.478ZM61.0823 117.172C61.0823 114.887 62.9374 113.032 65.2225 113.032C67.5075 113.032 69.3626 114.887 69.3626 117.172V125.453H61.0823V117.172ZM80.3262 81.0667V90.1358H71.7666V81.0667H80.3262ZM60.3866 81.0667V90.1358H51.827V81.0667H60.3866Z" fill="#F9FAFB"/>
<path fill-rule="evenodd" clip-rule="evenodd" d="M198.723 49.8852V100.508C198.723 101.128 198.22 101.631 197.6 101.631H192.507C191.887 101.631 191.385 101.128 191.385 100.508V49.8852H179.005C178.385 49.8852 177.882 49.3822 177.882 48.7628V43.908C177.882 43.2886 178.385 42.7856 179.005 42.7856H211.102C211.723 42.7856 212.225 43.2886 212.225 43.908V48.7628C212.225 49.3822 211.723 49.8852 211.102 49.8852H198.723Z" fill="#6D8480"/>
<path fill-rule="evenodd" clip-rule="evenodd" d="M255.369 101.112L240.342 77.4732H235.094V100.508C235.094 101.128 234.591 101.631 233.97 101.631H228.878C228.257 101.631 227.755 101.128 227.755 100.508V43.908C227.755 43.2886 228.257 42.7856 228.878 42.7856H246.841C248.92 42.7856 250.87 43.1775 252.693 43.961C254.511 44.7445 256.102 45.814 257.466 47.1799C258.83 48.5405 259.904 50.1393 260.685 51.9711C261.468 53.8082 261.861 55.7618 261.861 57.8424V62.4166C261.861 64.4972 261.468 66.4507 260.685 68.2878C259.904 70.1196 258.83 71.7185 257.466 73.0791C256.102 74.445 254.511 75.5144 252.693 76.2979C251.457 76.8274 250.162 77.1821 248.808 77.3515L263.146 99.9047C263.366 100.254 263.38 100.688 263.183 101.048C262.985 101.408 262.608 101.631 262.199 101.631H256.316C255.932 101.631 255.575 101.435 255.369 101.112ZM254.522 57.8424C254.522 56.7359 254.318 55.7088 253.904 54.7559C253.487 53.7923 252.919 52.9452 252.199 52.2146C251.485 51.4893 250.648 50.9176 249.691 50.4993C248.737 50.0864 247.707 49.8852 246.604 49.8852H235.094V70.3738H246.604C247.707 70.3738 248.737 70.1726 249.691 69.7596C250.648 69.3414 251.485 68.7696 252.199 68.0443C252.919 67.3137 253.487 66.4666 253.904 65.5031C254.318 64.5501 254.522 63.5231 254.522 62.4166V57.8424Z" fill="#6D8480"/>
<path fill-rule="evenodd" clip-rule="evenodd" d="M281.299 100.508V43.908C281.299 43.2886 281.802 42.7856 282.422 42.7856H314.284C314.903 42.7856 315.406 43.2886 315.406 43.908V48.7628C315.406 49.3822 314.903 49.8852 314.284 49.8852H288.639V68.6796H309.19C309.809 68.6796 310.312 69.1772 310.312 69.8019V74.6568C310.312 75.2762 309.809 75.7791 309.19 75.7791H288.639V94.5312H314.284C314.903 94.5312 315.406 95.0341 315.406 95.6536V100.508C315.406 101.128 314.903 101.631 314.284 101.631H282.422C281.802 101.631 281.299 101.128 281.299 100.508Z" fill="#6D8480"/>
<path fill-rule="evenodd" clip-rule="evenodd" d="M360.151 81.8303V43.908C360.151 43.2886 360.654 42.7856 361.274 42.7856H366.368C366.987 42.7856 367.485 43.2886 367.485 43.908V100.508C367.485 101.128 366.987 101.631 366.368 101.631H363.683C363.281 101.631 362.905 101.419 362.703 101.064L340.723 62.6919V100.508C340.723 101.128 340.22 101.631 339.6 101.631H334.506C333.887 101.631 333.384 101.128 333.384 100.508V43.908C333.384 43.2886 333.887 42.7856 334.506 42.7856H337.148C337.551 42.7856 337.927 42.9974 338.123 43.3469L360.151 81.8303Z" fill="#6D8480"/>
<path fill-rule="evenodd" clip-rule="evenodd" d="M404.684 49.8852V100.508C404.684 101.128 404.187 101.631 403.567 101.631H398.473C397.853 101.631 397.35 101.128 397.35 100.508V49.8852H384.97C384.35 49.8852 383.847 49.3822 383.847 48.7628V43.908C383.847 43.2886 384.35 42.7856 384.97 42.7856H417.065C417.684 42.7856 418.187 43.2886 418.187 43.908V48.7628C418.187 49.3822 417.684 49.8852 417.065 49.8852H404.684Z" fill="#6D8480"/>
<path fill-rule="evenodd" clip-rule="evenodd" d="M467.825 87.4052C467.825 89.4805 467.428 91.4341 466.65 93.2553C465.866 95.0712 464.791 96.6647 463.43 98.0254C462.064 99.3913 460.475 100.466 458.659 101.244C456.832 102.028 454.883 102.42 452.802 102.42H448.778C446.702 102.42 444.743 102.028 442.911 101.244C441.073 100.466 439.479 99.3913 438.113 98.0254C436.752 96.6647 435.677 95.0712 434.894 93.2553C434.11 91.4341 433.718 89.4805 433.718 87.4052V57.0112C433.718 54.9305 434.11 52.9823 434.894 51.1611C435.677 49.3399 436.752 47.7516 438.113 46.391C439.479 45.0251 441.073 43.9504 442.911 43.1722C444.743 42.3886 446.702 41.9968 448.778 41.9968H452.802C454.883 41.9968 456.832 42.3886 458.659 43.1722C460.475 43.9504 462.064 45.0251 463.43 46.391C464.791 47.7516 465.866 49.3399 466.65 51.1611C467.428 52.9823 467.825 54.9305 467.825 57.0112V87.4052ZM460.486 57.0112C460.486 55.91 460.279 54.8776 459.866 53.9247C459.453 52.9664 458.887 52.1299 458.172 51.4099C457.452 50.6952 456.615 50.1287 455.657 49.7105C454.698 49.2976 453.671 49.0964 452.569 49.0964H449.016C447.91 49.0964 446.882 49.2976 445.929 49.7105C444.965 50.1287 444.118 50.7005 443.387 51.4152C442.662 52.1299 442.09 52.9664 441.677 53.9247C441.264 54.8776 441.058 55.91 441.058 57.0112V87.4052C441.058 88.5064 441.264 89.5388 441.677 90.4917C442.09 91.45 442.662 92.297 443.393 93.0223C444.123 93.7529 444.965 94.3247 445.929 94.7429C446.882 95.1559 447.91 95.3624 449.016 95.3624H452.569C453.671 95.3624 454.698 95.1559 455.657 94.7429C456.61 94.3247 457.446 93.7582 458.161 93.0329C458.881 92.3023 459.448 91.4553 459.866 90.4917C460.279 89.5388 460.486 88.5064 460.486 87.4052V57.0112Z" fill="#6D8480"/>
</svg>
