<?xml version="1.0" encoding="utf-8"?>
<!-- Generator: Adobe Illustrator 26.0.1, SVG Export Plug-In . SVG Version: 6.00 Build 0)  -->
<svg version="1.1" id="Layer_1" xmlns="http://www.w3.org/2000/svg" xmlns:xlink="http://www.w3.org/1999/xlink" x="0px" y="0px"
	 viewBox="0 0 537.1 113.4" style="enable-background:new 0 0 537.1 113.4;" xml:space="preserve">
<style type="text/css">
	.st0{fill:#25BBBF;}
	.st1{fill:#2CE0E5;}
	.st2{fill:#31F9FF;}
	.st3{fill:#FFFFFF;}
	.st4{fill:#299B98;}
	.st5{fill:#0E7774;}
</style>
<g transform="translate(-6.39 -32.061)">
	<path class="st0" d="M163,70.7V105h25.7V70.7h8.6v42.8h-42.8V70.7H163z"/>
	<path class="st0" d="M257.2,113.6V96.4l-17.1-25.7h10.7l10.7,15l10.8-15h10.6l-17.1,25.7v17.1L257.2,113.6z"/>
	<path class="st0" d="M334.3,70.7V105H360V70.7h8.6v42.8h-42.8V70.7H334.3z"/>
	<path class="st0" d="M411.4,113.6V70.7h8.6l25.7,30.4V70.7h8.6v42.8h-8.6L420,84.1v29.4H411.4z"/>
	<path class="st0" d="M522.8,70.7v42.8h-8.6V70.7H522.8z"/>
	<path class="st1" d="M94.2,56.3V35h-46v38.8L94.2,56.3z"/>
	<path class="st2" d="M48.2,35h-8.4l-31,53.7l39.5-15V35z"/>
	<path class="st3" d="M48.2,113.6L48.2,113.6z"/>
	<path class="st4" d="M110.6,50.1L101.9,35h-7.6v21.3L110.6,50.1z"/>
	<path class="st1" d="M48.2,73.8l-39.5,15l39.5,24.8V73.8z"/>
	<path class="st0" d="M48.2,113.6h46V56.3l-46,17.4L48.2,113.6z"/>
	<path class="st5" d="M110.6,50.1l-16.3,6.2v57.2h24.3l14.3-24.8L110.6,50.1z"/>
	<path class="st4" d="M94.2,142.5h7.6l16.7-28.9H94.2V142.5z"/>
	<path class="st5" d="M48.3,113.6l46,28.9v-28.9H48.3z"/>
	<path class="st4" d="M48.2,113.6v28.9h46L48.2,113.6L48.2,113.6z"/>
	<path class="st0" d="M48.2,113.6L8.8,88.7l31,53.8h8.4V113.6L48.2,113.6z"/>
</g>
</svg>
