<svg xmlns="http://www.w3.org/2000/svg" width="281.315" height="91.13" viewBox="0 0 281.315 91.13">
  <g id="Page-1" transform="translate(-0.845 -0.33)">
    <g id="eclipse-foundation-white-orange">
      <g id="Layer_1">
        <path id="Shape" d="M266.56,84.3l-8.67-11h-2.71V91h3.34V79l9.31,12h2.07V73.31h-3.34ZM234.15,76c4.17,0,5.84,3.34,5.79,6.33s-1.62,6-5.79,6-5.74-3.11-5.81-6S230,76,234.15,76Zm0-3c-6.12,0-9.1,4.68-9.1,9.33s2.88,9.13,9.1,9.13,9-4.58,9.08-9.16-2.98-9.3-9.08-9.3ZM212.92,91V73.31H209.6V91Zm-23.56,0h3.34V76.34h5.61v-3H183.74v3h5.62Zm-18.91-6.44h-6.58L167.16,77ZM173.28,91h3.64L169,73.31h-3.64L157.4,91H161l1.51-3.33h9.26Zm-38-14.56h3.64c3.85,0,5.46,2.76,5.54,5.52s-1.52,5.83-5.54,5.83h-3.64Zm3.64-3.16H132V91h6.95c6.2,0,8.93-4.52,8.85-9s-2.8-8.69-8.88-8.69Zm-22.37,11-8.67-11h-2.71V91h3.34V79l9.3,12h2.08V73.31h-3.34ZM89.09,73.34V83.5c0,3-1.56,4.88-4.32,4.88s-4.58-1.69-4.58-4.88V73.36H76.88V83.5c0,5.33,3.62,7.91,7.86,7.91,4.45,0,7.67-2.68,7.67-7.91V73.36Zm-33,2.65c4.17,0,5.84,3.34,5.79,6.33s-1.62,6-5.79,6-5.74-3.11-5.82-6S51.93,76,56.1,76Zm0-3c-6.12,0-9.1,4.68-9.1,9.33s2.88,9.13,9.1,9.13,9-4.58,9.08-9.16S62.19,73,56.1,73ZM26.32,91V84.46h8.87V81.4H26.32V76.57H35.7V73.36H23V91Z" fill="#f79422" fill-rule="evenodd"/>
        <path id="Shape-2" data-name="Shape" d="M270.23,54.75H248.06V45.84h21.38V38.9H248.06V29.76h22.17V22.54H240.67V62.08h29.56Zm-40-25.66c-3-6.1-9.36-7.84-15.51-7.84-7.28,0-15.29,3.38-15.29,11.5,0,8.86,7.45,11,15.51,12,5.25.56,9.14,2.09,9.14,5.81,0,4.29-4.4,5.92-9.08,5.92s-9.36-1.92-11.11-6.26l-6.21,3.22c2.94,7.22,9.14,9.7,17.21,9.7,8.8,0,16.58-3.78,16.58-12.58,0-9.42-7.67-11.56-15.91-12.58-4.73-.56-8.79-1.52-8.79-5,0-2.93,2.65-5.25,8.17-5.25,4.29,0,8,2.15,9.37,4.4Zm-53.34-6.55c-6.21-.05-12.41,0-18.62,0V62.08h7.45V50.46h11.17c19.36,0,19.31-27.92.02-27.92Zm-11.17,7.11h11.17c9.47,0,9.53,14,0,14H165.74Zm-18,32.43V22.54h-7.39V62.08Zm-44-39.54V62.08h27.75V55.2H111.22V22.54ZM91.55,52a14.53,14.53,0,0,1-9.92,4c-9.76,0-13.54-6.82-13.6-13.37s4.06-13.7,13.6-13.7a13.56,13.56,0,0,1,9.53,3.72l5-4.79a20.35,20.35,0,0,0-14.49-6c-14.27,0-21,10.49-20.93,20.81S67,63,81.63,63a20.83,20.83,0,0,0,15-5.87Zm-39,2.76H30.37V45.84H51.75V38.9H30.37V29.76H52.54V22.54H23V62.08H52.56Z" fill-rule="evenodd"/>
        <path id="Shape-3" data-name="Shape" d="M10.66,18.52c9-14.1,27.15-19,42.25-12.25l-1-.69a33.161,33.161,0,1,0-35.8,55.83l1.05.63a33.743,33.743,0,0,1-6.5-43.52Z" fill="#f79422" fill-rule="evenodd"/>
        <path id="Shape-4" data-name="Shape" d="M273,26.41h0a4.58,4.58,0,0,1,9.16,0h0a4.58,4.58,0,0,1-9.16,0Zm8.63,0h0a4.05,4.05,0,0,0-8.1,0h0a4,4,0,0,0,4.05,4.08,4.07,4.07,0,0,0,4.09-4.11Zm-5.94-2.47H278c1.11,0,1.92.5,1.92,1.58A1.46,1.46,0,0,1,278.83,27L280,28.67h-1.39l-1-1.5h-.74v1.5h-1.15Zm2.15,2.31c.53,0,.82-.26.82-.65s-.32-.66-.82-.66h-1v1.31Z" fill="#fff" fill-rule="evenodd"/>
      </g>
    </g>
  </g>
</svg>
