<?xml version="1.0" encoding="UTF-8"?>
<svg xmlns="http://www.w3.org/2000/svg" xmlns:xlink="http://www.w3.org/1999/xlink" width="150px" height="84px" viewBox="0 0 150 84" version="1.1">
<g id="surface1">
<path style=" stroke:none;fill-rule:nonzero;fill:rgb(16.078431%,22.352941%,49.803922%);fill-opacity:1;" d="M 71.824219 68.589844 L 66.945312 68.589844 C 66.433594 68.589844 66.027344 69 66.027344 69.507812 C 66.027344 70.015625 66.433594 70.472656 66.945312 70.472656 L 71.824219 70.472656 C 72.332031 70.472656 72.738281 70.066406 72.738281 69.507812 C 72.738281 69 72.382812 68.589844 71.824219 68.589844 "/>
<path style=" stroke:none;fill-rule:nonzero;fill:rgb(16.078431%,22.352941%,49.803922%);fill-opacity:1;" d="M 97.59375 5.992188 C 97.339844 5.992188 97.035156 5.890625 96.832031 5.6875 L 93.984375 2.839844 C 93.578125 2.429688 93.578125 1.71875 93.984375 1.3125 C 94.390625 0.90625 95.101562 0.90625 95.511719 1.3125 L 98.355469 4.160156 C 98.761719 4.570312 98.761719 5.28125 98.355469 5.6875 C 98.152344 5.890625 97.898438 5.992188 97.59375 5.992188 "/>
<path style=" stroke:none;fill-rule:nonzero;fill:rgb(16.078431%,22.352941%,49.803922%);fill-opacity:1;" d="M 145.019531 5.992188 C 144.765625 5.992188 144.460938 5.890625 144.257812 5.6875 C 143.847656 5.28125 143.847656 4.570312 144.257812 4.160156 L 147.101562 1.3125 C 147.507812 0.90625 148.222656 0.90625 148.628906 1.3125 C 149.035156 1.71875 149.035156 2.429688 148.628906 2.839844 L 145.78125 5.6875 C 145.527344 5.890625 145.273438 5.992188 145.019531 5.992188 "/>
<path style=" stroke:none;fill-rule:nonzero;fill:rgb(16.078431%,22.352941%,49.803922%);fill-opacity:1;" d="M 94.746094 56.273438 C 94.492188 56.273438 94.1875 56.171875 93.984375 55.96875 C 93.578125 55.5625 93.578125 54.851562 93.984375 54.441406 L 96.832031 51.59375 C 97.238281 51.1875 97.949219 51.1875 98.355469 51.59375 C 98.761719 52 98.761719 52.710938 98.355469 53.121094 L 95.511719 55.96875 C 95.308594 56.171875 95.050781 56.273438 94.746094 56.273438 "/>
<path style=" stroke:none;fill-rule:nonzero;fill:rgb(16.078431%,22.352941%,49.803922%);fill-opacity:1;" d="M 147.863281 56.273438 C 147.609375 56.273438 147.304688 56.171875 147.101562 55.96875 L 144.257812 53.121094 C 143.847656 52.710938 143.847656 52 144.257812 51.59375 C 144.664062 51.1875 145.375 51.1875 145.78125 51.59375 L 148.628906 54.441406 C 149.035156 54.851562 149.035156 55.5625 148.628906 55.96875 C 148.425781 56.171875 148.121094 56.273438 147.863281 56.273438 "/>
<path style=" stroke:none;fill-rule:nonzero;fill:rgb(16.078431%,22.352941%,49.803922%);fill-opacity:1;" d="M 107.457031 6.605469 C 107.097656 6.605469 106.742188 6.402344 106.539062 6.097656 L 104.457031 2.585938 C 104.152344 2.074219 104.304688 1.414062 104.8125 1.109375 C 105.320312 0.804688 105.980469 0.957031 106.285156 1.464844 L 108.371094 4.925781 C 108.675781 5.433594 108.523438 6.097656 108.015625 6.402344 C 107.863281 6.554688 107.660156 6.605469 107.457031 6.605469 "/>
<path style=" stroke:none;fill-rule:nonzero;fill:rgb(16.078431%,22.352941%,49.803922%);fill-opacity:1;" d="M 116.808594 7.0625 C 116.300781 7.0625 115.84375 6.707031 115.742188 6.199219 L 114.925781 2.226562 C 114.824219 1.617188 115.179688 1.058594 115.792969 0.957031 C 116.402344 0.855469 116.960938 1.210938 117.0625 1.820312 L 117.875 5.789062 C 117.976562 6.402344 117.621094 6.960938 117.011719 7.0625 C 116.910156 7.0625 116.859375 7.0625 116.808594 7.0625 "/>
<path style=" stroke:none;fill-rule:nonzero;fill:rgb(16.078431%,22.352941%,49.803922%);fill-opacity:1;" d="M 117.011719 16.78125 C 116.554688 16.78125 116.148438 16.476562 115.996094 16.019531 L 114.722656 12.203125 C 114.519531 11.644531 114.824219 11.03125 115.433594 10.828125 C 115.996094 10.625 116.605469 10.929688 116.808594 11.542969 L 118.078125 15.359375 C 118.28125 15.917969 117.976562 16.527344 117.367188 16.730469 C 117.214844 16.78125 117.113281 16.78125 117.011719 16.78125 "/>
<path style=" stroke:none;fill-rule:nonzero;fill:rgb(16.078431%,22.352941%,49.803922%);fill-opacity:1;" d="M 135.15625 6.605469 C 134.953125 6.605469 134.75 6.554688 134.597656 6.453125 C 134.089844 6.148438 133.9375 5.484375 134.242188 4.976562 L 136.328125 1.515625 C 136.632812 1.007812 137.292969 0.855469 137.800781 1.160156 C 138.308594 1.464844 138.460938 2.125 138.15625 2.636719 L 136.074219 6.097656 C 135.871094 6.402344 135.511719 6.605469 135.15625 6.605469 "/>
<path style=" stroke:none;fill-rule:nonzero;fill:rgb(16.078431%,22.352941%,49.803922%);fill-opacity:1;" d="M 125.804688 7.0625 C 125.753906 7.0625 125.652344 7.0625 125.601562 7.0625 C 124.992188 6.960938 124.636719 6.351562 124.738281 5.789062 L 125.550781 1.820312 C 125.652344 1.210938 126.261719 0.855469 126.820312 0.957031 C 127.429688 1.058594 127.789062 1.667969 127.683594 2.226562 L 126.871094 6.199219 C 126.769531 6.707031 126.3125 7.0625 125.804688 7.0625 "/>
<path style=" stroke:none;fill-rule:nonzero;fill:rgb(16.078431%,22.352941%,49.803922%);fill-opacity:1;" d="M 125.601562 16.78125 C 125.5 16.78125 125.398438 16.78125 125.246094 16.730469 C 124.6875 16.527344 124.382812 15.917969 124.585938 15.359375 L 125.855469 11.542969 C 126.058594 10.980469 126.667969 10.675781 127.226562 10.828125 C 127.789062 11.03125 128.09375 11.644531 127.941406 12.203125 L 126.667969 16.019531 C 126.464844 16.476562 126.058594 16.78125 125.601562 16.78125 "/>
<path style=" stroke:none;fill-rule:nonzero;fill:rgb(16.078431%,22.352941%,49.803922%);fill-opacity:1;" d="M 105.371094 56.273438 C 105.167969 56.273438 104.964844 56.222656 104.8125 56.121094 C 104.304688 55.816406 104.152344 55.15625 104.457031 54.648438 L 106.539062 51.1875 C 106.84375 50.675781 107.507812 50.523438 108.015625 50.828125 C 108.523438 51.136719 108.675781 51.796875 108.371094 52.304688 L 106.285156 55.765625 C 106.082031 56.070312 105.726562 56.273438 105.371094 56.273438 "/>
<path style=" stroke:none;fill-rule:nonzero;fill:rgb(16.078431%,22.352941%,49.803922%);fill-opacity:1;" d="M 115.996094 56.273438 C 115.945312 56.273438 115.84375 56.273438 115.792969 56.273438 C 115.179688 56.171875 114.824219 55.5625 114.925781 55.003906 L 115.742188 51.035156 C 115.84375 50.421875 116.453125 50.066406 117.011719 50.167969 C 117.621094 50.269531 117.976562 50.878906 117.875 51.441406 L 117.0625 55.410156 C 116.960938 55.917969 116.503906 56.273438 115.996094 56.273438 "/>
<path style=" stroke:none;fill-rule:nonzero;fill:rgb(16.078431%,22.352941%,49.803922%);fill-opacity:1;" d="M 115.742188 46.453125 C 115.640625 46.453125 115.484375 46.453125 115.382812 46.402344 C 114.824219 46.199219 114.519531 45.585938 114.671875 45.027344 L 115.945312 41.210938 C 116.148438 40.652344 116.757812 40.347656 117.316406 40.550781 C 117.875 40.753906 118.179688 41.363281 118.027344 41.921875 L 116.757812 45.742188 C 116.605469 46.148438 116.199219 46.453125 115.742188 46.453125 "/>
<path style=" stroke:none;fill-rule:nonzero;fill:rgb(16.078431%,22.352941%,49.803922%);fill-opacity:1;" d="M 137.242188 56.273438 C 136.886719 56.273438 136.53125 56.070312 136.328125 55.765625 L 134.242188 52.304688 C 133.9375 51.796875 134.089844 51.136719 134.597656 50.828125 C 135.105469 50.523438 135.765625 50.675781 136.074219 51.1875 L 138.15625 54.648438 C 138.460938 55.15625 138.308594 55.816406 137.800781 56.121094 C 137.597656 56.222656 137.445312 56.273438 137.242188 56.273438 "/>
<path style=" stroke:none;fill-rule:nonzero;fill:rgb(16.078431%,22.352941%,49.803922%);fill-opacity:1;" d="M 126.617188 56.273438 C 126.109375 56.273438 125.652344 55.917969 125.550781 55.410156 L 124.738281 51.441406 C 124.636719 50.828125 124.992188 50.269531 125.601562 50.167969 C 126.210938 50.066406 126.769531 50.421875 126.871094 51.035156 L 127.683594 55.003906 C 127.789062 55.613281 127.429688 56.171875 126.820312 56.273438 C 126.769531 56.273438 126.667969 56.273438 126.617188 56.273438 "/>
<path style=" stroke:none;fill-rule:nonzero;fill:rgb(16.078431%,22.352941%,49.803922%);fill-opacity:1;" d="M 126.871094 46.453125 C 126.414062 46.453125 126.007812 46.148438 125.855469 45.691406 L 124.585938 41.871094 C 124.382812 41.3125 124.6875 40.703125 125.246094 40.5 C 125.804688 40.296875 126.414062 40.601562 126.617188 41.160156 L 127.890625 44.976562 C 128.09375 45.535156 127.789062 46.148438 127.175781 46.351562 C 127.125 46.453125 126.972656 46.453125 126.871094 46.453125 "/>
<path style=" stroke:none;fill-rule:nonzero;fill:rgb(16.078431%,22.352941%,49.803922%);fill-opacity:1;" d="M 138.054688 46.453125 C 137.800781 46.453125 137.496094 46.351562 137.292969 46.148438 L 134.445312 43.296875 C 134.039062 42.890625 134.039062 42.179688 134.445312 41.769531 C 134.851562 41.363281 135.5625 41.363281 135.972656 41.769531 L 138.816406 44.621094 C 139.222656 45.027344 139.222656 45.742188 138.816406 46.148438 C 138.613281 46.351562 138.308594 46.453125 138.054688 46.453125 "/>
<path style=" stroke:none;fill-rule:nonzero;fill:rgb(16.078431%,22.352941%,49.803922%);fill-opacity:1;" d="M 144.410156 15.816406 C 144.054688 15.816406 143.695312 15.613281 143.492188 15.308594 C 143.1875 14.796875 143.339844 14.136719 143.847656 13.832031 L 147.304688 11.746094 C 147.8125 11.4375 148.476562 11.59375 148.78125 12.101562 C 149.085938 12.609375 148.933594 13.273438 148.425781 13.578125 L 144.96875 15.664062 C 144.765625 15.765625 144.5625 15.816406 144.410156 15.816406 "/>
<path style=" stroke:none;fill-rule:nonzero;fill:rgb(16.078431%,22.352941%,49.803922%);fill-opacity:1;" d="M 143.898438 25.179688 C 143.390625 25.179688 142.933594 24.824219 142.832031 24.316406 C 142.730469 23.703125 143.085938 23.144531 143.695312 23.042969 L 147.660156 22.230469 C 148.273438 22.125 148.832031 22.484375 148.933594 23.09375 C 149.035156 23.703125 148.679688 24.265625 148.070312 24.367188 L 144.105469 25.179688 C 144.054688 25.179688 143.953125 25.179688 143.898438 25.179688 "/>
<path style=" stroke:none;fill-rule:nonzero;fill:rgb(16.078431%,22.352941%,49.803922%);fill-opacity:1;" d="M 134.191406 25.382812 C 133.734375 25.382812 133.328125 25.078125 133.175781 24.621094 C 132.972656 24.0625 133.277344 23.449219 133.886719 23.246094 L 137.699219 21.972656 C 138.257812 21.769531 138.867188 22.074219 139.070312 22.636719 C 139.273438 23.195312 138.96875 23.804688 138.359375 24.007812 L 134.546875 25.28125 C 134.445312 25.382812 134.34375 25.382812 134.191406 25.382812 "/>
<path style=" stroke:none;fill-rule:nonzero;fill:rgb(16.078431%,22.352941%,49.803922%);fill-opacity:1;" d="M 147.863281 45.640625 C 147.660156 45.640625 147.457031 45.585938 147.304688 45.484375 L 143.847656 43.398438 C 143.339844 43.09375 143.1875 42.433594 143.492188 41.921875 C 143.796875 41.414062 144.460938 41.261719 144.96875 41.566406 L 148.425781 43.652344 C 148.933594 43.960938 149.085938 44.621094 148.78125 45.128906 C 148.578125 45.433594 148.222656 45.640625 147.863281 45.640625 "/>
<path style=" stroke:none;fill-rule:nonzero;fill:rgb(16.078431%,22.352941%,49.803922%);fill-opacity:1;" d="M 147.863281 35.003906 C 147.8125 35.003906 147.710938 35.003906 147.660156 35.003906 L 143.695312 34.1875 C 143.085938 34.085938 142.730469 33.476562 142.832031 32.914062 C 142.933594 32.304688 143.542969 31.949219 144.105469 32.050781 L 148.070312 32.863281 C 148.679688 32.964844 149.035156 33.578125 148.933594 34.136719 C 148.832031 34.644531 148.375 35.003906 147.863281 35.003906 "/>
<path style=" stroke:none;fill-rule:nonzero;fill:rgb(16.078431%,22.352941%,49.803922%);fill-opacity:1;" d="M 138.054688 35.308594 C 137.953125 35.308594 137.851562 35.308594 137.699219 35.257812 L 133.886719 33.984375 C 133.328125 33.78125 133.023438 33.171875 133.175781 32.609375 C 133.378906 32.050781 133.988281 31.746094 134.546875 31.949219 L 138.359375 33.222656 C 138.917969 33.425781 139.222656 34.035156 139.070312 34.59375 C 138.917969 35.003906 138.511719 35.308594 138.054688 35.308594 "/>
<path style=" stroke:none;fill-rule:nonzero;fill:rgb(16.078431%,22.352941%,49.803922%);fill-opacity:1;" d="M 98.203125 15.816406 C 98 15.816406 97.796875 15.765625 97.644531 15.664062 L 94.1875 13.578125 C 93.679688 13.273438 93.527344 12.609375 93.832031 12.101562 C 94.136719 11.59375 94.796875 11.4375 95.308594 11.746094 L 98.761719 13.832031 C 99.269531 14.136719 99.425781 14.796875 99.117188 15.308594 C 98.964844 15.664062 98.609375 15.816406 98.203125 15.816406 "/>
<path style=" stroke:none;fill-rule:nonzero;fill:rgb(16.078431%,22.352941%,49.803922%);fill-opacity:1;" d="M 98.710938 25.179688 C 98.660156 25.179688 98.558594 25.179688 98.507812 25.179688 L 94.542969 24.367188 C 93.933594 24.265625 93.578125 23.652344 93.679688 23.09375 C 93.78125 22.484375 94.390625 22.125 94.949219 22.230469 L 98.914062 23.042969 C 99.527344 23.144531 99.882812 23.753906 99.78125 24.316406 C 99.679688 24.824219 99.21875 25.179688 98.710938 25.179688 "/>
<path style=" stroke:none;fill-rule:nonzero;fill:rgb(16.078431%,22.352941%,49.803922%);fill-opacity:1;" d="M 108.421875 25.382812 C 108.320312 25.382812 108.167969 25.382812 108.066406 25.332031 L 104.253906 24.0625 C 103.695312 23.855469 103.390625 23.246094 103.542969 22.6875 C 103.746094 22.125 104.355469 21.820312 104.914062 22.023438 L 108.726562 23.296875 C 109.285156 23.5 109.589844 24.113281 109.4375 24.671875 C 109.285156 25.078125 108.878906 25.382812 108.421875 25.382812 "/>
<path style=" stroke:none;fill-rule:nonzero;fill:rgb(16.078431%,22.352941%,49.803922%);fill-opacity:1;" d="M 94.746094 45.640625 C 94.390625 45.640625 94.035156 45.433594 93.832031 45.128906 C 93.527344 44.621094 93.679688 43.960938 94.1875 43.652344 L 97.644531 41.566406 C 98.152344 41.261719 98.8125 41.414062 99.117188 41.921875 C 99.425781 42.433594 99.269531 43.09375 98.761719 43.398438 L 95.308594 45.484375 C 95.152344 45.585938 94.949219 45.640625 94.746094 45.640625 "/>
<path style=" stroke:none;fill-rule:nonzero;fill:rgb(16.078431%,22.352941%,49.803922%);fill-opacity:1;" d="M 94.746094 35.003906 C 94.238281 35.003906 93.78125 34.644531 93.679688 34.136719 C 93.578125 33.527344 93.933594 32.964844 94.542969 32.863281 L 98.507812 32.050781 C 99.117188 31.949219 99.679688 32.304688 99.78125 32.914062 C 99.882812 33.527344 99.527344 34.085938 98.914062 34.1875 L 94.949219 35.003906 C 94.898438 35.003906 94.847656 35.003906 94.746094 35.003906 "/>
<path style=" stroke:none;fill-rule:nonzero;fill:rgb(16.078431%,22.352941%,49.803922%);fill-opacity:1;" d="M 104.558594 35.308594 C 104.101562 35.308594 103.695312 35.003906 103.542969 34.542969 C 103.335938 33.984375 103.644531 33.375 104.253906 33.171875 L 108.066406 31.898438 C 108.625 31.695312 109.234375 32 109.4375 32.558594 C 109.640625 33.121094 109.335938 33.730469 108.726562 33.933594 L 104.914062 35.207031 C 104.8125 35.257812 104.710938 35.308594 104.558594 35.308594 "/>
<path style=" stroke:none;fill-rule:nonzero;fill:rgb(16.078431%,22.352941%,49.803922%);fill-opacity:1;" d="M 117.824219 27.265625 C 117.265625 27.265625 116.707031 27.0625 116.300781 26.605469 L 113.453125 23.753906 C 112.589844 22.890625 112.589844 21.515625 113.453125 20.703125 C 114.316406 19.835938 115.691406 19.835938 116.503906 20.703125 L 119.347656 23.550781 C 120.214844 24.417969 120.214844 25.789062 119.347656 26.605469 C 118.941406 27.0625 118.382812 27.265625 117.824219 27.265625 "/>
<path style=" stroke:none;fill-rule:nonzero;fill:rgb(16.078431%,22.352941%,49.803922%);fill-opacity:1;" d="M 124.789062 27.265625 C 124.230469 27.265625 123.671875 27.0625 123.261719 26.605469 C 122.398438 25.738281 122.398438 24.367188 123.261719 23.550781 L 126.109375 20.703125 C 126.972656 19.835938 128.347656 19.835938 129.160156 20.703125 C 130.023438 21.566406 130.023438 22.941406 129.160156 23.753906 L 126.3125 26.605469 C 125.90625 27.0625 125.347656 27.265625 124.789062 27.265625 "/>
<path style=" stroke:none;fill-rule:nonzero;fill:rgb(16.078431%,22.352941%,49.803922%);fill-opacity:1;" d="M 114.976562 37.140625 C 114.417969 37.140625 113.859375 36.9375 113.453125 36.476562 C 112.589844 35.613281 112.589844 34.238281 113.453125 33.425781 L 116.300781 30.574219 C 117.164062 29.710938 118.535156 29.710938 119.347656 30.574219 C 120.214844 31.441406 120.214844 32.8125 119.347656 33.628906 L 116.503906 36.476562 C 116.046875 36.9375 115.535156 37.140625 114.976562 37.140625 "/>
<path style=" stroke:none;fill-rule:nonzero;fill:rgb(16.078431%,22.352941%,49.803922%);fill-opacity:1;" d="M 127.632812 37.140625 C 127.074219 37.140625 126.515625 36.9375 126.109375 36.476562 L 123.261719 33.628906 C 122.398438 32.761719 122.398438 31.390625 123.261719 30.574219 C 124.128906 29.710938 125.5 29.710938 126.3125 30.574219 L 129.160156 33.425781 C 130.023438 34.289062 130.023438 35.664062 129.160156 36.476562 C 128.753906 36.9375 128.195312 37.140625 127.632812 37.140625 "/>
<path style=" stroke:none;fill-rule:nonzero;fill:rgb(16.078431%,22.352941%,49.803922%);fill-opacity:1;" d="M 82.039062 69.457031 L 88.394531 63.09375 C 88.800781 62.6875 88.800781 61.976562 88.394531 61.566406 C 87.988281 61.160156 87.277344 61.160156 86.867188 61.566406 L 80.515625 67.929688 L 74.160156 61.566406 C 73.753906 61.160156 73.042969 61.160156 72.636719 61.566406 C 72.230469 61.976562 72.230469 62.6875 72.636719 63.09375 L 78.988281 69.457031 L 72.585938 75.867188 C 72.179688 76.277344 72.179688 76.988281 72.585938 77.394531 C 72.789062 77.597656 73.09375 77.699219 73.347656 77.699219 C 73.601562 77.699219 73.90625 77.597656 74.109375 77.394531 L 80.464844 71.035156 L 86.917969 77.394531 C 87.121094 77.597656 87.429688 77.699219 87.683594 77.699219 C 87.9375 77.699219 88.242188 77.597656 88.445312 77.394531 C 88.851562 76.988281 88.851562 76.277344 88.445312 75.867188 L 82.039062 69.457031 "/>
<path style=" stroke:none;fill-rule:nonzero;fill:rgb(16.078431%,22.352941%,49.803922%);fill-opacity:1;" d="M 104.558594 46.453125 C 104.304688 46.453125 104 46.351562 103.796875 46.148438 C 103.390625 45.742188 103.390625 45.027344 103.796875 44.621094 L 106.640625 41.769531 C 107.046875 41.363281 107.761719 41.363281 108.167969 41.769531 C 108.574219 42.179688 108.574219 42.890625 108.167969 43.296875 L 105.320312 46.148438 C 105.117188 46.351562 104.863281 46.453125 104.558594 46.453125 "/>
<path style=" stroke:none;fill-rule:nonzero;fill:rgb(16.078431%,22.352941%,49.803922%);fill-opacity:1;" d="M 107.402344 15.816406 C 107.148438 15.816406 106.84375 15.714844 106.640625 15.511719 L 103.796875 12.660156 C 103.390625 12.253906 103.390625 11.542969 103.796875 11.132812 C 104.203125 10.726562 104.914062 10.726562 105.320312 11.132812 L 108.167969 13.984375 C 108.574219 14.390625 108.574219 15.105469 108.167969 15.511719 C 107.964844 15.714844 107.710938 15.816406 107.402344 15.816406 "/>
<path style=" stroke:none;fill-rule:nonzero;fill:rgb(16.078431%,22.352941%,49.803922%);fill-opacity:1;" d="M 135.207031 15.816406 C 134.953125 15.816406 134.648438 15.714844 134.445312 15.511719 C 134.039062 15.105469 134.039062 14.390625 134.445312 13.984375 L 137.292969 11.132812 C 137.699219 10.726562 138.410156 10.726562 138.816406 11.132812 C 139.222656 11.542969 139.222656 12.253906 138.816406 12.660156 L 135.972656 15.511719 C 135.714844 15.714844 135.460938 15.816406 135.207031 15.816406 "/>
<path style=" stroke:none;fill-rule:nonzero;fill:rgb(16.078431%,22.352941%,49.803922%);fill-opacity:1;" d="M 27.550781 75.460938 C 24.5 75.460938 22.058594 72.816406 22.058594 69.507812 C 22.058594 66.199219 24.550781 63.550781 27.550781 63.550781 C 30.601562 63.550781 33.039062 66.25 33.039062 69.507812 C 33.089844 72.816406 30.601562 75.460938 27.550781 75.460938 Z M 34.105469 61.464844 C 33.496094 61.464844 33.039062 61.925781 33.039062 62.535156 L 33.039062 63.960938 C 31.617188 62.382812 29.582031 61.464844 27.550781 61.464844 C 23.332031 61.464844 19.925781 65.078125 19.925781 69.507812 C 19.925781 73.933594 23.332031 77.546875 27.550781 77.546875 C 29.632812 77.546875 31.617188 76.632812 33.039062 75.054688 L 33.039062 76.480469 C 33.039062 77.039062 33.546875 77.546875 34.105469 77.546875 C 34.667969 77.546875 35.175781 77.039062 35.175781 76.480469 L 35.175781 62.484375 C 35.175781 61.925781 34.71875 61.464844 34.105469 61.464844 "/>
<path style=" stroke:none;fill-rule:nonzero;fill:rgb(16.078431%,22.352941%,49.803922%);fill-opacity:1;" d="M 41.527344 55.96875 C 40.96875 55.96875 40.460938 56.480469 40.460938 57.039062 L 40.460938 57.75 C 40.460938 58.363281 40.96875 58.871094 41.527344 58.871094 C 42.136719 58.871094 42.648438 58.363281 42.648438 57.75 L 42.648438 57.039062 C 42.648438 56.480469 42.136719 55.96875 41.527344 55.96875 "/>
<path style=" stroke:none;fill-rule:nonzero;fill:rgb(16.078431%,22.352941%,49.803922%);fill-opacity:1;" d="M 41.527344 61.464844 C 40.917969 61.464844 40.460938 61.925781 40.460938 62.535156 L 40.460938 76.53125 C 40.460938 77.089844 40.96875 77.597656 41.527344 77.597656 C 42.136719 77.597656 42.648438 77.140625 42.648438 76.53125 L 42.648438 62.535156 C 42.648438 61.925781 42.1875 61.464844 41.527344 61.464844 "/>
<path style=" stroke:none;fill-rule:nonzero;fill:rgb(16.078431%,22.352941%,49.803922%);fill-opacity:1;" d="M 54.640625 75.460938 C 51.59375 75.460938 49.152344 72.816406 49.152344 69.507812 C 49.152344 66.199219 51.644531 63.550781 54.640625 63.550781 C 57.691406 63.550781 60.132812 66.25 60.132812 69.507812 C 60.132812 72.816406 57.691406 75.460938 54.640625 75.460938 Z M 61.199219 61.464844 C 60.589844 61.464844 60.132812 61.925781 60.132812 62.535156 L 60.132812 63.960938 C 58.707031 62.382812 56.675781 61.464844 54.640625 61.464844 C 50.421875 61.464844 47.019531 65.078125 47.019531 69.507812 C 47.019531 73.933594 50.421875 77.546875 54.640625 77.546875 C 56.726562 77.546875 58.707031 76.632812 60.132812 75.054688 L 60.132812 76.480469 C 60.132812 77.039062 60.640625 77.546875 61.199219 77.546875 C 61.757812 77.546875 62.265625 77.039062 62.265625 76.480469 L 62.265625 62.484375 C 62.265625 61.925781 61.808594 61.464844 61.199219 61.464844 "/>
<path style=" stroke:none;fill-rule:nonzero;fill:rgb(16.078431%,22.352941%,49.803922%);fill-opacity:1;" d="M 8.132812 75.410156 C 5.132812 75.410156 2.695312 72.765625 2.695312 69.507812 C 2.695312 66.25 5.132812 63.65625 8.132812 63.65625 C 11.132812 63.65625 13.621094 66.300781 13.621094 69.507812 C 13.570312 72.765625 11.132812 75.410156 8.132812 75.410156 Z M 14.691406 61.464844 C 14.078125 61.464844 13.570312 61.925781 13.570312 62.535156 L 13.570312 63.960938 C 12.148438 62.382812 10.167969 61.464844 8.082031 61.464844 C 3.914062 61.464844 0.507812 65.078125 0.507812 69.457031 C 0.507812 73.882812 3.914062 77.496094 8.082031 77.496094 C 10.167969 77.496094 12.148438 76.582031 13.570312 75.054688 L 13.570312 76.070312 C 13.570312 79.125 11.183594 81.515625 8.082031 81.515625 C 7.320312 81.515625 6.609375 81.363281 5.84375 81.058594 C 5.082031 80.753906 4.523438 80.347656 4.066406 79.789062 C 3.863281 79.53125 3.609375 79.429688 3.355469 79.378906 C 3.050781 79.378906 2.796875 79.480469 2.59375 79.683594 C 2.136719 80.09375 2.1875 80.753906 2.492188 81.210938 C 3.152344 81.925781 3.914062 82.484375 4.675781 82.839844 L 4.777344 82.941406 C 4.828125 82.992188 4.878906 82.992188 4.929688 82.992188 L 5.132812 83.09375 C 5.183594 83.144531 5.285156 83.144531 5.335938 83.195312 C 6.203125 83.554688 7.117188 83.707031 8.082031 83.707031 C 8.589844 83.707031 9.148438 83.65625 9.65625 83.554688 L 9.707031 83.554688 C 10.21875 83.453125 10.675781 83.296875 11.082031 83.09375 C 11.488281 82.941406 11.894531 82.6875 12.25 82.484375 C 12.351562 82.433594 12.453125 82.332031 12.554688 82.28125 L 12.707031 82.179688 C 12.859375 82.027344 13.0625 81.925781 13.214844 81.722656 C 13.367188 81.570312 13.570312 81.414062 13.722656 81.160156 C 13.773438 81.109375 13.875 81.007812 13.875 81.007812 C 15.046875 79.582031 15.65625 77.957031 15.65625 76.175781 L 15.65625 62.636719 C 15.707031 61.976562 15.25 61.464844 14.691406 61.464844 "/>
</g>
</svg>
