<?xml version="1.0" encoding="utf-8"?>
<!-- Generator: Adobe Illustrator 28.3.0, SVG Export Plug-In . SVG Version: 6.00 Build 0)  -->
<svg version="1.1" id="Layer_1" xmlns="http://www.w3.org/2000/svg" xmlns:xlink="http://www.w3.org/1999/xlink" x="0px" y="0px"
	 width="400px" height="245px" viewBox="0 0 400 245" style="enable-background:new 0 0 400 245;" xml:space="preserve">
<g>
	<g>
		<path d="M35.2,214.5c-2.6,0-4.7-0.6-6.3-1.8c-1.6-1.2-2.5-2.5-2.5-3.8v-54.1c0-1.6,0.8-3,2.5-4c1.6-1,3.8-1.5,6.3-1.5
			c2.2,0,4.1,0.5,5.6,1.5c1.5,1,2.3,2.3,2.3,4v4.1c1.6-2.7,3.8-5.1,6.9-7.2c3-2.2,6.8-3.2,11.4-3.2c3.9,0,7.4,1.3,10.4,3.8
			c3,2.6,5.3,5.9,6.7,9.9c2.4-4.7,5.4-8.1,9.1-10.4c3.7-2.2,7.5-3.4,11.5-3.4c4.2,0,8.2,1.1,11.9,3.2c3.7,2.2,6.7,5.3,9.1,9.5
			c2.3,4.2,3.5,9.2,3.5,15.2v32.6c0,1.4-0.9,2.7-2.6,3.8c-1.7,1.2-3.8,1.8-6.3,1.8c-2.4,0-4.4-0.6-6.2-1.8c-1.7-1.2-2.6-2.5-2.6-3.8
			v-32.6c0-2.7-0.5-5-1.6-6.9c-1.1-1.8-2.5-3.2-4.2-4.2c-1.7-1-3.5-1.4-5.4-1.4c-1.8,0-3.6,0.5-5.2,1.4c-1.6,1-3,2.4-4.1,4.2
			c-1.1,1.8-1.6,4.1-1.6,6.7V209c0,1.9-0.9,3.3-2.8,4.2c-1.9,0.9-3.9,1.3-6.1,1.3c-2,0-4-0.4-5.9-1.3c-1.9-0.9-2.9-2.3-2.9-4.2
			v-32.7c0-2.6-0.5-4.8-1.6-6.6c-1.1-1.8-2.4-3.3-4.1-4.3c-1.7-1-3.5-1.5-5.4-1.5c-1.8,0-3.6,0.5-5.2,1.4c-1.6,0.9-3,2.3-4.1,4.1
			c-1.1,1.8-1.6,4.1-1.6,6.9v32.6c0,1.4-0.9,2.7-2.6,3.8C39.8,213.9,37.7,214.5,35.2,214.5z"/>
		<path d="M150.7,215.8c-4.9,0-9-1.5-12.6-4.5c-3.5-3-5.3-7.6-5.3-13.8c0-5.2,1.4-9.3,4.1-12.2c2.7-2.9,6.5-5,11.3-6.2
			c4.8-1.2,10.4-1.8,16.7-1.8h5.6v-1.8c0-2-0.4-4-1.2-5.9c-0.8-1.9-2-3.5-3.7-4.8c-1.7-1.3-4.1-1.9-7.2-1.9c-3.5,0-6.2,0.3-8,1
			c-1.9,0.7-3.3,1.4-4.3,2.1c-1,0.7-2.1,1.1-3.3,1.1c-1.9,0-3.4-1-4.5-2.9c-1.1-1.9-1.6-3.9-1.6-5.9c0-1.9,1.2-3.6,3.5-5.2
			c2.3-1.5,5.2-2.7,8.6-3.5c3.4-0.8,6.7-1.2,9.9-1.2c7.1,0,12.9,1.3,17.2,3.8c4.3,2.6,7.4,5.9,9.4,9.9c2,4,3,8.4,3,13.1v33.7
			c0,1.6-0.8,2.9-2.5,4c-1.6,1.1-3.7,1.6-6.2,1.6c-2.3,0-4.2-0.5-5.7-1.6c-1.5-1.1-2.3-2.4-2.3-4v-4c-2.5,2.8-5.4,5.4-8.7,7.6
			C159.6,214.7,155.5,215.8,150.7,215.8z M157.9,202.6c1.9,0,3.8-0.6,5.8-1.9c1.9-1.3,3.5-2.9,4.9-4.9c1.3-2,2-4.1,2-6.3v-2.9h-2.1
			c-3,0-5.9,0.2-8.7,0.5c-2.7,0.4-5,1.2-6.7,2.4c-1.7,1.2-2.5,3.1-2.5,5.7c0,2.6,0.7,4.4,2.1,5.6C154.2,202,155.9,202.6,157.9,202.6
			z"/>
		<path d="M210.1,214.5c-2.5,0-4.5-0.6-6.2-1.8c-1.6-1.2-2.5-2.5-2.5-3.8v-54.1c0-1.6,0.8-3,2.5-4c1.6-1,3.7-1.5,6.2-1.5
			c2.3,0,4.2,0.5,5.7,1.5c1.5,1,2.3,2.3,2.3,4v5.6c1-2,2.4-3.9,4.1-5.7c1.7-1.8,3.6-3.3,5.8-4.5c2.2-1.2,4.5-1.8,7-1.8h4.3
			c1.7,0,3.2,0.8,4.5,2.3c1.3,1.5,1.9,3.3,1.9,5.4c0,2.2-0.6,4.1-1.9,5.6c-1.3,1.5-2.8,2.3-4.5,2.3H235c-2.6,0-5.1,0.8-7.5,2.5
			c-2.4,1.7-4.4,4-6,7c-1.6,3-2.3,6.6-2.3,10.8v24.6c0,1.4-0.9,2.7-2.6,3.8C214.8,213.9,212.7,214.5,210.1,214.5z"/>
		<path d="M278,244.9c-5.4,0-10.4-0.8-15-2.3c-4.6-1.5-8.3-3.7-11.1-6.7c-2.8-2.9-4.2-6.4-4.2-10.4c0-3.5,1-6.4,2.9-8.9
			c1.9-2.4,4.3-4.3,7.1-5.7c-1.7-0.8-3.1-1.9-4.2-3.3c-1.1-1.4-1.6-3.2-1.6-5.5c0-2.6,0.7-4.6,2-6.3c1.3-1.6,3-3.1,5-4.5
			c-2.7-2.1-4.9-4.6-6.3-7.6c-1.5-3-2.2-6.3-2.2-9.8v-2.9c0-4.5,1.1-8.4,3.3-11.8c2.2-3.4,5.3-6,9.4-8c4.1-1.9,8.8-2.9,14.1-2.9
			c3,0,5.9,0.3,8.5,1c2.7,0.7,5,1.7,7.1,3c1.6-3.7,3-6.1,4.4-7.4c1.4-1.3,2.7-1.9,4-1.9c2.2,0,3.9,0.6,5.2,1.9
			c1.2,1.3,1.9,2.5,1.9,3.6c0,0.8-0.2,1.6-0.6,2.2c-0.4,0.6-1,1.2-1.7,1.6c-0.8,0.5-1.8,1.2-3,2c-1.2,0.8-2.3,1.9-3.3,3.2
			c1.6,1.8,2.9,3.9,3.6,6.1c0.8,2.2,1.2,4.7,1.2,7.4v2.9c0,4.4-1.1,8.3-3.4,11.7c-2.3,3.4-5.5,6.2-9.6,8.2c-4.1,2-8.8,3-14.2,3
			c-3.3,0-6.3-0.4-8.9-1.2c-0.5,0.4-0.8,0.8-1.2,1.2c-0.3,0.5-0.5,1-0.5,1.5c0,1.6,1,2.7,3,3.3c2,0.6,4.6,1.1,7.7,1.5
			c3.1,0.4,6.4,0.8,10,1.4c3.5,0.6,6.8,1.5,10,2.8c3.1,1.3,5.7,3.2,7.7,5.7c2,2.5,3,5.9,3,10.1c0,5.1-1.4,9.3-4.3,12.4
			c-2.9,3.2-6.6,5.5-11.1,6.9C287.9,244.2,283.1,244.9,278,244.9z M277.7,233.5c3.6,0,6.6-0.9,9.1-2.6c2.5-1.7,3.8-4.1,3.8-7
			c0-1.9-0.5-3.5-1.6-4.7c-1.1-1.2-2.6-2.1-4.5-2.7c-1.9-0.6-3.9-1.1-6.1-1.4c-2.2-0.3-4.4-0.6-6.6-0.9c-2.2,1-4,2.3-5.4,3.8
			c-1.4,1.6-2.1,3.4-2.1,5.6c0,3,1.3,5.4,3.9,7.1C270.9,232.6,274,233.5,277.7,233.5z M277.4,186.2c3,0,5.4-1.1,7.1-3.4
			c1.7-2.3,2.6-5.2,2.6-8.8v-2.9c0-3.4-0.8-6.2-2.5-8.5c-1.7-2.3-4.1-3.4-7.4-3.4c-3.1,0-5.5,1.1-7.2,3.4c-1.7,2.3-2.5,5.1-2.5,8.5
			v2.7c0,3.5,0.8,6.4,2.5,8.8C271.8,185,274.2,186.2,277.4,186.2z"/>
		<path d="M343.8,215.8c-5.3,0-10.2-1.3-14.7-3.9c-4.5-2.6-8.1-6.1-10.9-10.4c-2.7-4.3-4.1-8.9-4.1-13.9v-11.3c0-4.9,1.3-9.5,4-13.8
			c2.7-4.3,6.3-7.7,10.8-10.2c4.5-2.6,9.5-3.8,14.9-3.8c5.4,0,10.4,1.3,14.9,3.8c4.5,2.5,8.2,5.9,10.9,10.1c2.7,4.2,4.1,8.9,4.1,14
			v11.3c0,4.9-1.4,9.4-4.1,13.7c-2.7,4.3-6.4,7.8-10.9,10.4C354,214.5,349.1,215.8,343.8,215.8z M343.8,200.3c2.2,0,4.2-0.6,6-1.8
			c1.8-1.2,3.3-2.8,4.4-4.7c1.1-2,1.6-4,1.6-6.1v-11.3c0-2.1-0.5-4.1-1.6-5.9c-1.1-1.8-2.5-3.4-4.3-4.6c-1.8-1.2-3.8-1.9-6.1-1.9
			c-2.2,0-4.2,0.6-6,1.8c-1.8,1.2-3.3,2.7-4.3,4.6c-1.1,1.9-1.6,3.9-1.6,6v11.3c0,2.1,0.5,4.1,1.6,6.1c1.1,2,2.5,3.6,4.3,4.7
			C339.6,199.7,341.6,200.3,343.8,200.3z"/>
	</g>
	<path d="M269.2,50.2l-29.3,29.2l29.3,29.2l29.3-29.2L269.2,50.2z M191.3,120.2L162.1,91c-2.1-2.1-5.6-2.1-7.7,0l-29.3,29.2
		c-2.1,2.1-5.6,2.1-7.7,0l-37-36.9c-2.1-2.1-2.1-5.6,0-7.7l74-73.9c2.1-2.1,5.6-2.1,7.7,0l29.3,29.2c2.1,2.1,5.6,2.1,7.7,0
		l29.3-29.2c2.1-2.1,5.6-2.1,7.7,0l21.5,21.5c2.1,2.1,2.1,5.6,0,7.7v0c-2.1,2.1-5.6,2.1-7.7,0L236,17.1c-2.1-2.1-5.6-2.1-7.7,0
		l-21.5,21.5c-2.1,2.1-2.1,5.6,0,7.7l21.5,21.5c2.1,2.1,5.6,2.1,7.7,0l29.3-29.2c2.1-2.1,5.6-2.1,7.7,0l37,36.9
		c2.1,2.1,2.1,5.6,0,7.7l-37,36.9c-2.1,2.1-5.6,2.1-7.7,0L236,91c-2.1-2.1-5.6-2.1-7.7,0l-29.3,29.2
		C196.9,122.4,193.5,122.4,191.3,120.2L191.3,120.2z M165.9,79.4l29.3,29.2l29.3-29.2l-29.3-29.2L165.9,79.4z M140.6,54.1l17.7,17.6
		l29.3-29.2l-29.3-29.2L92,79.4l29.3,29.2l29.3-29.2l-17.7-17.6c-2.1-2.1-2.1-5.6,0-7.7v0C135,51.9,138.4,51.9,140.6,54.1z"/>
</g>
</svg>
