<svg xmlns="http://www.w3.org/2000/svg" width="383.53" height="107.25" viewBox="0 0 383.53 107.25">
  <g id="openacc_logo" transform="translate(0 -0.01)">
    <path id="Path_1400" data-name="Path 1400" d="M213.8,355.69V368.2a.19.19,0,0,1-.21.23H212.1a.19.19,0,0,1-.21-.23V352.45a.19.19,0,0,1,.21-.23h1.49a1,1,0,0,1,1,.69l5.5,11.38,5.48-11.38a1,1,0,0,1,1-.69H228a.19.19,0,0,1,.21.23V368.2a.19.19,0,0,1-.21.23h-1.49a.19.19,0,0,1-.21-.23V355.69l-4.9,10.08a1,1,0,0,1-1,.69h-.75a1,1,0,0,1-1-.69Z" transform="translate(-204.14 -265.4)"/>
    <path id="Path_1401" data-name="Path 1401" d="M242.69,362.18c0,4.4-2.34,6.6-5.54,6.6s-5.54-2.2-5.54-6.6,2.34-6.49,5.54-6.49S242.69,357.89,242.69,362.18Zm-1.92,0c0-3.36-1.6-4.87-3.62-4.87s-3.62,1.51-3.62,4.87,1.6,5,3.62,5S240.77,365.65,240.77,362.18Z" transform="translate(-204.14 -265.4)"/>
    <path id="Path_1402" data-name="Path 1402" d="M253.45,355.81a.19.19,0,0,1,.21.23v1.39a.19.19,0,0,1-.21.23h-.64a4.93,4.93,0,0,0-4.8,2.78v7.76a.19.19,0,0,1-.21.23h-1.49a.19.19,0,0,1-.21-.23V356.27a.19.19,0,0,1,.21-.23h1.17a.21.21,0,0,1,.23.23l.19,2a5.45,5.45,0,0,1,4.69-2.43h.85Z" transform="translate(-204.14 -265.4)"/>
    <path id="Path_1403" data-name="Path 1403" d="M257.21,363c.23,2.92,1.73,4.19,3.6,4.19a3.47,3.47,0,0,0,3.41-2.08c.09-.16.11-.23.26-.23h1.34a.2.2,0,0,1,.21.28c-.53,2.13-2.24,3.66-5.22,3.66-3.2,0-5.54-2.22-5.54-6.63s2.34-6.49,5.54-6.49,5.54,2.43,5.54,6.26v.58a.4.4,0,0,1-.43.46H257.2Zm0-1.62h7.23c-.11-2.55-1.81-4.05-3.62-4.05s-3.38,1.26-3.61,4.04Z" transform="translate(-204.14 -265.4)"/>
    <path id="Path_1404" data-name="Path 1404" d="M282.37,361.71l-3.73-1.16c-2.37-.74-3.62-2.08-3.62-4.29,0-2.55,2.13-4.4,5.65-4.4s5.54,1.74,6.07,4.47a.21.21,0,0,1-.21.28h-1.34a.26.26,0,0,1-.26-.23,4,4,0,0,0-4.26-2.9c-2.45,0-3.73,1.16-3.73,2.66s.83,2.2,2.66,2.78l3.73,1.16c2.32.72,3.6,2.08,3.6,4.29,0,2.55-2.13,4.4-5.86,4.4s-5.84-1.74-6.37-4.47a.21.21,0,0,1,.21-.28h1.34a.26.26,0,0,1,.26.23c.53,1.74,1.9,2.9,4.56,2.9S285,366,285,364.5,284.16,362.27,282.37,361.71Z" transform="translate(-204.14 -265.4)"/>
    <path id="Path_1405" data-name="Path 1405" d="M289.28,362.18c0-4.29,2.34-6.49,5.54-6.49a4.776,4.776,0,0,1,5.12,3.89.2.2,0,0,1-.21.28h-1.34a.28.28,0,0,1-.26-.23,3.29,3.29,0,0,0-3.3-2.32c-2,0-3.62,1.51-3.62,4.87s1.6,5,3.62,5a3.36,3.36,0,0,0,3.41-2.32.28.28,0,0,1,.26-.23h1.34a.2.2,0,0,1,.21.28c-.53,2.39-2.24,3.89-5.22,3.89C291.62,368.78,289.28,366.58,289.28,362.18Z" transform="translate(-204.14 -265.4)"/>
    <path id="Path_1406" data-name="Path 1406" d="M303.26,352.68c0-.35.11-.46.43-.46h1.39c.32,0,.43.12.43.46v1.5c0,.35-.11.46-.43.46h-1.39c-.32,0-.43-.12-.43-.46Zm2.07,15.52a.19.19,0,0,1-.21.23h-1.49a.19.19,0,0,1-.21-.23V356.27a.19.19,0,0,1,.21-.23h1.49a.19.19,0,0,1,.21.23V368.2Z" transform="translate(-204.14 -265.4)"/>
    <path id="Path_1407" data-name="Path 1407" d="M310.64,363c.23,2.92,1.73,4.19,3.6,4.19a3.47,3.47,0,0,0,3.41-2.08c.09-.16.11-.23.26-.23h1.34a.2.2,0,0,1,.21.28c-.53,2.13-2.24,3.66-5.22,3.66-3.2,0-5.54-2.22-5.54-6.63s2.34-6.49,5.54-6.49,5.54,2.43,5.54,6.26v.58a.4.4,0,0,1-.43.46h-8.72Zm0-1.62h7.23c-.11-2.55-1.81-4.05-3.62-4.05s-3.37,1.26-3.61,4.04Z" transform="translate(-204.14 -265.4)"/>
    <path id="Path_1408" data-name="Path 1408" d="M333.64,361.14v7.07a.19.19,0,0,1-.21.23h-1.49a.19.19,0,0,1-.21-.23v-7.07c0-2.55-1.39-3.82-3.09-3.82-2.24,0-3.52,2.41-3.52,2.43v8.46a.19.19,0,0,1-.21.23h-1.49a.19.19,0,0,1-.21-.23V356.27a.19.19,0,0,1,.21-.23h1.17a.21.21,0,0,1,.23.23l.19,1.27a4.75,4.75,0,0,1,3.73-1.85C331.51,355.69,333.64,357.66,333.64,361.14Z" transform="translate(-204.14 -265.4)"/>
    <path id="Path_1409" data-name="Path 1409" d="M336.85,362.18c0-4.29,2.34-6.49,5.54-6.49a4.776,4.776,0,0,1,5.12,3.89.2.2,0,0,1-.21.28h-1.34a.28.28,0,0,1-.26-.23,3.29,3.29,0,0,0-3.3-2.32c-2,0-3.62,1.51-3.62,4.87s1.6,5,3.62,5a3.36,3.36,0,0,0,3.41-2.32.28.28,0,0,1,.26-.23h1.34a.2.2,0,0,1,.21.28c-.53,2.39-2.24,3.89-5.22,3.89C339.19,368.78,336.85,366.58,336.85,362.18Z" transform="translate(-204.14 -265.4)"/>
    <path id="Path_1410" data-name="Path 1410" d="M352.13,363c.23,2.92,1.73,4.19,3.6,4.19a3.48,3.48,0,0,0,3.41-2.08c.08-.16.11-.23.26-.23h1.34a.2.2,0,0,1,.21.28c-.53,2.13-2.24,3.66-5.22,3.66-3.2,0-5.54-2.22-5.54-6.63s2.34-6.49,5.54-6.49,5.54,2.43,5.54,6.26v.58a.4.4,0,0,1-.43.46h-8.72Zm0-1.62h7.23c-.11-2.55-1.81-4.05-3.62-4.05s-3.37,1.26-3.61,4.04Z" transform="translate(-204.14 -265.4)"/>
    <path id="Path_1411" data-name="Path 1411" d="M363.84,366.58c0-.35.11-.46.43-.46h1.38c.32,0,.43.12.43.46V368a1.55,1.55,0,0,1-.21.81l-1.17,2.2h-.85l1-2.43h-.55c-.32,0-.43-.12-.43-.46v-1.51Z" transform="translate(-204.14 -265.4)"/>
    <path id="Path_1412" data-name="Path 1412" d="M375.67,368.2V352.45a.19.19,0,0,1,.21-.23h1.49a.19.19,0,0,1,.21.23v14.36H386a.19.19,0,0,1,.21.23v1.16a.19.19,0,0,1-.21.23H375.9a.19.19,0,0,1-.23-.23Z" transform="translate(-204.14 -265.4)"/>
    <path id="Path_1413" data-name="Path 1413" d="M389.21,363c.23,2.92,1.73,4.19,3.6,4.19a3.47,3.47,0,0,0,3.41-2.08c.09-.16.11-.23.26-.23h1.34a.2.2,0,0,1,.21.28c-.53,2.13-2.24,3.66-5.22,3.66-3.2,0-5.54-2.22-5.54-6.63s2.34-6.49,5.54-6.49,5.54,2.43,5.54,6.26v.58a.4.4,0,0,1-.43.46H389.2Zm0-1.62h7.23c-.11-2.55-1.81-4.05-3.62-4.05s-3.37,1.26-3.61,4.04Z" transform="translate(-204.14 -265.4)"/>
    <path id="Path_1414" data-name="Path 1414" d="M406.27,368.78c-3.24,0-5-1.53-5.54-3.66a.2.2,0,0,1,.21-.28h1.34c.15,0,.17.07.26.23a3.74,3.74,0,0,0,3.73,2.08c2.13,0,3-.81,3-1.74s-.55-1.53-2.24-2l-2.66-.69c-2.37-.63-3.41-1.85-3.41-3.59,0-2,1.71-3.48,4.8-3.48s4.8,1.53,5.33,3.66a.2.2,0,0,1-.21.28h-1.34c-.15,0-.17-.07-.26-.23a3.63,3.63,0,0,0-3.52-2.08c-2,0-2.88.81-2.88,1.74s.55,1.53,2.24,2l2.66.69c2.35.6,3.41,1.85,3.41,3.59C411.17,367.28,409.46,368.78,406.27,368.78Z" transform="translate(-204.14 -265.4)"/>
    <path id="Path_1415" data-name="Path 1415" d="M418.87,368.78c-3.24,0-5-1.53-5.54-3.66a.2.2,0,0,1,.21-.28h1.34c.15,0,.17.07.26.23a3.74,3.74,0,0,0,3.73,2.08c2.13,0,3-.81,3-1.74s-.55-1.53-2.24-2l-2.66-.69c-2.37-.63-3.41-1.85-3.41-3.59,0-2,1.71-3.48,4.8-3.48s4.8,1.53,5.33,3.66a.2.2,0,0,1-.21.28h-1.34c-.15,0-.17-.07-.26-.23a3.63,3.63,0,0,0-3.52-2.08c-2,0-2.88.81-2.88,1.74s.55,1.53,2.24,2l2.66.69c2.35.6,3.41,1.85,3.41,3.59C423.77,367.28,422.07,368.78,418.87,368.78Z" transform="translate(-204.14 -265.4)"/>
    <path id="Path_1416" data-name="Path 1416" d="M434.86,368.2a.19.19,0,0,1-.21.23h-1.49a.19.19,0,0,1-.21-.23V352.45a.19.19,0,0,1,.21-.23h6.18c3.52,0,5.54,1.85,5.54,5.44s-2,5.44-5.54,5.44h-4.48Zm4.48-14.37h-4.48v7.65h4.48c2.13,0,3.62-1.16,3.62-3.82s-1.49-3.82-3.62-3.82Z" transform="translate(-204.14 -265.4)"/>
    <path id="Path_1417" data-name="Path 1417" d="M455.33,355.81a.19.19,0,0,1,.21.23v1.39a.19.19,0,0,1-.21.23h-.64a4.93,4.93,0,0,0-4.8,2.78v7.76a.19.19,0,0,1-.21.23h-1.49a.19.19,0,0,1-.21-.23V356.27a.19.19,0,0,1,.21-.23h1.17a.22.22,0,0,1,.23.23l.19,2a5.45,5.45,0,0,1,4.69-2.43h.85Z" transform="translate(-204.14 -265.4)"/>
    <path id="Path_1418" data-name="Path 1418" d="M468.23,362.18c0,4.4-2.35,6.6-5.54,6.6s-5.54-2.2-5.54-6.6,2.35-6.49,5.54-6.49S468.23,357.89,468.23,362.18Zm-1.92,0c0-3.36-1.6-4.87-3.62-4.87s-3.62,1.51-3.62,4.87,1.6,5,3.62,5S466.31,365.65,466.31,362.18Z" transform="translate(-204.14 -265.4)"/>
    <path id="Path_1419" data-name="Path 1419" d="M479.42,366.93a7.84,7.84,0,0,1-3.2.69c-3.09,0-5.44-2.2-5.44-5.91s2.35-6,5.54-6a9.11,9.11,0,0,1,5,1.39v10c0,3.71-1.81,5.56-5.33,5.56-2.77,0-4.48-1.39-4.69-3.48a.18.18,0,0,1,.21-.23h1.34a.26.26,0,0,1,.26.23A2.76,2.76,0,0,0,476,371c2.34,0,3.41-1.16,3.41-3.94v-.12Zm-6.71-5.21c0,2.78,1.6,4.29,3.73,4.29a7.45,7.45,0,0,0,3-.7V358a6.311,6.311,0,0,0-2.88-.69c-2.25,0-3.85,1.51-3.85,4.4Z" transform="translate(-204.14 -265.4)"/>
    <path id="Path_1420" data-name="Path 1420" d="M492.75,355.81a.19.19,0,0,1,.21.23v1.39a.19.19,0,0,1-.21.23h-.64a4.93,4.93,0,0,0-4.8,2.78v7.76a.19.19,0,0,1-.21.23h-1.49a.19.19,0,0,1-.21-.23V356.27a.19.19,0,0,1,.21-.23h1.17a.21.21,0,0,1,.23.23l.19,2a5.45,5.45,0,0,1,4.69-2.43h.85Z" transform="translate(-204.14 -265.4)"/>
    <path id="Path_1421" data-name="Path 1421" d="M494.56,364.84c0-2.43,1.71-3.94,4.69-3.94h3.62v-.12q0-3.48-3.2-3.48a2.66,2.66,0,0,0-2.66,1.85.26.26,0,0,1-.26.23h-1.34a.18.18,0,0,1-.21-.23c.21-2.08,1.92-3.48,4.48-3.48,3.3,0,5.12,1.85,5.12,5.1v7.41a.19.19,0,0,1-.21.23h-1.17a.21.21,0,0,1-.23-.23l-.19-1.25a4.92,4.92,0,0,1-3.94,1.85C496.27,368.78,494.56,367.28,494.56,364.84Zm8.31-.12v-2.2h-3.62c-1.81,0-2.77.81-2.77,2.32s1,2.32,2.66,2.32a4.61,4.61,0,0,0,3.73-2.43Z" transform="translate(-204.14 -265.4)"/>
    <path id="Path_1422" data-name="Path 1422" d="M518.33,368.2a.19.19,0,0,1-.21.23h-1.49a.19.19,0,0,1-.21-.23V361c0-2.55-1.07-3.71-2.34-3.71-1.92,0-3.3,2.41-3.3,2.43v8.46a.19.19,0,0,1-.21.23h-1.49a.19.19,0,0,1-.21-.23V356.27a.19.19,0,0,1,.21-.23h1.17a.21.21,0,0,1,.23.23l.19,1.27a4.87,4.87,0,0,1,3.52-1.85,3.79,3.79,0,0,1,3.62,2.43,5,5,0,0,1,3.94-2.43c2.45,0,4.16,1.85,4.16,5.33v7.18a.19.19,0,0,1-.21.23h-1.49a.19.19,0,0,1-.21-.23V361c0-2.55-1.07-3.71-2.35-3.71-1.92,0-3.3,2.41-3.3,2.43v8.46Z" transform="translate(-204.14 -265.4)"/>
    <path id="Path_1423" data-name="Path 1423" d="M539.44,368.2a.19.19,0,0,1-.21.23h-1.49a.19.19,0,0,1-.21-.23V361c0-2.55-1.07-3.71-2.34-3.71-1.92,0-3.3,2.41-3.3,2.43v8.46a.19.19,0,0,1-.21.23h-1.49a.19.19,0,0,1-.21-.23V356.27a.19.19,0,0,1,.21-.23h1.17a.21.21,0,0,1,.23.23l.19,1.27a4.87,4.87,0,0,1,3.52-1.85,3.79,3.79,0,0,1,3.62,2.43,5,5,0,0,1,3.94-2.43c2.45,0,4.16,1.85,4.16,5.33v7.18a.19.19,0,0,1-.21.23H545.3a.19.19,0,0,1-.21-.23V361c0-2.55-1.07-3.71-2.35-3.71-1.92,0-3.3,2.41-3.3,2.43v8.46Z" transform="translate(-204.14 -265.4)"/>
    <path id="Path_1424" data-name="Path 1424" d="M550.85,352.68c0-.35.11-.46.43-.46h1.39c.32,0,.43.12.43.46v1.5c0,.35-.11.46-.43.46h-1.39c-.32,0-.43-.12-.43-.46Zm2.07,15.52a.19.19,0,0,1-.21.23h-1.49a.19.19,0,0,1-.21-.23V356.27a.19.19,0,0,1,.21-.23h1.49a.19.19,0,0,1,.21.23V368.2Z" transform="translate(-204.14 -265.4)"/>
    <path id="Path_1425" data-name="Path 1425" d="M567.59,361.14v7.07a.19.19,0,0,1-.21.23h-1.49a.19.19,0,0,1-.21-.23v-7.07c0-2.55-1.38-3.82-3.09-3.82-2.24,0-3.52,2.41-3.52,2.43v8.46a.19.19,0,0,1-.21.23h-1.49a.19.19,0,0,1-.21-.23V356.27a.19.19,0,0,1,.21-.23h1.17a.21.21,0,0,1,.23.23l.19,1.27a4.75,4.75,0,0,1,3.73-1.85C565.45,355.69,567.59,357.66,567.59,361.14Z" transform="translate(-204.14 -265.4)"/>
    <path id="Path_1426" data-name="Path 1426" d="M579.42,366.93a7.841,7.841,0,0,1-3.2.69c-3.09,0-5.44-2.2-5.44-5.91s2.35-6,5.54-6a9.11,9.11,0,0,1,5,1.39v10c0,3.71-1.81,5.56-5.33,5.56-2.77,0-4.48-1.39-4.69-3.48a.18.18,0,0,1,.21-.23h1.34a.26.26,0,0,1,.26.23A2.76,2.76,0,0,0,576,371c2.34,0,3.41-1.16,3.41-3.94v-.12Zm-6.71-5.21c0,2.78,1.6,4.29,3.73,4.29a7.45,7.45,0,0,0,3-.7V358a6.31,6.31,0,0,0-2.88-.69c-2.26,0-3.85,1.51-3.85,4.4Z" transform="translate(-204.14 -265.4)"/>
    <path id="Path_1427" data-name="Path 1427" d="M204.14,280c2.78-6.33,10.27-14.59,25.05-14.59s22.27,8.26,25.05,14.59v40.7c-2.78,6.34-10.27,14.59-25.05,14.59s-22.27-8.25-25.05-14.59Zm37,2.59c-1.54-3.65-5.66-7-11.9-7s-10.37,3.36-11.9,7V318.1c1.63,3.65,5.66,7,11.9,7s10.27-3.36,11.9-7V282.58Z" transform="translate(-204.14 -265.4)"/>
    <path id="Path_1428" data-name="Path 1428" d="M263.45,282h11.81v4.32a19.26,19.26,0,0,1,14.11-5.47c10.85,0,16,7.1,17.76,11.42v31.39c-1.73,4.42-6.91,11.42-17.76,11.42a19.57,19.57,0,0,1-13.63-5v19.1H263.45Zm31.49,12.86c-1.06-1.73-3.94-4.51-9.31-4.51-4.7,0-8.06,1.82-9.89,3.94v27.36a12.86,12.86,0,0,0,9.89,4c5.38,0,8.35-2.88,9.31-4.61V294.87Z" transform="translate(-204.14 -265.4)"/>
    <path id="Path_1429" data-name="Path 1429" d="M316,293.53c2.5-5.47,9.41-13,22.75-13s20.06,7.68,21.89,11.42V310.9H328.25V320c1.34,3.07,5,5.86,10.46,5.86s9.22-2.78,10.56-5.86v-3.17H360.6v7.2c-2.11,3.84-8.45,11.23-21.89,11.23s-20.25-7.39-22.75-12.86V293.53Zm33.31,9.5v-7.1c-1.34-3.07-5.09-5.86-10.56-5.86s-9.12,2.78-10.46,5.86V303h21Z" transform="translate(-204.14 -265.4)"/>
    <path id="Path_1430" data-name="Path 1430" d="M369.34,282h11.42v4.7a19.35,19.35,0,0,1,14.49-5.86c10.85,0,15.94,7.1,17.76,11.42v41.66H400.82V294.87c-1.06-1.73-4-4.51-9.31-4.51-4.8,0-8.16,1.82-10,3.94v39.65H369.34Z" transform="translate(-204.14 -265.4)"/>
    <path id="Path_1431" data-name="Path 1431" d="M422.74,326.45l15.55-59.71h19.29l15.65,59.71v7.49H461.52l-4.61-19.49h-19.1l-4.7,19.49H422.74Zm31.87-21.89-6.24-26.4h-1.73l-6.43,26.4Z" transform="translate(-204.14 -265.4)"/>
    <path id="Path_1432" data-name="Path 1432" d="M479.14,280c2.78-6.33,10.18-14.59,25-14.59S526,273.56,528.67,279v13.34H516v-9.79c-1.54-3.65-5.66-7-11.9-7s-10.27,3.36-11.81,7V318.1c1.54,3.65,5.66,7,11.81,7s10.27-3.26,11.9-7V307.35h12.67v14.3c-2.69,5.47-9.79,13.63-24.57,13.63s-22.17-8.25-25-14.59V280Z" transform="translate(-204.14 -265.4)"/>
    <path id="Path_1433" data-name="Path 1433" d="M538.14,280c2.78-6.33,10.18-14.59,25-14.59S585,273.56,587.67,279v13.34H575v-9.79c-1.54-3.65-5.66-7-11.9-7s-10.27,3.36-11.81,7V318.1c1.54,3.65,5.66,7,11.81,7s10.27-3.26,11.9-7V307.35h12.67v14.3c-2.69,5.47-9.79,13.63-24.57,13.63s-22.17-8.25-25-14.59V280Z" transform="translate(-204.14 -265.4)"/>
  </g>
</svg>
