<svg xmlns="http://www.w3.org/2000/svg" width="991.3" height="375.772" viewBox="0 0 991.3 375.772">
  <g id="Layer_9" transform="translate(-3.8 -4.485)">
    <path id="Path_149" d="M207.8,160.2a53.808,53.808,0,0,1-34.5-6,64.387,64.387,0,0,1-9.7-6.7,1.961,1.961,0,0,0-2.5,0,54.886,54.886,0,0,1-44.2,12.7,1.993,1.993,0,0,0-2.2,1.5,164.738,164.738,0,0,0-1.7,62.2,133.262,133.262,0,0,0,6.2,24.1c7.6,20.6,23.8,27.1,42.2,36a1.718,1.718,0,0,0,1.7,0c18.4-8.9,34.6-15.4,42.2-36a133.261,133.261,0,0,0,6.2-24.1,164.27,164.27,0,0,0-1.7-62.1A1.739,1.739,0,0,0,207.8,160.2ZM162.3,282.3l-3.3-1.6,1.5.7,1.5.7.3.2,2.9-1.4.7-.3Z"/>
    <path id="Path_150" d="M362.6,237.7c0,11.6-5.8,17.4-17.3,17.4H283.4c-11.3,0-17-5.8-16.9-17.4V81.9c0-11.7,5.6-17.5,16.9-17.5h61.9c11.5,0,17.3,5.8,17.3,17.5Zm-28.5-7.1V88.9H295V230.6Z"/>
    <path id="Path_151" d="M466.1,230.3a22,22,0,0,1-10.7,21,51.646,51.646,0,0,1-23.6,4.3c-2.4,0-5.9-.1-10.3-.2-4.4-.2-7.6-.2-9.6-.2v45H384V132h28v4.5l19.5-3a141.618,141.618,0,0,1,19.5-2c10.1,0,15.2,5,15.2,15Zm-28-7.6V155.3l-26.2.5v76.1h17.3c6,0,8.9-3.1,8.9-9.2Z"/>
    <path id="Path_152" d="M565.4,239.8c0,10.2-5.2,15.2-15.7,15.2H501.6c-10.5,0-15.7-5.1-15.7-15.2V147.2c0-10.1,5.2-15.2,15.7-15.2h48.1c10.5,0,15.7,5.1,15.7,15.2v45.2l-7.7,7.7H512.5v34.5h26.2V214.1h26.7Zm-26.6-57.9V152.4H512.6v29.5Z"/>
    <path id="Path_153" d="M667.8,255h-28V155.2l-26.2.5V255H585.7V132h27.9v4.5c6.5-1,13-2,19.4-3a128.933,128.933,0,0,1,19.6-2c10.1,0,15.2,5,15.2,15Z"/>
    <path id="Path_154" d="M780.6,237.7c0,11.6-5.8,17.4-17.3,17.4H705.9c-11.4,0-17.2-5.8-17.2-17.4V192.2h28.5V231H752V193.6l-57.1-54.1a20.3,20.3,0,0,1-6.2-15.2V81.9c0-11.7,5.7-17.5,17.2-17.5h57.4c11.5,0,17.3,5.8,17.3,17.3v42.6H752.1v-36H717.3v34.5l57.1,53.9a20.076,20.076,0,0,1,6.2,15.5Z"/>
    <path id="Path_155" d="M894.6,237.7c0,11.6-5.8,17.4-17.3,17.4H819.9c-11.4,0-17.2-5.8-17.2-17.4V192.2h28.5V231H866V193.6l-57.2-54.1a20.3,20.3,0,0,1-6.2-15.2V81.9c0-11.7,5.7-17.5,17.2-17.5h57.4c11.5,0,17.3,5.8,17.3,17.3v42.6H866v-36H831.2v34.5l57.1,53.9a20.076,20.076,0,0,1,6.2,15.5Z"/>
    <path id="Path_156" d="M995.1,89.6H945.8V146H988v24.7H945.8V255H917.3V64.4h77.8Z"/>
    <path id="Path_157" d="M289.7,351.5a12.652,12.652,0,0,1-3.1,9.1,11.231,11.231,0,0,1-8.3,3.3,10.5,10.5,0,0,1-8.2-3.3,13.025,13.025,0,0,1-3-9.1v-9.1a13.025,13.025,0,0,1,3-9.1,10.858,10.858,0,0,1,8.2-3.3,11.231,11.231,0,0,1,8.3,3.3,12.652,12.652,0,0,1,3.1,9.1Zm-4.7-9.1a10.059,10.059,0,0,0-1.8-6.5,6.023,6.023,0,0,0-5-2.2,5.834,5.834,0,0,0-4.9,2.2,11.327,11.327,0,0,0-1.7,6.5v9.1a10.422,10.422,0,0,0,1.7,6.6,5.834,5.834,0,0,0,4.9,2.2,6.023,6.023,0,0,0,5-2.2,10.265,10.265,0,0,0,1.7-6.6Z"/>
    <path id="Path_158" d="M299.7,350.4v13H295v-33h11.1a9.986,9.986,0,1,1,1.7,19.9h-1.7Zm0-3.5h6.4a4.748,4.748,0,0,0,4-1.8,8.3,8.3,0,0,0,1.4-4.6,7.247,7.247,0,0,0-1.4-4.7,4.98,4.98,0,0,0-4-1.9h-6.4Z"/>
    <path id="Path_159" d="M338.5,348.1H326v11.8h14.5v3.5H321.3v-33h19.1v3.5H326v10.7h12.5Z"/>
    <path id="Path_160" d="M367.2,363.4h-4.7l-12.8-24.5-.1.1v24.5h-4.7v-33h4.7l12.8,24.4.1-.1V330.4h4.7Z"/>
    <path id="Path_161" d="M399.5,355.1a5.2,5.2,0,0,0-1.3-3.8,11.411,11.411,0,0,0-4.7-2.6,20.617,20.617,0,0,1-7.4-3.7,7.811,7.811,0,0,1-2.6-6.1,8.05,8.05,0,0,1,2.9-6.4,11.074,11.074,0,0,1,7.4-2.5,10.013,10.013,0,0,1,7.5,2.9,9.2,9.2,0,0,1,2.8,7v.1h-4.5a7.156,7.156,0,0,0-1.5-4.7,6.05,6.05,0,0,0-8.3-.3,4.89,4.89,0,0,0-1.4,3.8,4.691,4.691,0,0,0,1.5,3.5,14.081,14.081,0,0,0,5,2.6,17.112,17.112,0,0,1,7,3.8,8.588,8.588,0,0,1,2.4,6.3,8.134,8.134,0,0,1-2.8,6.4,11.25,11.25,0,0,1-7.5,2.4,12.508,12.508,0,0,1-7.9-2.6,8.414,8.414,0,0,1-3.3-7.4l.1-.1h4.5a6.133,6.133,0,0,0,1.8,5,6.823,6.823,0,0,0,4.8,1.6,5.566,5.566,0,0,0,4.1-1.4A4.638,4.638,0,0,0,399.5,355.1Z"/>
    <path id="Path_162" d="M430.7,351.5a12.652,12.652,0,0,1-3.1,9.1,11.231,11.231,0,0,1-8.3,3.3,10.5,10.5,0,0,1-8.2-3.3,13.025,13.025,0,0,1-3-9.1v-9.1a13.025,13.025,0,0,1,3-9.1,10.858,10.858,0,0,1,8.2-3.3,11.231,11.231,0,0,1,8.3,3.3,12.652,12.652,0,0,1,3.1,9.1Zm-4.7-9.1a10.059,10.059,0,0,0-1.8-6.5,6.023,6.023,0,0,0-5-2.2,5.834,5.834,0,0,0-4.9,2.2,10.61,10.61,0,0,0-1.7,6.5v9.1a10.422,10.422,0,0,0,1.7,6.6,5.834,5.834,0,0,0,4.9,2.2,6.023,6.023,0,0,0,5-2.2,10.265,10.265,0,0,0,1.7-6.6Z"/>
    <path id="Path_163" d="M457.1,330.5v22.8a10.235,10.235,0,0,1-3,7.9,10.822,10.822,0,0,1-7.8,2.7,11.341,11.341,0,0,1-7.7-2.7,9.691,9.691,0,0,1-2.9-7.9V330.5h4.7v22.8a7.766,7.766,0,0,0,1.6,5.3,5.534,5.534,0,0,0,4.4,1.8,5.8,5.8,0,0,0,4.5-1.7,7.4,7.4,0,0,0,1.6-5.4V330.5h4.6Z"/>
    <path id="Path_164" d="M467.7,349.2v14.2H463V330.5h10.5a10.5,10.5,0,0,1,7.4,2.4,9.035,9.035,0,0,1,2.6,7,8.923,8.923,0,0,1-1.2,4.5,8.426,8.426,0,0,1-3.5,3,6.3,6.3,0,0,1,3.6,2.8,9.649,9.649,0,0,1,1.1,5v2.9a13.33,13.33,0,0,0,.3,2.8,3.6,3.6,0,0,0,1.1,2v.5h-4.8a3.733,3.733,0,0,1-1-2.3,17.2,17.2,0,0,1-.2-3.2v-2.8a6.916,6.916,0,0,0-1.3-4.4,4.159,4.159,0,0,0-3.5-1.6Zm0-3.5h5.6a5.35,5.35,0,0,0,4.2-1.5,6.046,6.046,0,0,0,1.4-4.3,6.916,6.916,0,0,0-1.3-4.4,5,5,0,0,0-4-1.6h-5.8Z"/>
    <path id="Path_165" d="M509.9,353.4l.1.1a10.072,10.072,0,0,1-2.7,7.6,11.523,11.523,0,0,1-15.5-.6,13.025,13.025,0,0,1-3-9.1v-9.1a13.6,13.6,0,0,1,2.9-9.1,10.147,10.147,0,0,1,7.8-3.3,9.269,9.269,0,0,1,10.3,10.3l-.1.1h-4.4a8.24,8.24,0,0,0-1.5-5.3,5.158,5.158,0,0,0-4.4-1.7,5.1,5.1,0,0,0-4.5,2.3,11.447,11.447,0,0,0-1.6,6.5v9.3a11.774,11.774,0,0,0,1.6,6.6,5.264,5.264,0,0,0,4.6,2.3,5.378,5.378,0,0,0,4.3-1.7,9,9,0,0,0,1.4-5.3Z"/>
    <path id="Path_166" d="M532.2,348.1H519.7v11.8h14.5v3.5H515v-33h19.1v3.5H519.7v10.7h12.5Z"/>
    <path id="Path_167" d="M564.4,355.1a5.279,5.279,0,0,0-1.4-3.8,11.411,11.411,0,0,0-4.7-2.6,20.618,20.618,0,0,1-7.4-3.7,7.811,7.811,0,0,1-2.6-6.1,8.05,8.05,0,0,1,2.9-6.4,11.074,11.074,0,0,1,7.4-2.5,10.013,10.013,0,0,1,7.5,2.9,9.2,9.2,0,0,1,2.8,7v.1h-4.5a7.156,7.156,0,0,0-1.5-4.7,6.05,6.05,0,0,0-8.3-.3,4.89,4.89,0,0,0-1.4,3.8,4.691,4.691,0,0,0,1.5,3.5,13.715,13.715,0,0,0,5.1,2.6,17.112,17.112,0,0,1,7,3.8,8.588,8.588,0,0,1,2.4,6.3,7.915,7.915,0,0,1-2.9,6.4,11.25,11.25,0,0,1-7.5,2.4,13.35,13.35,0,0,1-7.9-2.6,8.414,8.414,0,0,1-3.3-7.4v-.1h4.5a6.133,6.133,0,0,0,1.8,5,6.823,6.823,0,0,0,4.8,1.6,5.566,5.566,0,0,0,4.1-1.4A4.482,4.482,0,0,0,564.4,355.1Z"/>
    <path id="Path_168" d="M591.4,348.1H578.9v11.8h14.5v3.5H574.2v-33h19.1v3.5H578.9v10.7h12.5v3.5Z"/>
    <path id="Path_169" d="M617.7,353.4l.1.1a10.072,10.072,0,0,1-2.7,7.6,11.523,11.523,0,0,1-15.5-.6,13.025,13.025,0,0,1-3-9.1v-9.1a13.6,13.6,0,0,1,2.9-9.1,10.147,10.147,0,0,1,7.8-3.3,10.547,10.547,0,0,1,7.6,2.6,10.442,10.442,0,0,1,2.7,7.7l-.1.1h-4.4a8.24,8.24,0,0,0-1.5-5.3,5.158,5.158,0,0,0-4.4-1.7,5.1,5.1,0,0,0-4.5,2.3,11.446,11.446,0,0,0-1.6,6.5v9.3a11.774,11.774,0,0,0,1.6,6.6,5.264,5.264,0,0,0,4.6,2.3,5.378,5.378,0,0,0,4.3-1.7,9,9,0,0,0,1.4-5.3Z"/>
    <path id="Path_170" d="M643.8,330.5v22.8a10.235,10.235,0,0,1-3,7.9,10.822,10.822,0,0,1-7.8,2.7,11.341,11.341,0,0,1-7.7-2.7,9.691,9.691,0,0,1-2.9-7.9V330.5h4.7v22.8a7.767,7.767,0,0,0,1.6,5.3,5.534,5.534,0,0,0,4.4,1.8,5.8,5.8,0,0,0,4.5-1.7,7.4,7.4,0,0,0,1.6-5.4V330.5h4.6Z"/>
    <path id="Path_171" d="M654.4,349.2v14.2h-4.7V330.5h10.5a10.5,10.5,0,0,1,7.4,2.4,9.035,9.035,0,0,1,2.6,7,8.923,8.923,0,0,1-1.2,4.5,8.426,8.426,0,0,1-3.5,3,6.3,6.3,0,0,1,3.6,2.8,9.649,9.649,0,0,1,1.1,5v2.9a13.328,13.328,0,0,0,.3,2.8,3.6,3.6,0,0,0,1.1,2v.5h-4.8a3.733,3.733,0,0,1-1-2.3c-.1-1.1-.2-2.1-.2-3.2v-2.8a6.917,6.917,0,0,0-1.3-4.4,4.159,4.159,0,0,0-3.5-1.6Zm0-3.5H660a5.35,5.35,0,0,0,4.2-1.5,6.046,6.046,0,0,0,1.4-4.3,6.917,6.917,0,0,0-1.3-4.4,5,5,0,0,0-4-1.6h-5.8Z"/>
    <path id="Path_172" d="M681.6,363.4h-4.7v-33h4.7Z"/>
    <path id="Path_173" d="M707.4,333.9h-8.7v29.5H694V333.9h-8.6v-3.5h22Z"/>
    <path id="Path_174" d="M721.2,346.5h.1l6.9-16h5.2l-9.9,21.1v11.8h-4.7V351.3L709,330.5h5.3Z"/>
    <path id="Path_175" d="M764.9,348.7H752.4v14.7h-4.7v-33h19.2v3.5H752.4v11.3H765v3.5Z"/>
    <path id="Path_176" d="M792.7,351.5a12.652,12.652,0,0,1-3.1,9.1,11.231,11.231,0,0,1-8.3,3.3,10.5,10.5,0,0,1-8.2-3.3,13.025,13.025,0,0,1-3-9.1v-9.1a13.025,13.025,0,0,1,3-9.1,10.858,10.858,0,0,1,8.2-3.3,11.231,11.231,0,0,1,8.3,3.3,12.652,12.652,0,0,1,3.1,9.1Zm-4.7-9.1a10.059,10.059,0,0,0-1.8-6.5,6.023,6.023,0,0,0-5-2.2,5.834,5.834,0,0,0-4.9,2.2,10.61,10.61,0,0,0-1.7,6.5v9.1a10.423,10.423,0,0,0,1.7,6.6,5.834,5.834,0,0,0,4.9,2.2,6.023,6.023,0,0,0,5-2.2,10.265,10.265,0,0,0,1.7-6.6Z"/>
    <path id="Path_177" d="M819,330.5v22.8a10.235,10.235,0,0,1-3,7.9,10.822,10.822,0,0,1-7.8,2.7,11.341,11.341,0,0,1-7.7-2.7,10.1,10.1,0,0,1-3-7.9V330.5h4.7v22.8a7.767,7.767,0,0,0,1.6,5.3,5.534,5.534,0,0,0,4.4,1.8,5.8,5.8,0,0,0,4.5-1.7,7.4,7.4,0,0,0,1.6-5.4V330.5H819Z"/>
    <path id="Path_178" d="M847.3,363.4h-4.7l-12.8-24.5-.1.1v24.5H825v-33h4.7l12.8,24.4.1-.1V330.4h4.7Z"/>
    <path id="Path_179" d="M853.9,363.4v-33h9.3a11.1,11.1,0,0,1,8.8,4,15.706,15.706,0,0,1,3.4,10.2v4.7a15.173,15.173,0,0,1-3.4,10.2,11.006,11.006,0,0,1-8.8,3.9Zm4.7-29.5v25.9H863a6.542,6.542,0,0,0,5.6-3,13.881,13.881,0,0,0,2-7.7v-4.7a13.552,13.552,0,0,0-2-7.6,6.542,6.542,0,0,0-5.6-3Z"/>
    <path id="Path_180" d="M895.4,355.1H884.7l-2.5,8.3h-4.8l10.4-33h4.6l10.3,33h-4.8Zm-9.6-3.7h8.6L890.2,337H890Z"/>
    <path id="Path_181" d="M923,333.9h-8.7v29.5h-4.7V333.9H901v-3.5h22Z"/>
    <path id="Path_182" d="M932.1,363.4h-4.7v-33h4.7Z"/>
    <path id="Path_183" d="M960.4,351.5a12.652,12.652,0,0,1-3.1,9.1,11.231,11.231,0,0,1-8.3,3.3,10.5,10.5,0,0,1-8.2-3.3,13.025,13.025,0,0,1-3-9.1v-9.1a13.025,13.025,0,0,1,3-9.1A10.858,10.858,0,0,1,949,330a11.231,11.231,0,0,1,8.3,3.3,12.652,12.652,0,0,1,3.1,9.1Zm-4.7-9.1a10.059,10.059,0,0,0-1.8-6.5,6.023,6.023,0,0,0-5-2.2,5.834,5.834,0,0,0-4.9,2.2,9.984,9.984,0,0,0-1.7,6.5v9.1a10.423,10.423,0,0,0,1.7,6.6,5.834,5.834,0,0,0,4.9,2.2,6.023,6.023,0,0,0,5-2.2,10.265,10.265,0,0,0,1.7-6.6Z"/>
    <path id="Path_184" d="M988.1,363.4h-4.7l-12.8-24.5-.1.1v24.5h-4.7v-33h4.7l12.8,24.4.1-.1V330.4h4.7Z"/>
    <path id="Path_185" d="M217.2,152.4a3.992,3.992,0,0,0-1.8-2.4c-.2-.1-.5-.2-.7-.3a4.479,4.479,0,0,0-2.3,0,45.058,45.058,0,0,1-30.5-1.6c-1.4-.6-2.8-1.3-4.1-2a46.7,46.7,0,0,1-9.3-6.7,31.068,31.068,0,0,1-3.1-3.2,3.679,3.679,0,0,0-2.2-1.4,2.768,2.768,0,0,0-.9-.1,3.88,3.88,0,0,0-3.1,1.5,31.4,31.4,0,0,1-3.1,3.2l-.6.6a21.458,21.458,0,0,0-10.6-1.8,66.242,66.242,0,0,0-7.1-4.6,10.947,10.947,0,0,0-3.4-7.6,10.425,10.425,0,0,0-6.3-2.8,119.458,119.458,0,0,1,5.5-20.3c2.6-7.4,5.7-14.6,8.9-21.7,1.8-3.9,3.6-7.8,5.5-11.7a37.13,37.13,0,1,0-61.6-28,30.027,30.027,0,0,0,.3,4.3,15.942,15.942,0,0,1-2.5,3.3c-1.4,1.5-2.9,2.9-4.4,4.3-2.5,2.3-5.2,4.5-7.8,6.7l-2.1,1.7c-3.1,2.5-6.3,5-9.1,7.7a13.766,13.766,0,0,0-4.6,7.4,4.086,4.086,0,0,0,.3,2.2c1.7,5,8.9,4.7,13.1,4.4a44.29,44.29,0,0,0,5.1-.6l.6.1a60.006,60.006,0,0,0,25.9-3.3c3.4-1,6.8-2,10.1-3.2a32.8,32.8,0,0,0,7.5,1.8c-4.3,6.1-8.4,12.4-12.1,18.9-2.3,3.9-4.4,8-6.5,12.1-1.7,3.6-3.4,7.2-4.8,11a14.769,14.769,0,0,0-2.1.1c-7.2,1.2-9.6,5.8-10.2,12.4a57.4,57.4,0,0,0-12,5A112.867,112.867,0,0,0,58,146.3a149.813,149.813,0,0,0-12.9,11,92.763,92.763,0,0,0-9.5,10.3c-2.2,2.8-4.5,5.5-6.6,8.3a21.517,21.517,0,0,0-3.9,7.5A26.647,26.647,0,0,0,28.5,200,87.161,87.161,0,0,0,36,213.3l.1.2a4.208,4.208,0,0,0-2.5,2,5.376,5.376,0,0,0-.8,2.8A5.3,5.3,0,0,0,28,221a6.155,6.155,0,0,0,1.3,6.6,20.985,20.985,0,0,0,2.4,2.7,101.491,101.491,0,0,0,8.6,7.4q3.9,3,8.1,6a9.579,9.579,0,0,0,2.5,2,17.4,17.4,0,0,0,1.8,1.1l.3.2a10.911,10.911,0,0,0,1.1.6,11.773,11.773,0,0,0,9.5,1.4,43.913,43.913,0,0,0,4.7-2.7,39.09,39.09,0,0,0,7.6,15.9,30.166,30.166,0,0,0,5.1,5h0a9.93,9.93,0,0,0,7.3,8.6c2.4,8.2,4.9,16.4,7.3,24.5a15.2,15.2,0,0,0-2.8,5.7v.1c-2.8-.3-5.7-.5-8.5-.6-3.1-.2-6.3-.3-9.4-.4-2.6-.1-5.3-.2-8-.1a44.04,44.04,0,0,0-7.3.7h-.8l-.2.1-.2.1-.4.1-.4.1-.4.1-.4.1-.4.1-.4.1-.4.1-.4.1-.4.1-.4.1-.4.1-.4.1-.4.1-.4.2-.4.2-.4.2-.4.2-.4.2-.4.2-.4.2-.4.2-.4.2-.4.2-.4.2-.4.2-.4.2-.4.2-.4.2-.4.2-.4.2-.4.2-.4.2-.3.2-.3.2-.3.3-.3.3-.3.3-.3.3-.3.3-.3.3-.3.3-.3.3-.3.3-.3.3-.3.3-.3.3-.3.3-.3.3-.3.3-.3.3-.2.4-.2.4-.2.4-.2.4-.2.4-.2.4c-.1.1-.1.3-.2.4s-.1.3-.2.4l-.2.4-.2.4-.2.4-.2.4-.1.4a.9.9,0,0,0-.1.5l-1.8,6.6a4.329,4.329,0,0,0-.1,1.6H5.7a1.9,1.9,0,1,0,0,3.8H140.6a1.9,1.9,0,1,0,0-3.8H119.5a75.033,75.033,0,0,0,.4-8.2,51.482,51.482,0,0,0-.9-8.8,22.724,22.724,0,0,0-7-13.7,7.1,7.1,0,0,0-1.4-1l-5.8-23.9a9.248,9.248,0,0,0,4-5.8,53.6,53.6,0,0,0,12.6,1.5h.3c.9.9,1.7,1.8,2.6,2.7l.2.2a33.289,33.289,0,0,0,2.8,2.5l.2.1a34,34,0,0,0,3,2.3l.1.1a27.5,27.5,0,0,0,2.8,1.9l.5.3a22.6,22.6,0,0,0,2.6,1.6l1.3.8,1.5.9c.9.5,1.7,1,2.6,1.4.4.2.7.4,1.1.6l1.7.9,1.8.9.9.5c1,3.6,2.1,7.2,3.1,10.9,1.1,4,2.2,8.1,3.3,12.1a4.263,4.263,0,0,0-1.2,1.1,8.421,8.421,0,0,0-.9,7.4c.4,1.8.8,3.5,1.1,5.3a11.32,11.32,0,0,0-1,1.3,9.7,9.7,0,0,0-3.7,7.3v.3c-.2.8-.4,1.5-.6,2.3a19.714,19.714,0,0,0,4.4,13.4c1.1,1.7,2.2,3.3,3.3,4.9a3.1,3.1,0,0,0,.6,1.3,57.256,57.256,0,0,0,23.8,22.2,29.377,29.377,0,0,0,19.8,1.5,16.6,16.6,0,0,0,9-6.1,15.088,15.088,0,0,0,2.7-6.7,19.811,19.811,0,0,0-1.4-10.5A43.228,43.228,0,0,0,194,337.7a213.144,213.144,0,0,0-19.1-16.3,25.081,25.081,0,0,0-2.7-10.4,6.731,6.731,0,0,0-4.1-3.1l-2.9-14.6.2-.1c3.3-1.5,6.5-3,9.5-4.5l.4-.2.7-.3c1.2-.6,2.4-1.2,3.5-1.7l1.2-.6a39.019,39.019,0,0,0,3.5-1.9l.6-.3.6-.3c1-.6,2.1-1.2,3-1.8l.9-.6c1.1-.7,2.1-1.4,3.1-2.1l.7-.5c1.1-.8,2.1-1.6,3.2-2.4l.5-.4c1.1-.9,2.1-1.8,3.1-2.7l.2-.2.1-.1a37.056,37.056,0,0,0,2.7-2.9l.2-.3a37.623,37.623,0,0,0,2.5-3.1l.2-.3a27.032,27.032,0,0,0,2.2-3.3l.3-.4c.7-1.1,1.3-2.2,1.9-3.3,0-.1.1-.2.1-.3l.1-.3a40.935,40.935,0,0,0,2-4.2c.1-.2.2-.5.3-.7.6-1.3,1.1-2.7,1.7-4.2a6.9,6.9,0,0,1,.4-1c.5-1.4.9-2.7,1.4-4.2.1-.4.2-.7.3-1.1.4-1.4.8-2.8,1.2-4.3,0-.1,0-.1.1-.2a159.354,159.354,0,0,0,4-21.7,183.375,183.375,0,0,0,1.1-22.2A168.217,168.217,0,0,0,217.2,152.4Zm-48.8,160a5.549,5.549,0,0,1,.6.8,28.282,28.282,0,0,1,2.1,10.3l1.3,1,.4.3c.4.3.7.5,1.1.8l.6.4,1.2,1,.5.4c1.2,1,2.6,2,4,3.2l.6.5,1.5,1.3.7.6,1.6,1.4.7.6c.8.7,1.5,1.3,2.2,2h-.2c-1-.1-2.1-.2-3.1-.2a36.6,36.6,0,0,0-26.8,13.7,41.443,41.443,0,0,1-5.6-9.8,6.134,6.134,0,0,0,3.4,1.7c3.7.4,6.9-3,7.2-7.7a8.434,8.434,0,0,0-5.5-9c-1-7.4-3.8-12,.5-12,1.9,0,4.1,11.3,4.1,11.3l7.1-1.9-2.1-10.5s.3-.7.9-.7h0c.1,0,.2.1.4.1l.1.1h.1l.3.3S168.4,312.3,168.4,312.4Zm3.6,30.3a3.552,3.552,0,0,1,.9-.4,5.938,5.938,0,0,0,.8-.4l1.2-.5.8-.3c.5-.2,1-.3,1.5-.5l.6-.1c.7-.2,1.4-.3,2.1-.5h0a11.018,11.018,0,0,1,1.8-.2,51.3,51.3,0,0,1,15.1,17.9,23.184,23.184,0,0,1,2.4,17.3l-.9.3c-.3.1-.9.2-1.4.3h-.1l-1.8.3h-.2a15.028,15.028,0,0,1-2,.2h-2.4a17.851,17.851,0,0,1-2.3-.2H188c.1-.3.2-.6.3-1s.1-.6.2-.9a4.483,4.483,0,0,0,.1-1.2v-3c0-.3-.1-.8-.1-1.2a3.085,3.085,0,0,1-.1-.9c-.1-.3-.2-.8-.3-1.2s-.1-.6-.2-.9-.3-.9-.4-1.3c-.1-.3-.2-.5-.3-.8-.2-.5-.3-.9-.5-1.4-.1-.2-.2-.5-.3-.7-.3-.7-.6-1.4-.9-2-.4-.8-.9-1.7-1.4-2.5l-.2-.4c-.5-.8-.9-1.5-1.4-2.3l-.3-.4c-.5-.7-1-1.5-1.5-2.2l-.2-.3c-.5-.7-1.1-1.4-1.6-2l-.1-.1c-.5-.7-1.1-1.3-1.6-1.9l-.3-.3c-.5-.6-1-1.1-1.5-1.6l-.3-.3a18.478,18.478,0,0,1-1.4-1.4l-.2-.1c-.5-.4-.9-.8-1.3-1.1l-.2.2Zm14-3h.3a13.552,13.552,0,0,1,2,.2l.5.1h0a12.213,12.213,0,0,1,2.6.6c17.1,11.8,19,25,12.6,31.4h0a6.886,6.886,0,0,1-1.3,1.1l-.1.1h0c.1-.7.2-1.3.3-2v-3a9.853,9.853,0,0,0-.2-1.7,1.268,1.268,0,0,0-.1-.6,14.193,14.193,0,0,0-.5-2.2c0-.1-.1-.2-.1-.4-.2-.6-.4-1.2-.6-1.9l-.2-.7c-.2-.5-.4-1-.6-1.6-.1-.2-.2-.5-.3-.7a19.989,19.989,0,0,0-1-2.1c-.4-.7-.8-1.6-1.3-2.4a2.186,2.186,0,0,0-.3-.5c-.5-.8-.9-1.5-1.4-2.2l-.2-.3c-.5-.7-.9-1.3-1.4-1.9-.1-.1-.2-.3-.3-.4a14.621,14.621,0,0,0-1.6-1.9l-.3-.4c-.5-.6-1-1.1-1.4-1.6l-.2-.3a12.094,12.094,0,0,0-1.6-1.6l-.4-.3a19.2,19.2,0,0,0-1.5-1.4h0c-.5-.5-1-.8-1.4-1.2v-.2Zm-16.8,4.5a48.551,48.551,0,0,1,13.6,16.6,19.948,19.948,0,0,1,2.3,14.5c-.6-.2-1.3-.4-2-.6h0l-.4-.1-.8-.3-.6-.2c-.3-.1-.5-.2-.8-.3l-.6-.3-.8-.4-.6-.3-.8-.5-.6-.3a4.053,4.053,0,0,0-.9-.5l-.5-.3-1.1-.7a.52.52,0,0,0-.4-.2,7.551,7.551,0,0,1-1.4-1.1l-.4-.3a9.017,9.017,0,0,1-1-.9l-.6-.5c-.3-.3-.6-.5-.9-.8l-.6-.6-.9-.8-.6-.6-.9-.9-.7-.7-.9-1-.7-.8-.9-1.1-.6-.8-.9-1.2-.6-.8c-.3-.5-.7-.9-1-1.4-.2-.2-.3-.5-.5-.7-.5-.7-1-1.5-1.5-2.2l.2-.2a4.35,4.35,0,0,0,.6-.7,9.04,9.04,0,0,1,1-1.1l.7-.8a9.429,9.429,0,0,1,1-1l.8-.7c.3-.3.7-.6,1-.9l.8-.7a7.006,7.006,0,0,1,1-.8l.3-.2h0a24.287,24.287,0,0,0,3.2-1.8Zm-13.1-16.8a6.288,6.288,0,0,1,4.7,7c-.2,3.5-2.7,6.2-5.5,5.8a6.288,6.288,0,0,1-4.7-7C150.9,329.7,153.3,327.1,156.1,327.4Zm7.5-14.4,1.6,7.8-1.5.4c-.2-1-.5-2-.8-3a35.8,35.8,0,0,0-1.1-3.5c-.1-.2-.2-.5-.3-.7l-.1-.1-.3-.6c0-.1-.1-.1-.1-.2a1.38,1.38,0,0,0-.3-.4l-.2-.2c-.1-.1-.2-.3-.3-.4l-.2-.2-.4-.4-.1-.1c-.2-.1-.3-.3-.5-.4l-.2-.1-.5-.2-.2-.1a4.331,4.331,0,0,0-.5-.1h-.1l-.6-2.1-.1-.4-.6-2.1a2.92,2.92,0,0,1-.2-.9l-.5-1.8c-.1-.3-.2-.7-.3-1-.2-.6-.3-1.3-.5-1.9-.1-.4-.2-.7-.3-1.1-.2-.8-.5-1.7-.7-2.5l-.2-.9c-.3-1-.6-2.1-.9-3.2a5.639,5.639,0,0,0-.4-1.2c-.2-.4-.3-1.1-.5-1.6l.1.1,3.3,1.6,5.2,2.4c.3.1.5.2.8.3l3.2,15.8a4.194,4.194,0,0,0-.9,1.4c.1.6.1,1.1.2,1.6ZM41.9,322.9c1.8-6.6,8.2-10.5,17.3-13a53.007,53.007,0,0,1,13.2-.8c.6.2,1.1.4,1.6.6A37.9,37.9,0,0,0,54.9,315a19.81,19.81,0,0,0-9.8,14.3v.3h-5Zm26.4,6.7H63.8a10.633,10.633,0,0,1,1.2-3.4,15.754,15.754,0,0,1,9.2-7.4,22.724,22.724,0,0,1,11-.7,8.3,8.3,0,0,1,2.1.6,21.159,21.159,0,0,1,1.1,2.1h0c.1.3.2.5.3.8s.2.5.3.8a4.875,4.875,0,0,0,.4,1.1,6.888,6.888,0,0,0,.3.8c.1.5.2.9.3,1.4a1.854,1.854,0,0,0,.2.7,17.158,17.158,0,0,1,.4,2.4v.7Zm15.6-14.8h-.2a14.768,14.768,0,0,0-2.1-.1h-.2a16.949,16.949,0,0,0-2.3.1h-.5l-2.4.3-.4.1c-.8.2-1.7.4-2.5.6a21.5,21.5,0,0,0-6.2,3.2,15.85,15.85,0,0,0-4.7,5.6h0a18.611,18.611,0,0,0-1,2.5l-.3.9c-.1.5-.3,1-.4,1.5H48.2a17.25,17.25,0,0,1,8.4-11.9,36.038,36.038,0,0,1,21-4.8,26.932,26.932,0,0,1,4,.3c.6.4,1.2.8,1.7,1.2h0l.6.5Zm31.6,14.8H93.6a4.869,4.869,0,0,0-.1-1.2,29.553,29.553,0,0,0-3.9-11.6l.1-.2c-.1-.1-.2-.1-.3-.2a16.723,16.723,0,0,0-4.2-4.6c-.5-.4-1-.7-1.5-1.1l-.5-.3a8.794,8.794,0,0,1-1-.6l-.2-.1h.1l2.4.2.5.1c.8.1,1.5.1,2.2.2,3.5.4,8.5.5,8.5.5l1-3.6a11.422,11.422,0,0,1,.9-2.6l.1-.2h0a8.794,8.794,0,0,1,.6-1l.2-.3c.1-.2.3-.4.4-.6l.2-.3c.1-.2.3-.3.4-.5l.2-.2.1-.1.2-.2c.2-.1.3-.3.5-.4.1-.1.2-.1.4-.2s.3-.2.5-.3c.1-.1.2-.1.4-.2s.3-.1.5-.2l.4-.1a.749.749,0,0,0,.5-.1h.4a1.268,1.268,0,0,1,.6.1l.3.1a1.854,1.854,0,0,1,.7.2l.3.1c.3.1.6.3.9.4l.2.1a3.039,3.039,0,0,1,.7.5h.1l.2.2a4.349,4.349,0,0,1,.7.6l.3.3.7.7.3.3c.3.3.5.7.8,1l.2.2c.3.4.6.9.9,1.3l.1.1c.2.3.4.7.6,1a41.43,41.43,0,0,1,3.3,22.8ZM98.9,298.4c-.4-1.3-.8-2.8-1.3-4.4l-5.4-18.2h0a24.517,24.517,0,0,0,2.7.2,18.148,18.148,0,0,0,6.1-1l5.4,22.3a9.22,9.22,0,0,0-5.2.2c-.2.1-.5.2-.7.3l-.6.3a2.507,2.507,0,0,0-.7.4l-.3-.1Zm-4-25.3a10.548,10.548,0,0,1-9.7-4.4,22.743,22.743,0,0,0,10.2,2.7,18.364,18.364,0,0,0,8.3-1.9l.6-.3a11.173,11.173,0,0,1-9.4,3.9ZM61,245.5H59.9l-.5-.1-.7-.2-.5-.2-.4-.1-.3-.1-.2-.1-.2-.1h0l.1-.1a4.672,4.672,0,0,0,1-.5,5.5,5.5,0,0,0,.9-.7l.2-.2a4.349,4.349,0,0,0,.6-.7l.2-.2a4.671,4.671,0,0,0,.5-1c0-.1.1-.1.1-.2l.3-.9a.756.756,0,0,1,.1-.4,4.1,4.1,0,0,0,.1-1.1v-.2a4.869,4.869,0,0,0-.1-1.2c-.1-.3-.1-.7-.2-1a.9.9,0,0,1-.1-.5l-.6-1.5c-.2-.4-.5-.8-.7-1.2l-.2-.3a5.716,5.716,0,0,0-.7-.8l-.1-.2a8.744,8.744,0,0,0-1-.8l-.3-.2c-.3-.2-.6-.3-.9-.5l-.2-.1a3.545,3.545,0,0,0-1.1-.3h-.2c-.3,0-.5-.1-.8-.1a2.2,2.2,0,0,0-.8.1l-.3.1h0l-.1-.1-1.9-2.3-.2-.2-.1-.1-1.3-1.6-.2-.3-1.3-2-.1-.2c-.5-.7-1-1.4-1.6-2.1h0c-.5-.7-1-1.4-1.6-2.2l-.2-.2v-.1l-3-4.2v-.1l-1.2-1.8-.2-.4-1-1.5-.3-.5c-.4-.6-.8-1.2-1.2-1.9a.1.1,0,0,0-.1-.1,15.055,15.055,0,0,1-1-1.7l-.3-.5-.9-1.5a.758.758,0,0,1-.2-.4c-.3-.6-.7-1.2-1-1.8l-.2-.4c-.3-.5-.5-1-.7-1.4l-.2-.5A14.167,14.167,0,0,1,32,198q-.6-1.5-1.2-2.7c-.1-.3-.2-.5-.3-.8-.2-.6-.4-1.1-.6-1.6l-.3-.9c-.1-.5-.3-.9-.4-1.3a4.537,4.537,0,0,0-.2-.8,4.253,4.253,0,0,1-.2-1.1,2.485,2.485,0,0,1-.1-.8c0-.3-.1-.7-.1-1v-.7a2.768,2.768,0,0,1,.1-.9,1.952,1.952,0,0,0,.1-.7,3.711,3.711,0,0,1,.2-.9,4.17,4.17,0,0,1,.2-.6,6.314,6.314,0,0,1,.4-.9.758.758,0,0,1,.2-.4h0a77.623,77.623,0,0,1,9-12.3c9-11.6,30.4-29.6,45.4-33.5.1.4.1.7.2,1a17.09,17.09,0,0,0,10.5,9.7,43.672,43.672,0,0,0,14.8,2.8l-.4.2a3.65,3.65,0,0,0-1.8,2.4,167.86,167.86,0,0,0-4.6,24.3l-20.1-1.8L71.2,187.2A38.675,38.675,0,0,1,59.1,184a66.678,66.678,0,0,1,23.4-44A28.162,28.162,0,0,0,71,147.4c-1,1.3-2,2.7-2.9,4.1-.3.5-.6.9-.9,1.4l-1.8,3c-.3.5-.6,1.1-.9,1.6l-1.5,3c-.2.5-.5,1-.7,1.6-.5,1.2-1,2.4-1.5,3.7a10.375,10.375,0,0,1-.4,1c-.6,1.6-1.1,3.2-1.6,4.8-.1.4-.2.9-.3,1.3-.3,1.2-.7,2.5-.9,3.7a8.469,8.469,0,0,1-.4,1.7l-.6,3.3-.3,1.8c0,.4-.1.8-.1,1.2-.3-.2-.6-.5-.9-.7a6.124,6.124,0,0,0-.6-.4c-.6-.4-1.3-.8-2-1.2a5.171,5.171,0,0,0-1.3-.6l-.5-.2c-.3-.1-.6-.3-.9-.4l-.6-.2-.9-.3c-.2-.1-.4-.1-.6-.2l-.9-.3-.6-.2-.9-.2-.6-.1a2.768,2.768,0,0,0-.9-.1l-.6-.1H41.9a6.149,6.149,0,0,0-1.4.1l-4,1.1a34.054,34.054,0,0,1,11.4,2.3,18.1,18.1,0,0,1,8,6.5,2.075,2.075,0,0,0,.6,1,24.131,24.131,0,0,1,2.1,5c0,1.5,0,3.1.1,4.6.2,3.3.6,6.6,1.1,9.9a5.217,5.217,0,0,0-3.7,2.4,6.062,6.062,0,0,0-1.1,3.5,8.083,8.083,0,0,0,1.1,2.7l.4.7h0c.5.9.9,1.8,1.4,2.8l.6,1.2h0c.2.4.4.8.6,1.3.4.7.7,1.5,1.1,2.2.2.4.4.8.6,1.3.6,1.4,1.3,2.7,2,4l.2.4c.8,1.4,1.6,2.7,2.4,4l.6.9c.8,1.1,1.5,2.3,2.4,3.4l.3.4h0l-.3.2-.3.2c-.1.1-.3.2-.4.3l-.5.3-.4.3-.5.3-.5.3-.4.3-.5.3a1.38,1.38,0,0,0-.4.3l-.4.3-.4.2-.4.2-.3.2-.4.2-.2.1a2.186,2.186,0,0,0-.5.3c-.3,0-.6.1-.9.1ZM33,222a27.4,27.4,0,0,1,14.4,6.4l1.5,1.1c.5.6,1,1.3,1.5,1.9a7.3,7.3,0,0,0-1.6,7.2c-.1.1-.2.3-.3.4-8.8-6.6-22.1-17-15.5-17Zm5.5-5a5.02,5.02,0,0,1,1.2.2l3.6,5.1a28.083,28.083,0,0,0-6.2-2.6c-.9-1.8-.7-2.9,1.4-2.7Zm20.6,18a5.645,5.645,0,0,1-1.5,7.5,5.105,5.105,0,0,1-6.7-2.7.1.1,0,0,0-.1-.1,5.645,5.645,0,0,1,1.5-7.5,5.061,5.061,0,0,1,6.7,2.6.31.31,0,0,1,.1.2ZM74.4,63A69.675,69.675,0,0,0,90.2,47.2a23.434,23.434,0,0,1,2.6-4.3v-.1a3.638,3.638,0,0,1,1.4-1.6,5.4,5.4,0,0,1,7-1.2c7.9,5.3,8.5,12.2,21.4,11.3a8.671,8.671,0,0,0-1.3,4.4,7.511,7.511,0,0,0,.5,2.6c-.8.6-1.4,1.1-1.8,1.4-5.5,4.8-34.5,18.6-50.8,19.7-18.3,1.4-5.3-7.7,5.2-16.4Zm27.4-46.7.6-.6,2.4-1.8a2.506,2.506,0,0,1,.7-.4,11.781,11.781,0,0,1,1.9-1.1c.3-.2.7-.3,1-.5a13.018,13.018,0,0,1,1.7-.8,11.73,11.73,0,0,0,1.1-.5,11.5,11.5,0,0,1,1.7-.6l1.2-.4c.6-.2,1.2-.3,1.9-.5l1.2-.3,2.1-.3c.3,0,.7-.1,1-.1,1.1-.1,2.1-.2,3.2-.2s2.2.1,3.2.2a4.253,4.253,0,0,1,1.1.2l2.1.3,1.2.3a12.091,12.091,0,0,1,1.8.5c.4.1.8.3,1.2.4.6.2,1.1.4,1.7.6s.8.4,1.2.5c.4.2,1.1.5,1.6.8a12.749,12.749,0,0,1,1.2.7c.4.2,1,.6,1.5.9s.8.5,1.1.7c.4.2.9.7,1.4,1l1,.8a15.381,15.381,0,0,1,1.3,1.2l.9.9a16.607,16.607,0,0,1,1.3,1.4c.3.3.5.6.8.9.5.7,1,1.3,1.5,2l.3.5a22.605,22.605,0,0,1,1.6,2.6c.2.3.3.7.5,1l.9,1.8c.2.4.3.8.5,1.2.2.6.4,1.1.6,1.7s.3.9.4,1.3c.1.5.3,1.1.4,1.7s.2.9.3,1.4a8.665,8.665,0,0,0,.2,1v.1a38.838,38.838,0,0,1,.4,4.8,33.14,33.14,0,0,1-32.9,33.3,34.8,34.8,0,0,1-7.9-.9c3.5-1.3,7-2.6,10.3-4.2,2.9-1.4,7.9-3.9,9.2-7v-.1a8.576,8.576,0,0,0,1.1-12.1,8.481,8.481,0,0,0-10.1-2.3h0c6.2-4.5,10.4-12.9,5.8-18.1-5.4-6-20.3-11-31.5-10.7-.7.1-1.5.2-2.2.3.3-.3.6-.7.9-1s.5-.6.8-.9C100.8,17.2,101.3,16.8,101.8,16.3Zm0,97.2.3-.7c.2-.4.3-.7.5-1.1,1.8.5,4.4,1.1,7.3,1.6,5.6,1,12.3,2,16.2,2.4a12.86,12.86,0,0,0-.4,1.9c-4-.4-10.6-1.3-16.1-2.4A40.094,40.094,0,0,1,101.8,113.5Zm6.2-12,1.1-1.9a59.223,59.223,0,0,1,10.3,1.3,52.192,52.192,0,0,1,10.1,3.4c-.2.6-.4,1.2-.6,1.9a50.374,50.374,0,0,0-9.9-3.4,67.422,67.422,0,0,0-11-1.3Zm7.2-12c.4-.7.9-1.4,1.3-2a25.569,25.569,0,0,1,7.3.8,36.886,36.886,0,0,1,10,4.3,13.354,13.354,0,0,0-.7,1.8,34.4,34.4,0,0,0-9.8-4.3,24.47,24.47,0,0,0-8.1-.6Zm6.6-9.8,1.4-1.9a42.914,42.914,0,0,1,7.9,1.1,29.572,29.572,0,0,1,7.5,2.8c-.3.6-.5,1.2-.8,1.8a25.419,25.419,0,0,0-7.1-2.7,38.715,38.715,0,0,0-8.9-1.1Zm-12.6,46.9a47.83,47.83,0,0,0,15.1-.3,15.03,15.03,0,0,0-.2,2,50.963,50.963,0,0,1-15.1.2,35.833,35.833,0,0,1-11.9-3.3l.6-1.8a35.187,35.187,0,0,0,11.5,3.2Zm14.2-70.7a6.6,6.6,0,1,1,6.6,6.6h0A6.658,6.658,0,0,1,123.4,55.9ZM92.9,33.5c.7-2.2,2.2-3.7,3.4-3.4,1.2.4,1.5,2.5.8,4.7s-2.2,3.7-3.4,3.4c-1.2-.4-1.5-2.5-.8-4.7Zm25.2,5.3a3.84,3.84,0,0,1,5.4-.9,3.77,3.77,0,0,1,.9,5.4,3.871,3.871,0,0,1-6.3-4.5ZM93.2,76.4A175.884,175.884,0,0,0,114,67.1a55.181,55.181,0,0,0,6.6-4,11.5,11.5,0,0,0,2.3-2.1,8.82,8.82,0,0,0,6.6,3.6A143.729,143.729,0,0,1,99.9,76a83.3,83.3,0,0,1-14.8,3.3c2.8-1,5.6-2,8.1-2.9Zm.2,50.9a5.109,5.109,0,0,0,1.4,3.9,28.567,28.567,0,0,0,16,5c5.7.2,13.4-.9,15.3-5a20.324,20.324,0,0,0,.7-4.3c7.1-.5,10.2,9.1,3,14.6-13.3,10.1-44.1,5.1-43-7.8.4-5.2,1.4-8.8,7.1-9.7a4.559,4.559,0,0,0-.6,2.2,2.161,2.161,0,0,1,.1,1.1Zm16.5,108.5a169,169,0,0,1,1.2-82.4,49.613,49.613,0,0,0,51.2-14.9,49.613,49.613,0,0,0,51.2,14.9,168.341,168.341,0,0,1,.7,84.3c-8.2,32-21.8,38.8-51.9,52.7C131.1,276,118,269.1,109.9,235.8Zm8.5,30.1-.6-.1c-.7-.1-1.4-.1-2-.2s-1.4-.2-2.1-.3-1.4-.3-2.1-.4l-1.5-.3a6.372,6.372,0,0,1-.7-.2l-1.1-.3-1.2-.3-.2-.1a8.8,8.8,0,0,1-1.5-.5l-1-.3c-1.2-.4-2.4-.8-3.6-1.3l-.2-.1-.7-.3c-.8-.4-1.6-.7-2.5-1.1l-.6-.3c-.7-.3-1.3-.7-2-1a10.191,10.191,0,0,1-1.5-.8l-1.1-.6h0c-1.2-.7-2.5-1.5-3.7-2.2l-1.1-.8c-.6-.4-1.1-.8-1.7-1.2a3.039,3.039,0,0,0-.7-.5c-.6-.4-1.1-.9-1.7-1.3l-1.2-.9-1.1-1-.7-.6c-1.1-.9-2.1-1.9-3.1-2.9l-.5-.5a34.461,34.461,0,0,1-2.6-2.8l-.6-.7-.4-.4c-.6-.7-1.2-1.4-1.8-2.2l-.1-.1-.3-.5c-.5-.6-.9-1.2-1.4-1.9a16.672,16.672,0,0,1-1.2-1.6l-.6-.9-.1-.1c0-.1-.1-.1-.1-.2a17.393,17.393,0,0,1-1.1-1.8c-.3-.6-.8-1.3-1.1-2l-.3-.6c0-.1-.1-.2-.1-.3h0c-.7-1.4-1.4-2.7-2-4.1-.2-.5-.7-1.4-1.3-2.6-1.8-3.6-1.8-2.9.9-.9,10.9,8.2,26.8,11.1,42.9,11.1.3,1.1.5,2.3.8,3.4a116.614,116.614,0,0,0,4.2,13.9,35.176,35.176,0,0,0,1.6,3.9l.2.5c.6,1.3,1.2,2.5,1.8,3.7l.1.2a37.911,37.911,0,0,0,2,3.4l.1.2c.7,1.1,1.4,2.1,2.1,3.1l.1.7ZM58.6,187.2c0-.4.1-.7.1-1.1h0l.5.2a22.5,22.5,0,0,0,2.4.8l.3.1q1.2.3,2.1.6l.3.1c.7.1,1.3.3,1.9.4h.3a9.971,9.971,0,0,0,1.6.2h.2c.5,0,.9.1,1.3.1h2.5l6.1-6.8,4.9-5.4h0l15,1.2,4.7.4v.7c-.1.9-.2,1.7-.3,2.6h0l-19.2-1.7L72.3,192H69.9l-.4-.1H69l-.5-.1-.4-.1-.5-.1-.5-.1-.6-.1-.5-.1-.6-.1-.5-.1-.7-.2-.5-.1-.7-.2-.5-.2-.8-.3-.5-.2c-.5-.2-.9-.3-1.4-.5h0l-1.1-.5-.3-.1A9.97,9.97,0,0,0,58.6,187.2Zm37,27.4c-1,.4-2.1.8-3.2,1.2a25.8,25.8,0,0,1-3.2-1.8,10.913,10.913,0,0,1-2.9-2.3,8.37,8.37,0,0,1-1.4-2.4,16.122,16.122,0,0,1-.9-2.9,29.624,29.624,0,0,1-.7-6.6,34.3,34.3,0,0,1,.5-5.6,12.917,12.917,0,0,0,3.4-.1,19.358,19.358,0,0,0,4.3-1.1,4.672,4.672,0,0,0,1-.5l.3-.2.3.2a5.3,5.3,0,0,0,1,.6,20.8,20.8,0,0,0,4.3,1.9,15.469,15.469,0,0,0,3.1.6c0,3.3,0,6.7.2,10-.2,1-.5,2-.8,3a26.043,26.043,0,0,1-1,2.5,7.006,7.006,0,0,1-1.5,1.9,9.7,9.7,0,0,1-2.8,1.6Zm6-21.5a10.267,10.267,0,0,1-2.4-.5,15.333,15.333,0,0,1-3.7-1.6l-.9-.6-.9-.6-.6-.5-.7.4c-.3.2-.6.3-.9.5l-.9.4a15.569,15.569,0,0,1-3.7,1,12.75,12.75,0,0,1-3.9,0l-1.1-.2-.3,1.1a35.294,35.294,0,0,0-.8,7.2,28.128,28.128,0,0,0,.8,7.1,20.739,20.739,0,0,0,1,3.3,9.973,9.973,0,0,0,1.9,3.1A15.959,15.959,0,0,0,88,216a37.163,37.163,0,0,0,3.9,2.1l.5.2.5-.2c1.2-.4,2.6-.9,3.8-1.4a11.258,11.258,0,0,0,3.5-2.1,8.6,8.6,0,0,0,2-2.6l.1-.1c.1,1.1.2,2.3.3,3.4a21.557,21.557,0,0,1-10.4,5.3c-7.7-3.9-10.8-5.8-12.6-13.5a34.6,34.6,0,0,1,1-18.6,12.46,12.46,0,0,0,12.8-2.3,13.822,13.822,0,0,0,8.4,4.6,9.752,9.752,0,0,0-.2,2.3ZM60.5,213c.5.3,1,2.3,1.4,2.6,10.4,8.9,26.2,12.3,42.4,12.4.2.9.3,1.7.5,2.6a89.466,89.466,0,0,1-29-4.3,90.437,90.437,0,0,1-10-4.6,22.421,22.421,0,0,1-7.9-6.8C58.4,213.9,59.7,212.5,60.5,213Zm86.3-67a44.311,44.311,0,0,1-34.2,3.7,34.326,34.326,0,0,0,18.9-5.9,12.9,12.9,0,0,0,4.8-6.7c1.5.9,2.9,1.8,4.4,2.7-1.1.4-1.7.9-1.6,1.5a5.637,5.637,0,0,1,1.2-.4,19.189,19.189,0,0,1,11.8,1.7,36.731,36.731,0,0,1-5.3,3.4ZM72,245.1l.2.3,1.2,1.2,1.1,1.1,1.2,1.2a9.959,9.959,0,0,0,1.1,1,14.2,14.2,0,0,1,1.3,1.2c.5.4.7.7,1.1,1a17.1,17.1,0,0,0,1.4,1.1,64.666,64.666,0,0,0,9.8,6.6l.6.3c.7.4,1.5.8,2.2,1.2a85.422,85.422,0,0,0,10.8,4.6,15.832,15.832,0,0,1-8.5,2.4h-.1a13.4,13.4,0,0,1-2-.1l-.5-.1a12.863,12.863,0,0,1-1.9-.4h0a5.639,5.639,0,0,1-1.2-.4.758.758,0,0,1-.4-.2l-.8-.3c-.4-.2-.8-.3-1.2-.5a2.507,2.507,0,0,1-.7-.4l-.4-.2c-.3-.2-.7-.4-1-.6l-.1-.1c-.7-.5-1.5-1-2.2-1.5l-.1-.1-.6-.6a10.948,10.948,0,0,1-1.1-1,5.008,5.008,0,0,1-.7-.8c-.2-.3-.7-.7-1-1.1s-.5-.6-.7-.9a8.706,8.706,0,0,0-.9-1.1,6.07,6.07,0,0,1-.7-1,8.342,8.342,0,0,0-.8-1.2c-.3-.4-.4-.7-.6-1s-.5-.9-.7-1.3a5.359,5.359,0,0,1-.5-1.1c-.2-.4-.4-.9-.6-1.4s-.3-.8-.5-1.2a7.838,7.838,0,0,0-.5-1.4,5.638,5.638,0,0,1-.4-1.2c-.1-.4-.3-1-.4-1.5-.1.1-.1-.2-.2-.5Z"/>
    <path id="Path_186" d="M133.6,59.5a5.162,5.162,0,1,0-7.3,0,5.017,5.017,0,0,0,7.3,0ZM127,52.9a4.1,4.1,0,0,1,5.2-.5l-5.7,5.8A4.225,4.225,0,0,1,127,52.9Zm.7,6.4,5.7-5.7a4.044,4.044,0,0,1-1.1,5.7A3.9,3.9,0,0,1,127.7,59.3Z"/>
    <path id="Path_187" d="M127.9,37.6a2.3,2.3,0,1,0-2.3,2.3h0a2.263,2.263,0,0,0,2.3-2.3Z"/>
    <path id="Path_188" d="M95.6,35.3c.5.2,1.2-.5,1.5-1.5s.1-1.9-.4-2-1.2.5-1.5,1.4S95.1,35.1,95.6,35.3Z"/>
    <path id="Path_189" d="M89.2,134.9a1.9,1.9,0,1,0,2-1.8h0A1.788,1.788,0,0,0,89.2,134.9Z"/>
    <path id="Path_190" d="M129,134.6a1.9,1.9,0,1,0,1.8,2h0A1.907,1.907,0,0,0,129,134.6Z"/>
    <path id="Path_191" d="M97.4,137a1.9,1.9,0,1,0,1.8,2h0A1.844,1.844,0,0,0,97.4,137Z"/>
    <path id="Path_192" d="M122.2,142.2a1.9,1.9,0,1,0-1.8-2h0A1.844,1.844,0,0,0,122.2,142.2Z"/>
    <path id="Path_193" d="M105.2,143.3a1.9,1.9,0,1,0-1.8-2h0A1.9,1.9,0,0,0,105.2,143.3Z"/>
    <path id="Path_194" d="M114,143.9a1.9,1.9,0,1,0-1.8-2h0A1.907,1.907,0,0,0,114,143.9Z"/>
    <path id="Path_195" d="M51.2,235.8a5.435,5.435,0,0,0,3,5.8,3.229,3.229,0,0,0,4.3-1.7c.1-.3.2-.6.3-1a5.5,5.5,0,0,0-2.9-5.8,3.363,3.363,0,0,0-4.4,1.6C51.4,235.1,51.3,235.5,51.2,235.8Zm3.1,4.9a4.324,4.324,0,0,1-2.4-3.9l5.9,2.5a2.692,2.692,0,0,1-3.3,1.6c0-.1-.1-.1-.2-.2Zm3.8-2.7-5.9-2.5a2.692,2.692,0,0,1,3.3-1.6h0l.2.1a4.474,4.474,0,0,1,2.4,4Z"/>
    <path id="Path_196" d="M103.5,309.3a8.15,8.15,0,1,0,9,7.2h0A8.116,8.116,0,0,0,103.5,309.3Zm1.6,14.3a6.239,6.239,0,1,1,5.5-6.9h0a6.268,6.268,0,0,1-5.5,6.9Z"/>
    <path id="Path_197" d="M107.5,313.6a4.912,4.912,0,1,0,.8,6.9h0a5.02,5.02,0,0,0-.8-6.9Zm-5.5,6.9a3.872,3.872,0,0,1-1-4.8l6,4.8a4.2,4.2,0,0,1-5,0Zm5.9-1.3-6-4.8a3.848,3.848,0,0,1,5.5.5A3.97,3.97,0,0,1,107.9,319.2Z"/>
    <path id="Path_198" d="M151.7,337.1a3.574,3.574,0,0,0,4.8,1.4,3.114,3.114,0,0,0,.9-.7,5.859,5.859,0,0,0,.4-7.1,3.574,3.574,0,0,0-4.8-1.4,3.114,3.114,0,0,0-.9.7A5.859,5.859,0,0,0,151.7,337.1Zm.6-.7a4.922,4.922,0,0,1-.1-5.1l4.1,6.1a2.765,2.765,0,0,1-3.9-.8.349.349,0,0,1-.1-.2Zm4.9-5.2a4.925,4.925,0,0,1,.1,5.1l-4.1-6.1a2.782,2.782,0,0,1,3.9.8C157.1,331.1,157.1,331.2,157.2,331.2Z"/>
    <path id="Path_199" d="M163.2,284c18.4-8.9,34.6-15.4,42.2-36a133.261,133.261,0,0,0,6.2-24.1,164.27,164.27,0,0,0-1.7-62.1,1.909,1.909,0,0,0-2.2-1.5,53.808,53.808,0,0,1-34.5-6,64.387,64.387,0,0,1-9.7-6.7,1.961,1.961,0,0,0-2.5,0,54.886,54.886,0,0,1-44.2,12.7,1.993,1.993,0,0,0-2.2,1.5,164.738,164.738,0,0,0-1.7,62.2,133.262,133.262,0,0,0,6.2,24.1c7.6,20.6,23.8,27.1,42.2,36A2.484,2.484,0,0,0,163.2,284Zm-4.1-3.3-.4-.2-1.2-.6-.4-.2-2.5-1.2-1-.5-.3-.1c-1.7-.8-3.4-1.7-5-2.5l-.5-.2-1-.5-1.2-.6c-.2-.1-.3-.2-.5-.3l-1-.6-.8-.5-.4-.2-.4-.2-.6-.4-2.4-1.5-1.1-.7c-.7-.5-1.4-1-2.1-1.6-.2-.2-.5-.3-.7-.5l-.2-.1-.3-.2c-.5-.4-1-.9-1.5-1.3a5.5,5.5,0,0,0-.9-.7l-.1-.1-.1-.1-.1-.1a4.349,4.349,0,0,0-.7-.6c-.5-.5-1.1-1-1.6-1.6l-.8-.9c-.4-.4-.7-.8-1.1-1.2l-.3-.4-.5-.6a14.29,14.29,0,0,1-1.4-2l-.4-.6c-.6-.9-1.1-1.7-1.6-2.6l-.3-.6c-.2-.5-.5-.9-.7-1.4-.2-.3-.3-.7-.5-1l-.4-.8a30.544,30.544,0,0,1-1.3-3.2c-.6-1.7-1.2-3.5-1.8-5.2V241c-.5-1.7-1-3.4-1.4-5.2l-.2-.9a15.985,15.985,0,0,1-.5-2.1c-.2-.7-.4-1.7-.6-2.6,0-.2-.1-.3-.1-.5s-.1-.3-.1-.4l-.3-1.5a29.311,29.311,0,0,1-.5-2.9,6.753,6.753,0,0,1-.2-1.4c-.4-2.3-.7-4.6-1-6.9-.1-.5-.1-.9-.2-1.3-.3-2.2-.5-4.4-.6-6.7,0-.4-.1-.8-.1-1.3a21.053,21.053,0,0,0-.2-2.5.6.6,0,0,0,.1.4c-.1-1.1-.1-2.2-.2-3.3h0v-9.6c.1-2.2.2-4.5.3-6.7,0-.5.1-1.1.1-1.6.2-2.1.4-4.1.6-6.2a1.7,1.7,0,0,1,.1-.7c.3-2.2.6-4.5,1-6.7l.3-1.6c.4-2.2.8-4.5,1.3-6.7a55.409,55.409,0,0,0,35.7-6.2,68.378,68.378,0,0,0,10-6.9,57.366,57.366,0,0,0,10,6.9,55.52,55.52,0,0,0,35.7,6.2,160.609,160.609,0,0,1,1.6,61.4c0,.3-.1.5-.1.8h0a131.934,131.934,0,0,1-6,23c-.4,1-.8,1.9-1.2,2.8h0c-.1.1-.1.3-.2.4-.2.5-.4.9-.6,1.3-.3.6-.6,1.3-.9,1.9-.2.4-.5.8-.7,1.2-.3.6-.7,1.1-1,1.7a12.49,12.49,0,0,1-.8,1.2c-.3.4-.7,1-1.1,1.5s-.5.7-.8,1.1a14.932,14.932,0,0,1-1.2,1.4l-.9.9-1.4,1.4-.8.8c-.5.5-1.1,1-1.7,1.5l-.7.6a23.481,23.481,0,0,1-2.5,1.9l-.5.4c-.7.5-1.4,1-2.1,1.4l-1,.6c-.6.4-1.1.7-1.7,1.1l-1.1.7-1.7,1-1.2.6-1.7.9-1.3.7-1.8.9-1.3.7-1.9.9-1.3.6-2.3,1.1-3.9,1.9Z"/>
    <path id="Path_200" d="M219.9,330H196.4a1.9,1.9,0,1,0,0,3.8h23.5a1.9,1.9,0,0,0,1.9-1.9,2.043,2.043,0,0,0-1.9-1.9Z"/>
    <path id="Path_201" d="M78.4,159.3a6.944,6.944,0,0,0-1.3-.5l1.2-2.4c-.8-.4-1.7-.7-2.5-1.1-.4.8-.8,1.6-1.2,2.3l-1.2-.6c1-1.8,2.1-3.7,3-5.6l1.1.6-1.2,2.4a18.888,18.888,0,0,0,2.5,1.1,18.887,18.887,0,0,0,1.1-2.5l1.2.5C80.2,155.5,79.4,157.4,78.4,159.3Z"/>
    <path id="Path_202" d="M85.9,159.2a2.942,2.942,0,0,1-1.5,1.6,3.051,3.051,0,0,1-2.3,0,2.909,2.909,0,0,1-1.7-1.4,2.238,2.238,0,0,1,.1-2.1l.5-1a2.758,2.758,0,0,1,3.6-1.5,2.475,2.475,0,0,1,1.6,1.4,2.551,2.551,0,0,1,.1,2.1A7.93,7.93,0,0,0,85.9,159.2Zm-.9-1.5a1.95,1.95,0,0,0,.1-1.3,1.22,1.22,0,0,0-.9-.8,1.287,1.287,0,0,0-1.2.1,1.589,1.589,0,0,0-.8,1l-.5,1.1a1.9,1.9,0,0,0-.1,1.3,1.22,1.22,0,0,0,.9.8,1.262,1.262,0,0,0,1.2-.1,1.589,1.589,0,0,0,.8-1Z"/>
    <path id="Path_203" d="M91.7,163.5l-1.4-.3c-.5-1.6-.9-3.2-1.4-4.9h0c-.5,1.4-.9,2.7-1.4,4.1l-1.4-.4q1.2-3,2.1-6a6.469,6.469,0,0,1,1.3.4c.5,1.6.9,3.2,1.4,4.8h0a33.1,33.1,0,0,0,1.2-4.2l1.3.3C92.9,159.4,92.3,161.4,91.7,163.5Z"/>
    <path id="Path_204" d="M95.9,161.6l-.8-.1c-.2.9-.5,1.7-.7,2.6l-1.4-.3c.6-2,1.2-4.1,1.7-6.2l1.4.3c-.2.8-.4,1.7-.6,2.5l.6.1c.8-.7,1.6-1.5,2.4-2.3l1.7.2c-1,.9-1.9,1.7-3,2.6.6,1.2,1.2,2.5,1.8,3.7l-1.8-.2C96.8,163.5,96.3,162.5,95.9,161.6Z"/>
  </g>
</svg>
