<?xml version="1.0" encoding="utf-8"?>
<!-- Generator: Adobe Illustrator 25.2.3, SVG Export Plug-In . SVG Version: 6.00 Build 0)  -->
<svg version="1.1" id="Vrstva_1" xmlns="http://www.w3.org/2000/svg" xmlns:xlink="http://www.w3.org/1999/xlink" x="0px" y="0px"
	 viewBox="0 0 1535 549" style="enable-background:new 0 0 1535 549;" xml:space="preserve">
<style type="text/css">
	.st0{fill:#0067B1;}
</style>
<g>
	<g>
		<path class="st0" d="M629.5,233.8h-24.1v109.1c0,14.4-3.2,24.9-9.5,31.7c-6.3,6.8-14.6,10.2-24.8,10.2c-11,0-19.5-3.6-25.5-10.7
			c-6-7.1-9-17.5-9-31.3V81.6c0-14.8,3.3-25.6,10-32.2c6.6-6.6,17.4-10,32.2-10h111.9c15.4,0,28.6,0.7,39.6,2c11,1.3,20.8,4,29.6,8
			c10.7,4.5,20.1,10.9,28.3,19.2c8.2,8.3,14.4,18,18.6,29.1c4.2,11,6.4,22.7,6.4,35.1c0,25.3-7.1,45.6-21.4,60.7
			c-14.3,15.1-35.9,25.9-65,32.2c12.2,6.5,23.9,16.1,35,28.7c11.1,12.7,21,26.1,29.8,40.4c8.7,14.3,15.5,27.2,20.4,38.7
			c4.9,11.5,7.3,19.4,7.3,23.7c0,4.5-1.4,8.9-4.3,13.3c-2.9,4.4-6.8,7.9-11.7,10.4c-4.9,2.5-10.7,3.8-17.1,3.8
			c-7.7,0-14.2-1.8-19.5-5.4c-5.3-3.6-9.8-8.2-13.6-13.8c-3.8-5.6-8.9-13.7-15.4-24.6l-27.6-45.9c-9.9-16.8-18.7-29.6-26.5-38.5
			c-7.8-8.8-15.7-14.8-23.7-18.1C651.8,235.5,641.7,233.8,629.5,233.8z M668.9,91.1h-63.5v93.3h61.6c16.5,0,30.4-1.4,41.7-4.3
			c11.3-2.9,19.9-7.7,25.8-14.6c5.9-6.9,8.9-16.3,8.9-28.4c0-9.4-2.4-17.7-7.2-24.9c-4.8-7.2-11.4-12.5-19.9-16.1
			C708.4,92.8,692.5,91.1,668.9,91.1z"/>
		<path class="st0" d="M1095.6,340.6l-16.2-42.6H941.3l-16.2,43.5c-6.3,17-11.7,28.5-16.2,34.4c-4.5,5.9-11.8,8.9-22,8.9
			c-8.6,0-16.3-3.2-22.9-9.5c-6.6-6.3-10-13.5-10-21.5c0-4.6,0.8-9.4,2.3-14.4c1.5-4.9,4.1-11.8,7.6-20.6l86.9-220.5
			c2.5-6.3,5.4-13.9,8.9-22.8c3.5-8.9,7.2-16.3,11.1-22.1c3.9-5.9,9.1-10.6,15.5-14.2c6.4-3.6,14.3-5.4,23.7-5.4
			c9.6,0,17.6,1.8,24,5.4c6.4,3.6,11.6,8.3,15.5,14c3.9,5.7,7.3,11.9,10,18.4c2.7,6.6,6.1,15.3,10.3,26.3l88.7,219.1
			c6.9,16.7,10.4,28.8,10.4,36.4c0,7.9-3.3,15.1-9.8,21.7c-6.6,6.6-14.5,9.8-23.7,9.8c-5.4,0-10-1-13.9-2.9
			c-3.9-1.9-7.1-4.6-9.7-7.9c-2.6-3.3-5.4-8.4-8.5-15.3C1100.3,351.9,1097.7,345.9,1095.6,340.6z M959.4,246.3h101.5l-51.2-140.1
			L959.4,246.3z"/>
		<path class="st0" d="M1309.2,74.9l132.3,200.1v-202c0-13.1,2.8-23,8.5-29.5c5.6-6.6,13.2-9.8,22.8-9.8c9.9,0,17.7,3.3,23.4,9.8
			c5.7,6.6,8.6,16.4,8.6,29.5v267.1c0,29.8-12.4,44.7-37.1,44.7c-6.2,0-11.7-0.9-16.7-2.7c-4.9-1.8-9.6-4.6-13.9-8.5
			c-4.3-3.9-8.3-8.4-12-13.6c-3.7-5.2-7.4-10.5-11.1-15.9l-129-197.8v199c0,13-3,22.8-9,29.4c-6,6.6-13.7,10-23.2,10
			c-9.7,0-17.5-3.4-23.4-10.1c-5.9-6.7-8.8-16.5-8.8-29.3v-262c0-11.1,1.2-19.8,3.7-26.2c2.9-6.9,7.8-12.6,14.6-17
			c6.8-4.4,14.1-6.6,22-6.6c6.2,0,11.5,1,15.9,3c4.4,2,8.3,4.7,11.6,8.1c3.3,3.4,6.7,7.8,10.2,13.2
			C1301.9,63.4,1305.4,69.1,1309.2,74.9z"/>
	</g>
	<g>
		<path class="st0" d="M95.2,517.9l25-65.2h9.3l26.7,65.2h-9.8l-7.6-19.7h-27.3l-7.2,19.7H95.2z M114.1,491.1h22.1l-6.8-18.1
			c-2.1-5.5-3.6-10-4.6-13.5c-0.8,4.2-2,8.3-3.5,12.5L114.1,491.1z"/>
		<path class="st0" d="M297.6,517.9v-65.2h8.6v57.5h32.1v7.7H297.6z"/>
		<path class="st0" d="M483,517.9v-65.2h8.6v57.5h32.1v7.7H483z"/>
		<path class="st0" d="M670.2,517.9v-65.2h8.6v65.2H670.2z"/>
		<path class="st0" d="M821.8,517.9l25-65.2h9.3l26.7,65.2H873l-7.6-19.7h-27.3l-7.2,19.7H821.8z M840.6,491.1h22.1l-6.8-18.1
			c-2.1-5.5-3.6-10-4.6-13.5c-0.8,4.2-2,8.3-3.5,12.5L840.6,491.1z"/>
		<path class="st0" d="M1024.4,517.9v-65.2h8.9l34.2,51.2v-51.2h8.3v65.2h-8.9l-34.3-51.2v51.2H1024.4z"/>
		<path class="st0" d="M1271.5,495l8.6,2.2c-1.8,7.1-5.1,12.5-9.8,16.2c-4.7,3.7-10.4,5.6-17.2,5.6c-7,0-12.7-1.4-17.1-4.3
			c-4.4-2.9-7.8-7-10.1-12.4c-2.3-5.4-3.4-11.3-3.4-17.5c0-6.8,1.3-12.7,3.9-17.8c2.6-5.1,6.3-8.9,11.1-11.5
			c4.8-2.6,10.1-3.9,15.8-3.9c6.5,0,12,1.7,16.5,5c4.4,3.3,7.5,8,9.3,14l-8.5,2c-1.5-4.7-3.7-8.2-6.6-10.4
			c-2.9-2.2-6.5-3.2-10.9-3.2c-5,0-9.2,1.2-12.6,3.6c-3.4,2.4-5.7,5.6-7.1,9.7c-1.4,4-2,8.2-2,12.5c0,5.5,0.8,10.4,2.4,14.5
			c1.6,4.1,4.1,7.2,7.5,9.3c3.4,2,7.1,3.1,11.1,3.1c4.8,0,8.9-1.4,12.3-4.2C1268.1,504.6,1270.4,500.5,1271.5,495z"/>
		<path class="st0" d="M1425.7,517.9v-65.2h47.1v7.7h-38.5v20h36.1v7.7h-36.1v22.2h40v7.7H1425.7z"/>
	</g>
	<path class="st0" d="M503,243.9h-51.4c-9.6,0-17.4-7.8-17.4-17.4c0-9.6,7.8-17.4,17.4-17.4H503c9.6,0,17.4,7.8,17.4,17.4
		C520.4,236.1,512.6,243.9,503,243.9"/>
	<g>
		<g>
			<defs>
				<path id="SVGID_1_" d="M103.2,55.7C29.3,112.5,11.9,205.9,37,271c30.8,79.9,140.6,139.8,243.1,30.8
					c-61.7,18.5-120.2,20.1-180.3-42.7C36.8,193.2,53.6,106.7,103.2,55.7"/>
			</defs>
			<linearGradient id="SVGID_2_" gradientUnits="userSpaceOnUse" x1="26.2254" y1="208.4057" x2="280.1468" y2="208.4057">
				<stop  offset="0" style="stop-color:#C0D035"/>
				<stop  offset="1" style="stop-color:#0F4C31"/>
			</linearGradient>
			<use xlink:href="#SVGID_1_"  style="overflow:visible;fill:url(#SVGID_2_);"/>
			<clipPath id="SVGID_3_">
				<use xlink:href="#SVGID_1_"  style="overflow:visible;"/>
			</clipPath>
		</g>
		<g>
			<defs>
				<path id="SVGID_4_" d="M37,271c40.5,130.2,209.5,174.9,287.9,81.7c49.1-58.3,23.9-126.8-7.7-165c1.6,41.4-11.3,87.9-39.3,116.3
					C178.6,405.1,73.2,354.2,37,271"/>
			</defs>
			<linearGradient id="SVGID_5_" gradientUnits="userSpaceOnUse" x1="37.0052" y1="294.963" x2="352.4856" y2="294.963">
				<stop  offset="0" style="stop-color:#2E2E76"/>
				<stop  offset="1" style="stop-color:#BC2685"/>
			</linearGradient>
			<use xlink:href="#SVGID_4_"  style="overflow:visible;fill:url(#SVGID_5_);"/>
			<clipPath id="SVGID_6_">
				<use xlink:href="#SVGID_4_"  style="overflow:visible;"/>
			</clipPath>
		</g>
		<g>
			<defs>
				<path id="SVGID_7_" d="M344,61.8c-18.9-12.9-92.9-75.2-210-25.4c-91.7,38.9-120.2,202.6,25,265.5c-34.2-37-57.8-149.6-7.9-211.8
					C203,25.1,288.5,25.1,344,61.8"/>
			</defs>
			<linearGradient id="SVGID_8_" gradientUnits="userSpaceOnUse" x1="57.568" y1="159.6052" x2="343.9579" y2="159.6052">
				<stop  offset="5.099863e-08" style="stop-color:#F6E83B"/>
				<stop  offset="1" style="stop-color:#F3970D"/>
			</linearGradient>
			<use xlink:href="#SVGID_7_"  style="overflow:visible;fill:url(#SVGID_8_);"/>
			<clipPath id="SVGID_9_">
				<use xlink:href="#SVGID_7_"  style="overflow:visible;"/>
			</clipPath>
		</g>
		<g>
			<defs>
				<path id="SVGID_10_" d="M395.8,289c20.6-40.9,36.7-148.7-51-226.6c-83.9-59.2-230-15.7-222.5,125.8
					c16.4-29.8,73.1-67.9,120.9-77.8C372.6,83.6,418.3,197.1,395.8,289"/>
			</defs>
			<linearGradient id="SVGID_11_" gradientUnits="userSpaceOnUse" x1="121.9358" y1="162.8886" x2="412.0135" y2="162.8886">
				<stop  offset="0" style="stop-color:#F7B420"/>
				<stop  offset="1" style="stop-color:#DC1919"/>
			</linearGradient>
			<use xlink:href="#SVGID_10_"  style="overflow:visible;fill:url(#SVGID_11_);"/>
			<clipPath id="SVGID_12_">
				<use xlink:href="#SVGID_10_"  style="overflow:visible;"/>
			</clipPath>
		</g>
		<g>
			<defs>
				<path id="SVGID_13_" d="M210.1,402.5c93.3,4.6,171.1-58.3,185.7-113.5c23.5-88.8-22.9-226-177.2-171.4
					c44.6,17.5,83.2,51,103,78.2C382.2,279.3,335.2,403.2,210.1,402.5"/>
			</defs>
			<linearGradient id="SVGID_14_" gradientUnits="userSpaceOnUse" x1="234.8099" y1="111.7453" x2="330.6824" y2="375.1526">
				<stop  offset="0" style="stop-color:#E00819"/>
				<stop  offset="1" style="stop-color:#741618"/>
			</linearGradient>
			<use xlink:href="#SVGID_13_"  style="overflow:visible;fill:url(#SVGID_14_);"/>
			<clipPath id="SVGID_15_">
				<use xlink:href="#SVGID_13_"  style="overflow:visible;"/>
			</clipPath>
		</g>
	</g>
</g>
</svg>
