<svg id="Layer_1" data-name="Layer 1" xmlns="http://www.w3.org/2000/svg" viewBox="0 0 1000 260"><defs><style>.cls-1{fill:#000;}</style></defs><path class="cls-1" d="M279,188.91q-9.72-3.47-14-7.75l8.74-15.65c2.31,2.09,5.9,4.25,10.79,6.51a33.64,33.64,0,0,0,14.09,3.37c5.82,0,10.57-1.36,14.25-4.12a13.38,13.38,0,0,0,5.52-11.36,16.2,16.2,0,0,0-3-9.73,26.11,26.11,0,0,0-7.25-6.84q-4.28-2.72-12.19-6.67a127.68,127.68,0,0,1-12.85-6.92q-16-10.71-16-29.66,0-15.65,10.38-24t26.19-8.32q17,0,28.84,9.72l-8.73,15A25.72,25.72,0,0,0,315,86.83a31,31,0,0,0-12.11-2.39q-8.24,0-12.93,3.71t-4.7,10.95a15.1,15.1,0,0,0,3,9.15,28.61,28.61,0,0,0,7.5,7q4.53,3,12.28,7.25c4.94,2.75,8.74,4.92,11.37,6.51a42.24,42.24,0,0,1,7.41,5.69,33.93,33.93,0,0,1,7.75,10.21,28.7,28.7,0,0,1,3,13q0,11-5,18.78a31.31,31.31,0,0,1-13.84,11.7,48.37,48.37,0,0,1-20,4A58.29,58.29,0,0,1,279,188.91"/><path class="cls-1" d="M461.38,170.37a38.43,38.43,0,0,0,14.92-15.65q5.51-10.31,5.52-24.64,0-14.51-5.52-24.79a38.07,38.07,0,0,0-14.84-15.58,41.57,41.57,0,0,0-20.84-5.27,42.07,42.07,0,0,0-20.93,5.27,37.43,37.43,0,0,0-14.83,15.58q-5.43,10.29-5.43,24.79,0,14.34,5.6,24.64a38.76,38.76,0,0,0,15.07,15.65,42.49,42.49,0,0,0,41.28,0m-51.16,14.34a57.18,57.18,0,0,1-22.16-21.84q-8.24-14.18-8.24-33,0-19,8.24-33a56.74,56.74,0,0,1,22.16-21.67,64.75,64.75,0,0,1,60.8,0,56.83,56.83,0,0,1,22.17,21.67q8.24,14.09,8.23,33,0,18.78-8.23,33A57.27,57.27,0,0,1,471,184.71a64.15,64.15,0,0,1-60.8,0"/><path class="cls-1" d="M583.45,121l7.25-16.48H591l7.08,16.65,13,29.16H570.27Zm6.43-51.57-58,121.27h20.59L562.85,167h55.54l10.38,23.73H650L591.69,69.45Z"/><polygon class="cls-1" points="695.69 69.61 695.69 190.72 713.98 190.72 713.98 136.01 743.97 136.01 743.97 119.87 713.98 119.87 713.98 85.59 752.54 85.59 752.54 69.61 695.69 69.61"/><polygon class="cls-1" points="806.11 69.61 806.11 190.72 864.6 190.72 864.6 174.41 824.4 174.41 824.4 135.68 852.4 135.68 852.4 119.2 824.4 119.2 824.4 85.75 859.16 85.75 859.16 69.61 806.11 69.61"/><polygon class="cls-1" points="918.17 69.61 918.17 190.72 976.66 190.72 976.66 174.41 936.46 174.41 936.46 135.68 964.47 135.68 964.47 119.2 936.46 119.2 936.46 85.75 971.23 85.75 971.23 69.61 918.17 69.61"/><path class="cls-1" d="M166.21,157.43,121,130l84.8-51.42L114.56,23.26,23.33,78.58,108.13,130l-84.8,51.42,91.23,55.32,91.22-55.32-39.57-24ZM114.56,181,75.75,157.43l38.81-23.54,38.8,23.54ZM75.75,102.57,114.56,79l38.8,23.53-38.8,23.54Zm84-3.89-41.9-25.41V33.07l75,45.51ZM111.23,33.07v40.2L69.33,98.68,36.18,78.58ZM69.33,161.32l41.9,25.41v40.2L36.18,181.42Zm123.6,20.1-75,45.51v-40.2l41.9-25.41Z"/></svg>
