<svg width="404" height="341" viewBox="0 0 404 341" fill="none" xmlns="http://www.w3.org/2000/svg">
<path d="M206.822 200.898C207.109 193.481 210.825 186.556 216.958 182.209C220.158 179.937 222.969 177.976 223.43 177.754C224.476 177.258 225.721 176.785 226.807 176.301C229.547 175.091 232.245 173.783 234.952 172.484C240.026 170.042 244.454 168.468 249.892 166.906C255.98 165.159 262.242 163.682 268.419 162.278C280.858 159.453 295.325 147.499 287.475 151.216C272.701 158.222 251.673 162.278 252.279 159.332C255.22 154.231 261.725 146.838 261.074 144.025C249.734 153.121 253.104 158.432 227.959 167.306C222.012 169.404 215.77 170.978 209.771 171.2C209.771 149.78 244.539 149.408 267.474 121.462C278.01 108.605 310.641 106.361 295.79 106.648C264.015 107.265 277.99 118.516 285.565 64.5931L279.456 82.0106C277.541 86.1026 259.022 61.0499 268.181 75.138C271.869 80.812 279.949 82.1195 273.267 98.2335C259.992 130.248 211.282 147.556 207.807 146.555C202.996 145.167 202.543 123.625 217.528 101.248C223.123 89.206 239.501 75.0291 237.465 59.5366C234.269 70.1259 226.941 77.4302 224.739 81.4295C220.885 88.4231 220.885 85.6829 205.198 73.774L205.056 75.5335L214.106 83.8145C219.459 93.185 208.458 104.444 199.332 113.343C187.131 125.231 190.456 115.126 171.302 101.292C157.708 91.4699 150.848 81.1994 158.366 61.9216C157.607 61.2315 156.67 61.5907 155.349 64.0766L150.21 80.7031C144.287 75.6223 130.196 63.0637 132.66 54.3428C133.024 53.0555 114.594 53.0474 167.218 107.822C177.851 118.92 187.034 135.578 189.975 150.611C190.714 154.404 191.034 157.75 190.634 161.608C190.516 162.762 190.432 163.92 190.355 165.078C190.347 165.135 190.339 165.203 190.339 165.288C190.258 168.948 181.354 168.88 181.338 168.88C180.736 168.783 180.15 168.674 179.649 168.601C170.389 167.193 162.665 163.476 153.304 162.766C149.188 162.455 145.673 162.201 141.584 161.386C134.688 160.006 127.331 157.641 120.613 155.409C119.793 155.139 118.965 154.86 118.145 154.59C106.853 150.793 87.8045 153.924 96.2521 154.622C112.149 155.95 130.745 163.02 128.273 165.28C122.585 168.25 112.638 171.414 111.2 174.199C125.942 171.995 126.798 166.475 152.105 169.243C170.854 171.293 193.377 175.789 193.377 199.171C193.377 199.853 193.405 200.623 193.454 201.467L206.83 200.894L206.822 200.898Z" fill="#003F42"/>
<path d="M231.987 112.911L243.424 124.335C246.91 127.818 252.582 127.818 256.069 124.335L267.506 112.911C270.993 109.428 270.993 103.762 267.506 100.279L256.069 88.8547C252.582 85.372 246.91 85.372 243.424 88.8547L231.987 100.279C228.5 103.762 228.5 109.428 231.987 112.911ZM249.746 97.2688L259.083 106.595L249.746 115.921L240.41 106.595L249.746 97.2688Z" fill="#34A46B"/>
<path d="M235.493 164.097L227.187 172.395C224.654 174.925 224.654 179.041 227.187 181.567L235.493 189.864C238.026 192.395 242.147 192.395 244.676 189.864L252.982 181.567C255.515 179.037 255.515 174.921 252.982 172.395L244.676 164.097C242.143 161.567 238.022 161.567 235.493 164.097ZM246.87 176.983L240.087 183.759L233.304 176.983L240.087 170.207L246.87 176.983Z" fill="#36A46C"/>
<path d="M281.852 148.549L270.415 159.973C266.928 163.456 266.928 169.122 270.415 172.604L281.852 184.029C285.338 187.512 291.01 187.512 294.497 184.029L305.934 172.604C309.42 169.122 309.42 163.456 305.934 159.973L294.497 148.549C291.01 145.066 285.338 145.066 281.852 148.549ZM297.511 166.289L288.174 175.615L278.838 166.289L288.174 156.963L297.511 166.289Z" fill="#36A46C"/>
<path d="M285.298 70.9006L293.604 62.6035C296.137 60.0732 296.137 55.9569 293.604 53.4306L285.298 45.1336C282.765 42.6033 278.644 42.6033 276.115 45.1336L267.809 53.4306C265.276 55.9609 265.276 60.0772 267.809 62.6035L276.115 70.9006C278.648 73.4308 282.769 73.4308 285.298 70.9006ZM273.925 58.015L280.709 51.2393L287.492 58.015L280.709 64.7907L273.925 58.015Z" fill="#36A46C"/>
<path d="M133.472 62.7688L144.909 51.3442C148.396 47.8615 148.396 42.1956 144.909 38.7129L133.472 27.2883C129.986 23.8056 124.314 23.8056 120.827 27.2883L109.39 38.7129C105.904 42.1956 105.904 47.8615 109.39 51.3442L120.827 62.7688C124.314 66.2515 129.986 66.2515 133.472 62.7688ZM117.813 45.0245L127.15 35.6984L136.486 45.0245L127.15 54.3507L117.813 45.0245Z" fill="#36A46C"/>
<path d="M231.987 112.911L243.424 124.335C246.91 127.818 252.582 127.818 256.069 124.335L267.506 112.911C270.992 109.428 270.992 103.762 267.506 100.279L256.069 88.8547C252.582 85.372 246.91 85.372 243.424 88.8547L231.987 100.279C228.5 103.762 228.5 109.428 231.987 112.911ZM249.746 97.2688L259.083 106.595L249.746 115.921L240.41 106.595L249.746 97.2688Z" fill="url(#paint0_linear_1701_841)"/>
<path d="M235.493 164.097L227.187 172.395C224.654 174.925 224.654 179.041 227.187 181.567L235.493 189.864C238.026 192.395 242.147 192.395 244.676 189.864L252.982 181.567C255.515 179.037 255.515 174.921 252.982 172.395L244.676 164.097C242.143 161.567 238.022 161.567 235.493 164.097ZM246.87 176.983L240.087 183.759L233.304 176.983L240.087 170.207L246.87 176.983Z" fill="url(#paint1_linear_1701_841)"/>
<path d="M281.852 148.549L270.415 159.973C266.928 163.456 266.928 169.122 270.415 172.604L281.852 184.029C285.338 187.512 291.01 187.512 294.497 184.029L305.934 172.604C309.42 169.122 309.42 163.456 305.934 159.973L294.497 148.549C291.01 145.066 285.338 145.066 281.852 148.549ZM297.511 166.289L288.174 175.615L278.838 166.289L288.174 156.963L297.511 166.289Z" fill="url(#paint2_linear_1701_841)"/>
<path d="M285.298 70.9006L293.604 62.6035C296.137 60.0732 296.137 55.9569 293.604 53.4306L285.298 45.1336C282.765 42.6033 278.644 42.6033 276.115 45.1336L267.809 53.4306C265.276 55.9609 265.276 60.0772 267.809 62.6035L276.115 70.9006C278.648 73.4308 282.769 73.4308 285.298 70.9006ZM273.925 58.015L280.709 51.2393L287.492 58.015L280.709 64.7907L273.925 58.015Z" fill="url(#paint3_linear_1701_841)"/>
<path d="M133.472 62.7688L144.909 51.3442C148.396 47.8615 148.396 42.1956 144.909 38.7129L133.472 27.2883C129.986 23.8056 124.314 23.8056 120.827 27.2883L109.39 38.7129C105.904 42.1956 105.904 47.8615 109.39 51.3442L120.827 62.7688C124.314 66.2515 129.986 66.2515 133.472 62.7688ZM117.813 45.0245L127.15 35.6984L136.486 45.0245L127.15 54.3507L117.813 45.0245Z" fill="url(#paint4_linear_1701_841)"/>
<path d="M111.507 160.429L119.813 152.132C122.346 149.602 122.346 145.486 119.813 142.959L111.507 134.662C108.974 132.132 104.853 132.132 102.324 134.662L94.018 142.959C91.4849 145.49 91.4849 149.606 94.018 152.132L102.324 160.429C104.857 162.956 108.978 162.96 111.507 160.429ZM100.134 147.544L106.918 140.768L113.701 147.544L106.918 154.32L100.134 147.544Z" fill="url(#paint5_linear_1701_841)"/>
<path d="M203.561 79.9079L211.868 71.6108C214.401 69.0805 214.401 64.9642 211.868 62.438L203.561 54.1409C201.028 51.6106 196.908 51.6106 194.379 54.1409L186.073 62.438C183.539 64.9683 183.539 69.0845 186.073 71.6108L194.379 79.9079C196.912 82.4382 201.032 82.4382 203.561 79.9079ZM192.185 67.0224L198.968 60.2467L205.751 67.0224L198.968 73.798L192.185 67.0224Z" fill="url(#paint6_linear_1701_841)"/>
<path d="M243.767 63.5237L255.204 52.0991C258.691 48.6164 258.691 42.9505 255.204 39.4678L243.763 28.0432C240.277 24.5605 234.605 24.5605 231.118 28.0432L219.681 39.4678C216.194 42.9505 216.194 48.6164 219.681 52.0991L231.118 63.5237C234.605 67.0064 240.281 67.0064 243.767 63.5237ZM228.104 45.7834L237.441 36.4573L246.777 45.7834L237.441 55.1096L228.104 45.7834Z" fill="url(#paint7_linear_1701_841)"/>
<path d="M111.507 160.429L119.813 152.132C122.346 149.602 122.346 145.486 119.813 142.959L111.507 134.662C108.974 132.132 104.853 132.132 102.324 134.662L94.018 142.959C91.4849 145.49 91.4849 149.606 94.018 152.132L102.324 160.429C104.857 162.956 108.978 162.96 111.507 160.429ZM100.134 147.544L106.918 140.768L113.701 147.544L106.918 154.32L100.134 147.544Z" fill="#36A46C"/>
<path d="M203.561 79.9079L211.868 71.6108C214.401 69.0805 214.401 64.9642 211.868 62.438L203.561 54.1409C201.028 51.6106 196.908 51.6106 194.379 54.1409L186.072 62.438C183.539 64.9683 183.539 69.0845 186.072 71.6108L194.379 79.9079C196.912 82.4382 201.032 82.4382 203.561 79.9079ZM192.185 67.0224L198.968 60.2467L205.751 67.0224L198.968 73.798L192.185 67.0224Z" fill="#36A46C"/>
<path d="M243.767 63.5237L255.204 52.0991C258.691 48.6164 258.691 42.9505 255.204 39.4678L243.763 28.0432C240.277 24.5605 234.605 24.5605 231.118 28.0432L219.681 39.4678C216.194 42.9505 216.194 48.6164 219.681 52.0991L231.118 63.5237C234.605 67.0064 240.281 67.0064 243.767 63.5237ZM228.104 45.7834L237.441 36.4573L246.777 45.7834L237.441 55.1096L228.104 45.7834Z" fill="#36A46C"/>
<path opacity="0.35" d="M285.92 32.3128V21.2029C285.92 18.3256 283.589 15.9971 280.709 15.9971C277.828 15.9971 275.497 18.3296 275.497 21.2029V32.3128C275.497 35.1901 277.828 37.5187 280.709 37.5187C283.589 37.5187 285.92 35.1901 285.92 32.3128Z" fill="#6CCA6D"/>
<path opacity="0.35" d="M157.575 149.711V138.601C157.575 135.724 155.244 133.395 152.363 133.395C149.483 133.395 147.151 135.728 147.151 138.601V149.711C147.151 152.588 149.483 154.917 152.363 154.917C155.244 154.917 157.575 152.588 157.575 149.711Z" fill="#6CCA6D"/>
<path opacity="0.35" d="M332.921 85.4568V74.347C332.921 71.4696 330.59 69.1411 327.709 69.1411C324.829 69.1411 322.498 71.4737 322.498 74.347V85.4568C322.498 88.3342 324.829 90.6627 327.709 90.6627C330.59 90.6627 332.921 88.3342 332.921 85.4568Z" fill="#B8EA90"/>
<path opacity="0.35" d="M178.013 55.4324V44.3226C178.013 41.4452 175.682 39.1167 172.801 39.1167C169.921 39.1167 167.59 41.4492 167.59 44.3226V55.4324C167.59 58.3098 169.921 60.6383 172.801 60.6383C175.682 60.6383 178.013 58.3098 178.013 55.4324Z" fill="#E2F8CB"/>
<path opacity="0.35" d="M332.921 135.3V124.19C332.921 121.313 330.59 118.984 327.709 118.984C324.829 118.984 322.498 121.317 322.498 124.19V135.3C322.498 138.177 324.829 140.506 327.709 140.506C330.59 140.506 332.921 138.177 332.921 135.3Z" fill="#E2F8CB"/>
<path opacity="0.35" d="M81.2275 130.493V119.384C81.2275 116.506 78.8965 114.178 76.016 114.178C73.1355 114.178 70.8044 116.51 70.8044 119.384V130.493C70.8044 133.371 73.1355 135.699 76.016 135.699C78.8965 135.699 81.2275 133.371 81.2275 130.493Z" fill="#6CCA6D"/>
<path opacity="0.35" d="M81.2275 161.721V150.611C81.2275 147.733 78.8965 145.405 76.016 145.405C73.1355 145.405 70.8044 147.737 70.8044 150.611V161.721C70.8044 164.598 73.1355 166.926 76.016 166.926C78.8965 166.926 81.2275 164.598 81.2275 161.721Z" fill="#E2F8CB"/>
<path opacity="0.35" d="M138.938 99.2703V88.1605C138.938 85.2831 136.607 82.9546 133.727 82.9546C130.846 82.9546 128.515 85.2871 128.515 88.1605V99.2703C128.515 102.148 130.846 104.476 133.727 104.476C136.607 104.476 138.938 102.148 138.938 99.2703Z" fill="#6CCA6D"/>
<path opacity="0.35" d="M285.92 135.901V124.791C285.92 121.914 283.589 119.585 280.709 119.585C277.828 119.585 275.497 121.918 275.497 124.791V135.901C275.497 138.779 277.828 141.107 280.709 141.107C283.589 141.107 285.92 138.779 285.92 135.901Z" fill="#E2F8CB"/>
<path opacity="0.35" d="M327.709 152.338C324.829 152.338 322.498 154.67 322.498 157.544V163.097C322.498 165.974 324.833 168.303 327.709 168.303C330.59 168.303 332.921 165.97 332.921 163.097V157.544C332.921 154.67 330.59 152.338 327.709 152.338Z" fill="#6CCA6D"/>
<path opacity="0.35" d="M303.664 125.316C300.783 125.316 298.452 127.648 298.452 130.522V136.075C298.452 138.952 300.787 141.281 303.664 141.281C306.544 141.281 308.875 138.948 308.875 136.075V130.522C308.875 127.648 306.544 125.316 303.664 125.316Z" fill="#6CCA6D"/>
<path opacity="0.35" d="M237.214 0C234.334 0 232.003 2.33255 232.003 5.20586V10.7588C232.003 13.6361 234.338 15.9646 237.214 15.9646C240.095 15.9646 242.426 13.6321 242.426 10.7588V5.20586C242.43 2.33255 240.095 0 237.214 0Z" fill="#B8EA90"/>
<path opacity="0.35" d="M152.399 109.703C149.519 109.703 147.188 112.035 147.188 114.908V120.461C147.188 123.339 149.523 125.667 152.399 125.667C155.28 125.667 157.611 123.335 157.611 120.461V114.908C157.611 112.035 155.28 109.703 152.399 109.703Z" fill="#E3F8CB"/>
<path opacity="0.35" d="M198.685 21.8042C195.805 21.8042 193.474 24.1367 193.474 27.0101V32.563C193.474 35.4403 195.809 37.7688 198.685 37.7688C201.566 37.7688 203.897 35.4363 203.897 32.563V27.0101C203.897 24.1367 201.566 21.8042 198.685 21.8042Z" fill="#6CCA6D"/>
<path opacity="0.35" d="M172.838 14.2251C169.957 14.2251 167.626 16.5576 167.626 19.431V24.9839C167.626 27.8612 169.961 30.1897 172.838 30.1897C175.718 30.1897 178.049 27.8572 178.049 24.9839V19.431C178.049 16.5576 175.718 14.2251 172.838 14.2251Z" fill="#6CCA6D"/>
<path opacity="0.35" d="M107.313 101.897C104.433 101.897 102.102 104.23 102.102 107.103V112.656C102.102 115.534 104.437 117.862 107.313 117.862C110.194 117.862 112.525 115.53 112.525 112.656V107.103C112.525 104.23 110.194 101.897 107.313 101.897Z" fill="#6CCA6D"/>
<path opacity="0.35" d="M303.062 73.6729C300.181 73.6729 297.85 76.0054 297.85 78.8787V84.4316C297.85 87.309 300.185 89.6375 303.062 89.6375C305.942 89.6375 308.273 87.3049 308.273 84.4316V78.8787C308.273 76.0054 305.942 73.6729 303.062 73.6729Z" fill="#6CCA6D"/>
<path opacity="0.35" d="M222.731 117.507C219.851 117.507 217.52 119.84 217.52 122.713V128.266C217.52 131.143 219.855 133.472 222.731 133.472C225.612 133.472 227.943 131.139 227.943 128.266V122.713C227.943 119.84 225.612 117.507 222.731 117.507Z" fill="#6CCA6D"/>
<path opacity="0.35" d="M107.313 73.0718C104.433 73.0718 102.102 75.4043 102.102 78.2776V83.8306C102.102 86.7079 104.437 89.0364 107.313 89.0364C110.194 89.0364 112.525 86.7039 112.525 83.8306V78.2776C112.525 75.4043 110.194 73.0718 107.313 73.0718Z" fill="#B8EA90"/>
<path d="M69.4429 196.447C61.4478 193.287 52.2892 190.958 44.2982 190.958C31.3097 190.958 20.4866 198.775 20.4866 209.59C20.4866 218.904 26.8132 224.062 46.6292 231.713C69.9438 240.361 80.2659 251.843 80.2659 267.811C80.2659 295.257 57.4523 304.571 34.6386 304.571C22.648 304.571 7.99508 300.745 0 295.423L3.99552 278.788C11.8209 283.945 25.6416 287.105 34.6346 287.105C55.1172 287.105 62.6113 278.122 62.6113 266.48C62.6113 256.5 50.7904 250.18 32.1379 243.36C10.1565 235.543 2.16542 223.566 2.16542 209.26C2.16542 185.474 23.9812 174.659 44.2982 174.659C54.9556 174.659 66.4452 177.819 74.105 180.978L69.4429 196.447Z" fill="#003E41"/>
<path d="M177.189 210.422C173.524 241.528 157.704 275.297 143.217 303.574C134.559 320.709 126.564 341 105.415 341C94.5917 341 84.2656 335.677 80.6013 332.017L89.9255 318.707C95.0886 323.034 98.4175 324.862 105.912 324.862C116.735 324.862 120.399 313.054 125.728 303.57C111.24 275.293 92.091 241.524 88.4267 210.417H105.746C108.744 235.369 121.732 262.149 134.389 286.435C146.045 262.149 156.872 235.369 159.869 210.417H177.189V210.422Z" fill="#003E41"/>
<path d="M208.664 174.659V269.974C208.664 282.783 214.659 287.606 225.818 287.606C229.482 287.606 230.815 287.275 233.146 286.609V301.415C231.316 302.747 226.985 303.578 224.319 303.578C206.999 303.578 191.349 295.427 191.349 272.803V175.99L208.668 174.659H208.664Z" fill="#003E41"/>
<path d="M321.9 210.422C318.236 241.528 300.751 275.297 286.264 303.575H268.779C254.291 275.297 236.806 241.528 233.142 210.422H250.461C253.459 235.374 265.45 262.154 277.606 286.44C289.596 262.154 301.587 235.374 304.585 210.422H321.904H321.9Z" fill="#003E41"/>
<path d="M404 243.691V296.754C394.175 300.911 385.517 305.071 369.862 305.071C341.385 305.071 327.73 293.094 327.73 272.799C327.73 248.182 354.539 242.859 369.862 242.859C376.856 242.859 382.52 243.856 387.347 245.188C387.016 231.713 379.187 224.062 366.699 224.062C359.872 224.062 351.38 225.228 344.217 228.053L338.387 215.41C347.711 210.918 358.203 209.255 367.362 209.255C385.182 209.255 403.996 222.064 403.996 243.687M369.858 290.095C375.854 290.095 381.182 289.099 387.343 286.936V259.155C381.849 257.492 376.019 256.491 370.024 256.491C360.033 256.491 344.047 258.154 344.047 272.791C344.047 284.769 353.04 290.091 369.858 290.091" fill="#003E41"/>
<defs>
<linearGradient id="paint0_linear_1701_841" x1="249.746" y1="262.137" x2="249.746" y2="35.7872" gradientUnits="userSpaceOnUse">
<stop stop-color="#007864"/>
<stop offset="0.38" stop-color="#36A46C"/>
<stop offset="0.68" stop-color="#6CCA6D"/>
<stop offset="1" stop-color="#E2F8CB"/>
</linearGradient>
<linearGradient id="paint1_linear_1701_841" x1="240.083" y1="262.137" x2="240.083" y2="35.7871" gradientUnits="userSpaceOnUse">
<stop stop-color="#007864"/>
<stop offset="0.38" stop-color="#36A46C"/>
<stop offset="0.68" stop-color="#6CCA6D"/>
<stop offset="1" stop-color="#E2F8CB"/>
</linearGradient>
<linearGradient id="paint2_linear_1701_841" x1="288.174" y1="262.137" x2="288.174" y2="35.7872" gradientUnits="userSpaceOnUse">
<stop stop-color="#007864"/>
<stop offset="0.38" stop-color="#36A46C"/>
<stop offset="0.68" stop-color="#6CCA6D"/>
<stop offset="1" stop-color="#E2F8CB"/>
</linearGradient>
<linearGradient id="paint3_linear_1701_841" x1="280.709" y1="262.137" x2="280.709" y2="35.7872" gradientUnits="userSpaceOnUse">
<stop stop-color="#007864"/>
<stop offset="0.38" stop-color="#36A46C"/>
<stop offset="0.68" stop-color="#6CCA6D"/>
<stop offset="1" stop-color="#E2F8CB"/>
</linearGradient>
<linearGradient id="paint4_linear_1701_841" x1="127.15" y1="262.137" x2="127.15" y2="35.7871" gradientUnits="userSpaceOnUse">
<stop stop-color="#007864"/>
<stop offset="0.38" stop-color="#36A46C"/>
<stop offset="0.68" stop-color="#6CCA6D"/>
<stop offset="1" stop-color="#E2F8CB"/>
</linearGradient>
<linearGradient id="paint5_linear_1701_841" x1="106.914" y1="262.137" x2="106.914" y2="35.7873" gradientUnits="userSpaceOnUse">
<stop stop-color="#007864"/>
<stop offset="0.38" stop-color="#36A46C"/>
<stop offset="0.68" stop-color="#6CCA6D"/>
<stop offset="1" stop-color="#E2F8CB"/>
</linearGradient>
<linearGradient id="paint6_linear_1701_841" x1="198.972" y1="262.137" x2="198.972" y2="35.7872" gradientUnits="userSpaceOnUse">
<stop stop-color="#007864"/>
<stop offset="0.38" stop-color="#36A46C"/>
<stop offset="0.68" stop-color="#6CCA6D"/>
<stop offset="1" stop-color="#E2F8CB"/>
</linearGradient>
<linearGradient id="paint7_linear_1701_841" x1="237.445" y1="262.137" x2="237.445" y2="35.7874" gradientUnits="userSpaceOnUse">
<stop stop-color="#007864"/>
<stop offset="0.38" stop-color="#36A46C"/>
<stop offset="0.68" stop-color="#6CCA6D"/>
<stop offset="1" stop-color="#E2F8CB"/>
</linearGradient>
</defs>
</svg>
