<svg xmlns="http://www.w3.org/2000/svg" width="1597.424" height="503.919"><defs><clipPath id="a"><path data-name="Path 1384" d="M0 0h1597.424v503.919H0Z" fill="none"/></clipPath></defs><g clip-path="url(#a)" data-name="Group 250"><path data-name="Path 1347" d="M0 0h1597.424v503.919H0Z" fill="rgba(0,0,0,0)" fill-rule="evenodd"/><path data-name="Path 1348" d="M5.04 73.265A67.346 67.346 0 0 1 72.386 5.919h269.375a67.346 67.346 0 0 1 67.346 67.346v356.981a67.346 67.346 0 0 1-67.346 67.343H72.386A67.346 67.346 0 0 1 5.04 430.246Z" fill="#0081be" fill-rule="evenodd"/><path data-name="Path 1349" d="M85.252 72.095V49.043H95.47a13.473 13.473 0 0 1 4.664.62 5.016 5.016 0 0 1 2.561 2.211 6.463 6.463 0 0 1 .971 3.478 5.815 5.815 0 0 1-1.591 4.125 8.094 8.094 0 0 1-4.907 2.13 8.612 8.612 0 0 1 1.86 1.159 15.651 15.651 0 0 1 2.507 3.047l4.017 6.282h-3.827l-3.047-4.8q-1.348-2.076-2.211-3.154a6.473 6.473 0 0 0-1.564-1.537 4.073 4.073 0 0 0-1.375-.62 7.468 7.468 0 0 0-1.7-.135h-3.53v10.246Zm3.047-12.86h6.546a9.716 9.716 0 0 0 3.262-.431 3.646 3.646 0 0 0 2.426-3.451 3.44 3.44 0 0 0-1.186-2.7 5.6 5.6 0 0 0-3.775-1.051h-7.274Zm30.688 10.811a11.266 11.266 0 0 1-3.042 1.887 8.712 8.712 0 0 1-3.1.539 6.076 6.076 0 0 1-4.238-1.351 4.7 4.7 0 0 1-.917-5.662 4.54 4.54 0 0 1 1.455-1.614 7.119 7.119 0 0 1 2.049-.944 20.839 20.839 0 0 1 2.507-.431 25.65 25.65 0 0 0 5.042-.971q.027-.593.027-.728a3.172 3.172 0 0 0-.809-2.453 4.8 4.8 0 0 0-3.235-.944 4.95 4.95 0 0 0-2.939.7 4.3 4.3 0 0 0-1.4 2.453l-2.777-.377a6.739 6.739 0 0 1 1.235-2.829 5.406 5.406 0 0 1 2.512-1.7 11.093 11.093 0 0 1 3.775-.593 9.8 9.8 0 0 1 3.478.512 4.3 4.3 0 0 1 1.968 1.267 4.206 4.206 0 0 1 .89 1.914 16.82 16.82 0 0 1 .135 2.615v3.775a38.419 38.419 0 0 0 .189 4.988 6.959 6.959 0 0 0 .7 2h-2.939a5.559 5.559 0 0 1-.566-2.053Zm-.242-6.336a19.62 19.62 0 0 1-4.61 1.078 10.2 10.2 0 0 0-2.48.566 2.619 2.619 0 0 0-1.132.917 2.457 2.457 0 0 0-.378 1.35 2.4 2.4 0 0 0 .863 1.887 3.7 3.7 0 0 0 2.507.755 5.859 5.859 0 0 0 2.885-.7 4.426 4.426 0 0 0 1.887-1.968 6.856 6.856 0 0 0 .458-2.831Zm7.254 8.385V55.406h2.534v2.373a5.991 5.991 0 0 1 5.312-2.75 7.02 7.02 0 0 1 2.777.539 4.249 4.249 0 0 1 1.887 1.429 5.061 5.061 0 0 1 .89 2.076 15.7 15.7 0 0 1 .162 2.75v10.272h-2.831V61.931a7.018 7.018 0 0 0-.35-2.561 2.7 2.7 0 0 0-1.159-1.375 3.691 3.691 0 0 0-1.968-.512 4.586 4.586 0 0 0-3.127 1.159q-1.294 1.132-1.294 4.341v9.113Zm28.8-6.12 2.777.377a7.268 7.268 0 0 1-2.346 4.5 6.776 6.776 0 0 1-4.61 1.618 7.146 7.146 0 0 1-5.5-2.238 9.1 9.1 0 0 1-2.076-6.417 11.7 11.7 0 0 1 .89-4.745 6.132 6.132 0 0 1 2.723-3.02 8.044 8.044 0 0 1 3.99-1.025 6.919 6.919 0 0 1 4.449 1.375 6.307 6.307 0 0 1 2.211 3.909l-2.75.4a4.549 4.549 0 0 0-1.4-2.507 3.544 3.544 0 0 0-2.4-.863 4.413 4.413 0 0 0-3.478 1.537q-1.348 1.537-1.348 4.853 0 3.37 1.294 4.907a4.228 4.228 0 0 0 3.37 1.51 3.927 3.927 0 0 0 2.777-1.025 5.035 5.035 0 0 0 1.422-3.146Zm5.2 6.12V49.043h2.831v8.278a6.29 6.29 0 0 1 4.988-2.292 6.66 6.66 0 0 1 3.208.728 4.285 4.285 0 0 1 1.968 2.022 9.3 9.3 0 0 1 .593 3.748v10.568h-2.832V61.526a4.409 4.409 0 0 0-.917-3.1 3.424 3.424 0 0 0-2.615-.971 4.432 4.432 0 0 0-2.346.674 3.745 3.745 0 0 0-1.591 1.752 8.259 8.259 0 0 0-.458 3.074v9.14Zm29.335-5.365 2.912.35a7.272 7.272 0 0 1-2.561 3.99 8.751 8.751 0 0 1-10.6-.836 8.887 8.887 0 0 1-2.13-6.336 9.259 9.259 0 0 1 2.157-6.552 7.393 7.393 0 0 1 5.635-2.319 7.052 7.052 0 0 1 5.448 2.294 8.968 8.968 0 0 1 2.13 6.39v.755h-12.456a6.512 6.512 0 0 0 1.564 4.233 4.634 4.634 0 0 0 3.478 1.456 4.4 4.4 0 0 0 2.669-.809 5.545 5.545 0 0 0 1.752-2.616Zm-9.3-4.583h9.328a5.593 5.593 0 0 0-1.078-3.154 4.319 4.319 0 0 0-3.5-1.645 4.522 4.522 0 0 0-3.289 1.321 5.113 5.113 0 0 0-1.464 3.477Zm15.746 9.949v-16.69h2.534v2.535a7.017 7.017 0 0 1 1.779-2.346 3.2 3.2 0 0 1 1.833-.566 5.522 5.522 0 0 1 2.912.917l-.971 2.615a4.067 4.067 0 0 0-2.076-.62 2.648 2.648 0 0 0-1.672.566 3.152 3.152 0 0 0-1.051 1.537 10.79 10.79 0 0 0-.485 3.316v8.735Zm20.041 0V49.043h7.954a18.254 18.254 0 0 1 4.1.35 7.509 7.509 0 0 1 3.37 1.645 9.2 9.2 0 0 1 2.723 3.936 15.259 15.259 0 0 1 .917 5.473 16.1 16.1 0 0 1-.62 4.664 11.126 11.126 0 0 1-1.591 3.343 8.558 8.558 0 0 1-2.076 2.1 8.747 8.747 0 0 1-2.753 1.167 16.332 16.332 0 0 1-3.694.377Zm3.047-2.723h4.934a12.4 12.4 0 0 0 3.559-.4 5.207 5.207 0 0 0 2.076-1.213 7.148 7.148 0 0 0 1.672-2.912 13.978 13.978 0 0 0 .62-4.449 10.72 10.72 0 0 0-1.186-5.554 5.9 5.9 0 0 0-2.885-2.588 11.5 11.5 0 0 0-3.936-.485h-4.857Zm31.277-2.643 2.912.35a7.272 7.272 0 0 1-2.561 3.99 8.751 8.751 0 0 1-10.6-.836 8.887 8.887 0 0 1-2.13-6.336 9.259 9.259 0 0 1 2.157-6.552 7.393 7.393 0 0 1 5.635-2.319 7.053 7.053 0 0 1 5.446 2.292 8.968 8.968 0 0 1 2.13 6.39v.755h-12.451a6.512 6.512 0 0 0 1.564 4.233 4.634 4.634 0 0 0 3.478 1.456 4.4 4.4 0 0 0 2.669-.809 5.545 5.545 0 0 0 1.751-2.614Zm-9.3-4.584h9.328a5.593 5.593 0 0 0-1.078-3.154 4.319 4.319 0 0 0-3.5-1.645 4.522 4.522 0 0 0-3.289 1.321 5.112 5.112 0 0 0-1.461 3.478Zm14.641 4.961 2.8-.431a3.9 3.9 0 0 0 1.294 2.588 4.617 4.617 0 0 0 3.02.89 4.458 4.458 0 0 0 2.885-.782 2.425 2.425 0 0 0 .944-1.887 1.743 1.743 0 0 0-.836-1.51 11.641 11.641 0 0 0-2.885-.944 28.645 28.645 0 0 1-4.341-1.375 4.18 4.18 0 0 1-1.806-1.564 4.29 4.29 0 0 1-.62-2.265 4.226 4.226 0 0 1 .512-2.049 4.43 4.43 0 0 1 1.4-1.591 5.482 5.482 0 0 1 1.779-.809 8.434 8.434 0 0 1 2.453-.35 9.646 9.646 0 0 1 3.451.566 4.639 4.639 0 0 1 2.184 1.537 5.873 5.873 0 0 1 1 2.588l-2.777.377a3.028 3.028 0 0 0-1.098-2.021 3.906 3.906 0 0 0-2.534-.728 4.665 4.665 0 0 0-2.8.647 1.9 1.9 0 0 0-.809 1.51 1.694 1.694 0 0 0 .324 1 2.5 2.5 0 0 0 1.105.755q.4.162 2.48.728a32.945 32.945 0 0 1 4.206 1.294 4.258 4.258 0 0 1 1.86 1.483 4.154 4.154 0 0 1 .674 2.426 4.686 4.686 0 0 1-.836 2.669 5.352 5.352 0 0 1-2.373 1.941 8.841 8.841 0 0 1-3.532.674 7.914 7.914 0 0 1-4.965-1.353 6.244 6.244 0 0 1-2.159-4.014Zm17.228 4.988V49.043h2.831V62.2l6.713-6.794h3.64l-6.363 6.2 7.01 10.488h-3.478l-5.522-8.546-2 1.941v6.605Zm22.27-2.534.4 2.507a10.741 10.741 0 0 1-2.13.243 4.931 4.931 0 0 1-2.4-.485 2.772 2.772 0 0 1-1.186-1.267 10.1 10.1 0 0 1-.35-3.343V57.59h-2.073v-2.184h2.076v-4.125l2.8-1.7v5.824h2.858v2.184h-2.858v9.787a5.363 5.363 0 0 0 .135 1.537 1.347 1.347 0 0 0 .485.566 2.139 2.139 0 0 0 1 .189 9.594 9.594 0 0 0 1.243-.107Zm1.718-5.824q0-4.637 2.561-6.848a7.772 7.772 0 0 1 5.257-1.86 7.481 7.481 0 0 1 5.635 2.265 8.54 8.54 0 0 1 2.184 6.228 11.054 11.054 0 0 1-.971 5.069 6.885 6.885 0 0 1-2.831 2.858 8.1 8.1 0 0 1-4.017 1.025 7.506 7.506 0 0 1-5.662-2.238q-2.156-2.266-2.156-6.499Zm2.912 0a7.292 7.292 0 0 0 1.375 4.826 4.686 4.686 0 0 0 7.037 0 7.334 7.334 0 0 0 1.4-4.907 6.9 6.9 0 0 0-1.4-4.691 4.686 4.686 0 0 0-7.037 0 7.068 7.068 0 0 0-1.375 4.772Zm16.043 14.748V55.406h2.561v2.157a6.3 6.3 0 0 1 2.049-1.887 5.673 5.673 0 0 1 2.8-.647 6.481 6.481 0 0 1 3.748 1.105 6.6 6.6 0 0 1 2.48 3.1 12.013 12.013 0 0 1-.081 9 6.925 6.925 0 0 1-6.363 4.233 5.378 5.378 0 0 1-2.534-.593 5.445 5.445 0 0 1-1.833-1.51v8.115Zm2.561-14.64a7.379 7.379 0 0 0 1.295 4.776 4.031 4.031 0 0 0 3.154 1.537 4.107 4.107 0 0 0 3.235-1.591 7.64 7.64 0 0 0 1.348-4.961 7.337 7.337 0 0 0-1.321-4.772 3.907 3.907 0 0 0-3.127-1.591 4.1 4.1 0 0 0-3.208 1.7 7.568 7.568 0 0 0-1.376 4.902Z" fill="#fff"/><path data-name="Path 1350" d="M477.981 64.08a58.161 58.161 0 0 1 58.161-58.161H925.46a58.161 58.161 0 0 1 58.161 58.161v232.637a58.161 58.161 0 0 1-58.161 58.161H536.142a58.161 58.161 0 0 1-58.161-58.161Z" fill="rgba(0,0,0,0)" fill-rule="evenodd"/><path data-name="Path 1351" d="M477.981 64.08a58.161 58.161 0 0 1 58.161-58.161H925.46a58.161 58.161 0 0 1 58.161 58.161v232.637a58.161 58.161 0 0 1-58.161 58.161H536.142a58.161 58.161 0 0 1-58.161-58.161Z" fill="none" stroke="#000" stroke-linejoin="round" stroke-miterlimit="10" stroke-dasharray="4 3"/><path data-name="Path 1352" d="M892.642 315.274v-23.052h4.583l5.446 16.311q.755 2.292 1.105 3.424.4-1.267 1.213-3.694l5.527-16.042h4.1v23.052h-2.939v-19.277l-6.686 19.277h-2.75l-6.659-19.628v19.628Zm37.438-2.049a11.266 11.266 0 0 1-3.047 1.887 8.711 8.711 0 0 1-3.1.539 6.076 6.076 0 0 1-4.233-1.348 4.7 4.7 0 0 1-.917-5.662 4.54 4.54 0 0 1 1.456-1.618 7.12 7.12 0 0 1 2.049-.944 20.836 20.836 0 0 1 2.507-.431 25.649 25.649 0 0 0 5.042-.971q.027-.593.027-.728a3.172 3.172 0 0 0-.809-2.453 4.8 4.8 0 0 0-3.235-.944 4.95 4.95 0 0 0-2.939.7 4.3 4.3 0 0 0-1.4 2.453l-2.777-.377a6.738 6.738 0 0 1 1.24-2.831 5.406 5.406 0 0 1 2.507-1.7 11.093 11.093 0 0 1 3.775-.593 9.8 9.8 0 0 1 3.478.512 4.3 4.3 0 0 1 1.968 1.267 4.205 4.205 0 0 1 .89 1.914 16.821 16.821 0 0 1 .135 2.615v3.775a38.413 38.413 0 0 0 .189 4.988 6.959 6.959 0 0 0 .7 2h-2.939a5.559 5.559 0 0 1-.566-2.05Zm-.243-6.336a19.62 19.62 0 0 1-4.61 1.078 10.2 10.2 0 0 0-2.48.566 2.619 2.619 0 0 0-1.132.917 2.457 2.457 0 0 0-.377 1.348 2.4 2.4 0 0 0 .863 1.887 3.7 3.7 0 0 0 2.507.755 5.859 5.859 0 0 0 2.885-.7 4.425 4.425 0 0 0 1.887-1.968 6.856 6.856 0 0 0 .458-2.831Zm18.146 2.265 2.777.377a7.268 7.268 0 0 1-2.346 4.5 6.776 6.776 0 0 1-4.61 1.618 7.146 7.146 0 0 1-5.5-2.238 9.1 9.1 0 0 1-2.076-6.417 11.7 11.7 0 0 1 .89-4.745 6.133 6.133 0 0 1 2.723-3.02 8.044 8.044 0 0 1 3.99-1.025 6.919 6.919 0 0 1 4.448 1.375 6.306 6.306 0 0 1 2.211 3.909l-2.75.4a4.548 4.548 0 0 0-1.4-2.507 3.544 3.544 0 0 0-2.4-.863 4.413 4.413 0 0 0-3.478 1.537q-1.348 1.537-1.348 4.853 0 3.37 1.294 4.907a4.229 4.229 0 0 0 3.37 1.51 3.927 3.927 0 0 0 2.777-1.025 5.035 5.035 0 0 0 1.429-3.147Z"/><path data-name="Path 1353" d="M498.806 64.315a39.882 39.882 0 0 1 39.882-39.882h385.985a39.882 39.882 0 0 1 39.882 39.882v159.524a39.882 39.882 0 0 1-39.882 39.882H538.688a39.882 39.882 0 0 1-39.882-39.882Z" fill-rule="evenodd"/><path data-name="Path 1354" d="M612.506 230.229v-19.762h2.615v17.417h9.733v2.346Zm15.166-16.984v-2.777h2.426v2.777Zm0 16.985v-14.317h2.426v14.316Zm6.134 0v-14.317h2.157v2a4.964 4.964 0 0 1 1.779-1.672 5.07 5.07 0 0 1 2.561-.647 4.671 4.671 0 0 1 2.615.674 3.4 3.4 0 0 1 1.429 1.833 5.14 5.14 0 0 1 4.422-2.507 4.3 4.3 0 0 1 3.262 1.186 4.929 4.929 0 0 1 1.159 3.613v9.841h-2.4v-9.032a6.27 6.27 0 0 0-.243-2.076 2 2 0 0 0-.863-1.025 2.605 2.605 0 0 0-1.456-.4 3.4 3.4 0 0 0-2.507 1 4.4 4.4 0 0 0-1 3.208v8.331h-2.427v-9.3a4.092 4.092 0 0 0-.593-2.426 2.246 2.246 0 0 0-1.941-.809 3.492 3.492 0 0 0-1.887.539 3.134 3.134 0 0 0-1.267 1.591 8.99 8.99 0 0 0-.378 2.966v7.441Zm32.327-1.785a9.215 9.215 0 0 1-2.588 1.645 7.64 7.64 0 0 1-2.669.458 5.206 5.206 0 0 1-3.64-1.159 4.032 4.032 0 0 1-.782-4.853 3.929 3.929 0 0 1 1.24-1.4 5.791 5.791 0 0 1 1.752-.809 16.764 16.764 0 0 1 2.157-.35 22.509 22.509 0 0 0 4.341-.836v-.647a2.665 2.665 0 0 0-.674-2.076 4.07 4.07 0 0 0-2.777-.836 4.246 4.246 0 0 0-2.534.62 3.583 3.583 0 0 0-1.186 2.1l-2.373-.324a6.038 6.038 0 0 1 1.051-2.453 4.606 4.606 0 0 1 2.157-1.429 9.4 9.4 0 0 1 3.235-.512 8.482 8.482 0 0 1 2.966.431 3.959 3.959 0 0 1 1.7 1.078 3.765 3.765 0 0 1 .755 1.645 12.313 12.313 0 0 1 .135 2.238v3.235a39.425 39.425 0 0 0 .135 4.287 5.689 5.689 0 0 0 .62 1.726h-2.534a5.166 5.166 0 0 1-.487-1.779Zm-.189-5.419a17.8 17.8 0 0 1-3.963.917 9.2 9.2 0 0 0-2.13.485 2.149 2.149 0 0 0-.971.809 2.154 2.154 0 0 0 .4 2.75 3.22 3.22 0 0 0 2.157.647 5.063 5.063 0 0 0 2.48-.593 3.782 3.782 0 0 0 1.618-1.7 5.633 5.633 0 0 0 .4-2.426Zm4.381 7.549 5.743-20.463h1.941l-5.716 20.463Zm24.791-2.48a14.964 14.964 0 0 0 3.343 1.833l-.755 1.833a15.156 15.156 0 0 1-4.26-2.427 9.654 9.654 0 0 1-4.853 1.24 9.341 9.341 0 0 1-4.853-1.294 8.864 8.864 0 0 1-3.37-3.667 11.543 11.543 0 0 1-1.186-5.284 11.819 11.819 0 0 1 1.186-5.311 8.284 8.284 0 0 1 3.37-3.64 9.691 9.691 0 0 1 4.907-1.267 9.492 9.492 0 0 1 4.934 1.294 8.3 8.3 0 0 1 3.343 3.64 11.767 11.767 0 0 1 1.159 5.284 12.186 12.186 0 0 1-.755 4.395 9.019 9.019 0 0 1-2.212 3.375Zm-5.77-3.343a10.071 10.071 0 0 1 3.748 1.887q2.292-2.1 2.292-6.309a10.02 10.02 0 0 0-.809-4.179 6.219 6.219 0 0 0-2.4-2.8 6.379 6.379 0 0 0-3.5-1 6.481 6.481 0 0 0-4.88 2.022q-1.914 2-1.914 5.958a8.437 8.437 0 0 0 1.914 5.931 6.385 6.385 0 0 0 4.88 2.049 6.852 6.852 0 0 0 2.642-.512 8.239 8.239 0 0 0-2.588-1.132Zm12.308 5.473v-19.758h14.289v2.319h-11.675v6.066h10.946v2.319h-10.946v6.713H716.4v2.346Zm18.28 0v-19.758h3.936l4.691 13.993q.647 1.941.944 2.912.324-1.078 1.052-3.154l4.718-13.75h3.532v19.762h-2.534v-16.555l-5.743 16.554h-2.346l-5.716-16.824v16.824Zm36.047-19.762h2.615v11.4a13.564 13.564 0 0 1-.674 4.745 5.814 5.814 0 0 1-2.427 2.858 8.54 8.54 0 0 1-4.61 1.105 9.46 9.46 0 0 1-4.556-.971 5.544 5.544 0 0 1-2.507-2.777 13.191 13.191 0 0 1-.755-4.961v-11.4h2.615v11.4a11.715 11.715 0 0 0 .458 3.8 3.741 3.741 0 0 0 1.645 1.887 5.889 5.889 0 0 0 2.858.647q2.885 0 4.1-1.294 1.24-1.321 1.24-5.042Zm18.98 25.586a24.318 24.318 0 0 1-3.428-5.928 18.791 18.791 0 0 1-1.375-7.064 18.11 18.11 0 0 1 1.052-6.147 26.127 26.127 0 0 1 3.748-6.794h1.725q-1.618 2.8-2.157 4.017a23.428 23.428 0 0 0-1.294 3.882 22.943 22.943 0 0 0-.566 5.069 24.5 24.5 0 0 0 4.017 12.968Zm4.745-5.824v-19.758h2.615v17.417h9.733v2.346Zm15.164-16.98v-2.777h2.427v2.777Zm0 16.985v-14.317h2.427v14.316Zm6.134 0v-14.317h2.184v2.022a5.134 5.134 0 0 1 4.556-2.346 6 6 0 0 1 2.373.458 3.7 3.7 0 0 1 1.618 1.213 4.687 4.687 0 0 1 .755 1.806 13.783 13.783 0 0 1 .135 2.346v8.816h-2.426v-8.708a6.2 6.2 0 0 0-.3-2.211 2.218 2.218 0 0 0-1-1.186 3.127 3.127 0 0 0-1.672-.431 3.943 3.943 0 0 0-2.7 1q-1.105.971-1.105 3.721v7.819Zm24.737 0v-2.1a5.252 5.252 0 0 1-4.556 2.426 5.836 5.836 0 0 1-2.373-.485 4 4 0 0 1-1.618-1.213 4.687 4.687 0 0 1-.755-1.806 13.666 13.666 0 0 1-.135-2.265v-8.87h2.429v7.927a15.4 15.4 0 0 0 .135 2.561 2.59 2.59 0 0 0 .971 1.51 3.072 3.072 0 0 0 1.833.539 4.06 4.06 0 0 0 2.049-.539 3.02 3.02 0 0 0 1.348-1.537 7.582 7.582 0 0 0 .4-2.8v-7.657h2.427v14.316Zm4.354 0 5.23-7.441-4.853-6.875h3.047l2.184 3.343q.62.971 1 1.618.593-.89 1.105-1.591l2.4-3.37h2.912l-4.961 6.74 5.338 7.576h-2.993l-2.939-4.449-.782-1.213-3.748 5.662Zm17.012 5.824h-1.753a24.382 24.382 0 0 0 4.044-12.968 23.126 23.126 0 0 0-1.86-8.924q-.539-1.213-2.184-4.044h1.753a26.127 26.127 0 0 1 3.748 6.794 18.707 18.707 0 0 1-.377 13.211 24.2 24.2 0 0 1-3.371 5.93Z" fill="#fff"/><path data-name="Path 1355" d="M514.025 53.93a10.163 10.163 0 0 1 10.163-10.163h414.987a10.163 10.163 0 0 1 10.163 10.163v40.651a10.163 10.163 0 0 1-10.163 10.163H524.186a10.163 10.163 0 0 1-10.161-10.163Z" fill="#326ce5" fill-rule="evenodd"/><path data-name="Path 1356" d="M611.461 86.196V63.144h3.074v11.432l11.431-11.431h4.128l-9.652 9.355 10.083 13.7h-4.017l-8.223-11.674-3.748 3.694v7.98Zm32.175 0v-2.453a6.085 6.085 0 0 1-5.284 2.831 6.851 6.851 0 0 1-2.777-.566 4.524 4.524 0 0 1-1.887-1.429 5.3 5.3 0 0 1-.863-2.1 12.98 12.98 0 0 1-.189-2.642v-10.33h2.831v9.248a15.3 15.3 0 0 0 .189 2.993 3.007 3.007 0 0 0 1.132 1.752 3.449 3.449 0 0 0 2.13.647 4.618 4.618 0 0 0 2.373-.647 3.7 3.7 0 0 0 1.591-1.779 9.053 9.053 0 0 0 .458-3.262v-8.952h2.831v16.689Zm9.572 0h-2.614V63.144h2.831v8.223a5.642 5.642 0 0 1 4.583-2.238 7 7 0 0 1 2.912.62 5.926 5.926 0 0 1 2.265 1.752 7.946 7.946 0 0 1 1.375 2.7 11.018 11.018 0 0 1 .512 3.4 9.52 9.52 0 0 1-2.13 6.632 6.6 6.6 0 0 1-5.1 2.346 5.335 5.335 0 0 1-4.637-2.48Zm-.027-8.466a8.549 8.549 0 0 0 .836 4.341 4.04 4.04 0 0 0 6.821.566 7.346 7.346 0 0 0 1.348-4.8 7.479 7.479 0 0 0-1.294-4.826 3.955 3.955 0 0 0-3.154-1.564 4.11 4.11 0 0 0-3.208 1.618 7.109 7.109 0 0 0-1.348 4.665Zm26.773 3.1 2.912.35a7.272 7.272 0 0 1-2.561 3.99 8.751 8.751 0 0 1-10.6-.836 8.887 8.887 0 0 1-2.13-6.336 9.259 9.259 0 0 1 2.157-6.552 7.393 7.393 0 0 1 5.635-2.319 7.053 7.053 0 0 1 5.446 2.292 8.968 8.968 0 0 1 2.13 6.39v.755h-12.449a6.512 6.512 0 0 0 1.564 4.233 4.634 4.634 0 0 0 3.478 1.456 4.4 4.4 0 0 0 2.669-.809 5.545 5.545 0 0 0 1.75-2.613Zm-9.3-4.583h9.328a5.593 5.593 0 0 0-1.078-3.156 4.319 4.319 0 0 0-3.5-1.645 4.522 4.522 0 0 0-3.289 1.321 5.112 5.112 0 0 0-1.461 3.48Zm15.746 9.949V69.507h2.534v2.534a7.017 7.017 0 0 1 1.78-2.35 3.2 3.2 0 0 1 1.833-.566 5.521 5.521 0 0 1 2.912.917l-.971 2.615a4.067 4.067 0 0 0-2.076-.62 2.648 2.648 0 0 0-1.672.566 3.152 3.152 0 0 0-1.052 1.537 10.791 10.791 0 0 0-.485 3.316v8.735Zm10.747 0V69.507h2.534v2.373a5.991 5.991 0 0 1 5.311-2.75 7.019 7.019 0 0 1 2.777.539 4.249 4.249 0 0 1 1.887 1.429 5.06 5.06 0 0 1 .89 2.076 15.7 15.7 0 0 1 .162 2.75v10.272h-2.831V76.032a7.018 7.018 0 0 0-.35-2.561 2.7 2.7 0 0 0-1.159-1.375 3.691 3.691 0 0 0-1.968-.512 4.586 4.586 0 0 0-3.127 1.159q-1.294 1.132-1.294 4.341v9.113Zm29.335-5.365 2.912.35a7.273 7.273 0 0 1-2.561 3.99 8.751 8.751 0 0 1-10.6-.836 8.887 8.887 0 0 1-2.13-6.336 9.259 9.259 0 0 1 2.157-6.552 7.393 7.393 0 0 1 5.635-2.319 7.053 7.053 0 0 1 5.446 2.292 8.968 8.968 0 0 1 2.13 6.39v.755h-12.453a6.512 6.512 0 0 0 1.564 4.233 4.634 4.634 0 0 0 3.478 1.456 4.4 4.4 0 0 0 2.669-.809 5.545 5.545 0 0 0 1.753-2.614Zm-9.3-4.583h9.328a5.593 5.593 0 0 0-1.078-3.154 4.319 4.319 0 0 0-3.5-1.645 4.522 4.522 0 0 0-3.289 1.321 5.113 5.113 0 0 0-1.463 3.477Zm21.947 7.414.4 2.507a10.741 10.741 0 0 1-2.13.243 4.931 4.931 0 0 1-2.4-.485 2.772 2.772 0 0 1-1.186-1.267 10.1 10.1 0 0 1-.35-3.343v-9.626h-2.069v-2.184h2.076v-4.125l2.8-1.7v5.824h2.858v2.185h-2.858v9.787a5.362 5.362 0 0 0 .135 1.537 1.347 1.347 0 0 0 .485.566 2.139 2.139 0 0 0 1 .189 9.594 9.594 0 0 0 1.238-.108Zm14.2-2.831 2.912.35a7.273 7.273 0 0 1-2.561 3.99 8.751 8.751 0 0 1-10.6-.836 8.887 8.887 0 0 1-2.13-6.336 9.259 9.259 0 0 1 2.157-6.552 7.393 7.393 0 0 1 5.635-2.319 7.053 7.053 0 0 1 5.452 2.293 8.968 8.968 0 0 1 2.13 6.39v.755h-12.458a6.512 6.512 0 0 0 1.564 4.233 4.634 4.634 0 0 0 3.478 1.456 4.4 4.4 0 0 0 2.669-.809 5.545 5.545 0 0 0 1.752-2.615Zm-9.3-4.583h9.328a5.593 5.593 0 0 0-1.078-3.154 4.319 4.319 0 0 0-3.5-1.645 4.522 4.522 0 0 0-3.289 1.321 5.113 5.113 0 0 0-1.463 3.477Zm14.641 4.961 2.8-.431a3.9 3.9 0 0 0 1.294 2.588 4.617 4.617 0 0 0 3.02.89 4.458 4.458 0 0 0 2.885-.782 2.425 2.425 0 0 0 .944-1.887 1.743 1.743 0 0 0-.836-1.51 11.642 11.642 0 0 0-2.885-.944 28.644 28.644 0 0 1-4.341-1.375 4.18 4.18 0 0 1-1.806-1.564 4.29 4.29 0 0 1-.62-2.265 4.227 4.227 0 0 1 .512-2.049 4.43 4.43 0 0 1 1.4-1.591 5.481 5.481 0 0 1 1.779-.809 8.433 8.433 0 0 1 2.453-.35 9.646 9.646 0 0 1 3.451.566 4.639 4.639 0 0 1 2.184 1.537 5.873 5.873 0 0 1 1 2.588l-2.777.377a3.028 3.028 0 0 0-1.105-2.022 3.906 3.906 0 0 0-2.534-.728 4.665 4.665 0 0 0-2.8.647 1.9 1.9 0 0 0-.809 1.51 1.694 1.694 0 0 0 .324 1 2.5 2.5 0 0 0 1.105.755q.4.162 2.48.728a32.946 32.946 0 0 1 4.206 1.294 4.258 4.258 0 0 1 1.86 1.483 4.154 4.154 0 0 1 .674 2.426 4.686 4.686 0 0 1-.836 2.669 5.352 5.352 0 0 1-2.373 1.941 8.841 8.841 0 0 1-3.532.674 7.914 7.914 0 0 1-4.961-1.348 6.244 6.244 0 0 1-2.158-4.019Zm31.564 11.755a27.861 27.861 0 0 1-3.963-6.9 21.561 21.561 0 0 1-1.618-8.223 21.233 21.233 0 0 1 1.213-7.145 30.5 30.5 0 0 1 4.368-7.927h2.022q-1.887 3.262-2.507 4.664a26.787 26.787 0 0 0-1.51 4.529 26.333 26.333 0 0 0-.674 5.9 28.406 28.406 0 0 0 4.691 15.1Zm5.328-6.767V63.144h2.832v13.157l6.713-6.794h3.64l-6.363 6.2 7.01 10.488h-3.478l-5.527-8.547-2 1.941v6.605Zm15.314-6.093 2.831-.377a6.241 6.241 0 0 0 1.645 3.478 4.16 4.16 0 0 0 2.858 1.051 4.583 4.583 0 0 0 3.37-1.375 4.647 4.647 0 0 0 1.375-3.424 4.336 4.336 0 0 0-4.5-4.476 8.492 8.492 0 0 0-2 .3l.324-2.48q.27.027.458.027a5.739 5.739 0 0 0 3.235-.944 3.2 3.2 0 0 0 1.456-2.885 3.461 3.461 0 0 0-1.052-2.588 3.737 3.737 0 0 0-2.723-1.025 3.835 3.835 0 0 0-2.75 1.051 5.054 5.054 0 0 0-1.4 3.1l-2.831-.512a7.245 7.245 0 0 1 2.346-4.395 6.816 6.816 0 0 1 4.583-1.564 7.4 7.4 0 0 1 3.451.809 5.805 5.805 0 0 1 2.427 2.211 5.568 5.568 0 0 1 .863 2.966 4.883 4.883 0 0 1-.809 2.723 5.6 5.6 0 0 1-2.373 1.941 5.419 5.419 0 0 1 3.181 1.968 5.952 5.952 0 0 1 1.132 3.721 6.773 6.773 0 0 1-2.211 5.1 7.68 7.68 0 0 1-5.554 2.1 7.227 7.227 0 0 1-5.042-1.806 7.064 7.064 0 0 1-2.292-4.696Zm17.553 1.105 2.8-.431a3.9 3.9 0 0 0 1.294 2.588 4.617 4.617 0 0 0 3.02.89 4.458 4.458 0 0 0 2.885-.782 2.425 2.425 0 0 0 .944-1.887 1.743 1.743 0 0 0-.836-1.51 11.641 11.641 0 0 0-2.885-.944 28.645 28.645 0 0 1-4.341-1.375 4.18 4.18 0 0 1-1.806-1.564 4.29 4.29 0 0 1-.62-2.265 4.227 4.227 0 0 1 .512-2.049 4.43 4.43 0 0 1 1.4-1.591 5.482 5.482 0 0 1 1.779-.809 8.434 8.434 0 0 1 2.453-.35 9.646 9.646 0 0 1 3.451.566 4.64 4.64 0 0 1 2.184 1.537 5.873 5.873 0 0 1 1 2.588l-2.777.377a3.028 3.028 0 0 0-1.105-2.022 3.906 3.906 0 0 0-2.534-.728 4.665 4.665 0 0 0-2.8.647 1.9 1.9 0 0 0-.809 1.51 1.7 1.7 0 0 0 .323 1 2.5 2.5 0 0 0 1.105.755q.4.162 2.48.728a32.951 32.951 0 0 1 4.206 1.294 4.258 4.258 0 0 1 1.86 1.483 4.154 4.154 0 0 1 .674 2.426 4.686 4.686 0 0 1-.836 2.669 5.352 5.352 0 0 1-2.373 1.941 8.841 8.841 0 0 1-3.532.674 7.915 7.915 0 0 1-4.961-1.348 6.244 6.244 0 0 1-2.157-4.019Zm19.088 11.755h-2.049a28.291 28.291 0 0 0 4.718-15.1 25.631 25.631 0 0 0-.674-5.851 23.934 23.934 0 0 0-1.51-4.529 52.814 52.814 0 0 0-2.534-4.718h2.049a30.5 30.5 0 0 1 4.368 7.927 21.892 21.892 0 0 1-.431 15.368 28.379 28.379 0 0 1-3.939 6.902Z" fill="#fff"/><path data-name="Path 1357" d="M409.08 144.078h89.721" fill="rgba(0,0,0,0)" fill-rule="evenodd"/><path data-name="Path 1358" d="M409.08 144.078h58.667" fill="none" stroke="#000" stroke-linejoin="round" stroke-miterlimit="10" stroke-width="3"/><path data-name="Path 1359" d="m467.747 152.627 23.491-8.55-23.491-8.55Z" stroke="#000" stroke-miterlimit="10" stroke-width="3" fill-rule="evenodd"/><path data-name="Path 1360" d="M513.144 132.311a10.163 10.163 0 0 1 10.163-10.163h414.99a10.163 10.163 0 0 1 10.159 10.163v40.647a10.163 10.163 0 0 1-10.163 10.163H523.307a10.163 10.163 0 0 1-10.163-10.163Z" fill="#575757" fill-rule="evenodd"/><path data-name="Path 1361" d="m668.658 158.457 2.777.377a7.268 7.268 0 0 1-2.346 4.5 6.776 6.776 0 0 1-4.61 1.618 7.146 7.146 0 0 1-5.5-2.238 9.1 9.1 0 0 1-2.076-6.417 11.7 11.7 0 0 1 .89-4.745 6.132 6.132 0 0 1 2.723-3.02 8.044 8.044 0 0 1 3.99-1.025 6.919 6.919 0 0 1 4.449 1.375 6.307 6.307 0 0 1 2.211 3.909l-2.75.4a4.549 4.549 0 0 0-1.4-2.507 3.545 3.545 0 0 0-2.4-.863 4.414 4.414 0 0 0-3.478 1.537q-1.348 1.537-1.348 4.853 0 3.37 1.294 4.907a4.228 4.228 0 0 0 3.37 1.51 3.927 3.927 0 0 0 2.777-1.025 5.035 5.035 0 0 0 1.427-3.146Zm4.152-2.238q0-4.637 2.561-6.848a7.772 7.772 0 0 1 5.257-1.86 7.481 7.481 0 0 1 5.635 2.265 8.54 8.54 0 0 1 2.184 6.228 11.054 11.054 0 0 1-.971 5.069 6.885 6.885 0 0 1-2.831 2.858 8.1 8.1 0 0 1-4.017 1.025 7.506 7.506 0 0 1-5.662-2.238q-2.156-2.265-2.156-6.498Zm2.912 0a7.292 7.292 0 0 0 1.375 4.826 4.686 4.686 0 0 0 7.037 0 7.334 7.334 0 0 0 1.4-4.907 6.9 6.9 0 0 0-1.4-4.691 4.686 4.686 0 0 0-7.037 0 7.068 7.068 0 0 0-1.375 4.773Zm16.043 8.358v-16.688h2.535v2.373a5.991 5.991 0 0 1 5.311-2.75 7.02 7.02 0 0 1 2.777.539 4.249 4.249 0 0 1 1.887 1.429 5.06 5.06 0 0 1 .89 2.076 15.7 15.7 0 0 1 .162 2.75v10.272H702.5v-10.165a7.018 7.018 0 0 0-.351-2.561 2.7 2.7 0 0 0-1.159-1.375 3.691 3.691 0 0 0-1.968-.512 4.586 4.586 0 0 0-3.127 1.159q-1.295 1.132-1.295 4.341v9.113Zm24.077-2.534.4 2.507a10.74 10.74 0 0 1-2.13.243 4.931 4.931 0 0 1-2.4-.485 2.771 2.771 0 0 1-1.186-1.267 10.1 10.1 0 0 1-.351-3.343v-9.625H708.1v-2.184h2.076v-4.125l2.8-1.7v5.824h2.858v2.184h-2.858v9.787a5.361 5.361 0 0 0 .135 1.537 1.346 1.346 0 0 0 .485.566 2.139 2.139 0 0 0 1 .189 9.594 9.594 0 0 0 1.246-.108Zm13.662.485a11.266 11.266 0 0 1-3.047 1.887 8.712 8.712 0 0 1-3.1.539 6.076 6.076 0 0 1-4.233-1.348 4.7 4.7 0 0 1-.917-5.662 4.54 4.54 0 0 1 1.456-1.618 7.119 7.119 0 0 1 2.049-.944 20.836 20.836 0 0 1 2.507-.431 25.652 25.652 0 0 0 5.042-.971q.027-.593.027-.728a3.172 3.172 0 0 0-.809-2.453 4.8 4.8 0 0 0-3.235-.944 4.95 4.95 0 0 0-2.939.7 4.3 4.3 0 0 0-1.4 2.453l-2.777-.377a6.739 6.739 0 0 1 1.24-2.831 5.406 5.406 0 0 1 2.507-1.7 11.093 11.093 0 0 1 3.775-.593 9.8 9.8 0 0 1 3.478.512 4.3 4.3 0 0 1 1.968 1.267 4.205 4.205 0 0 1 .89 1.914 16.815 16.815 0 0 1 .135 2.615v3.775a38.424 38.424 0 0 0 .189 4.988 6.959 6.959 0 0 0 .7 2h-2.94a5.558 5.558 0 0 1-.57-2.049Zm-.243-6.336a19.621 19.621 0 0 1-4.61 1.078 10.2 10.2 0 0 0-2.48.566 2.618 2.618 0 0 0-1.132.917 2.456 2.456 0 0 0-.378 1.348 2.4 2.4 0 0 0 .863 1.887 3.7 3.7 0 0 0 2.507.755 5.859 5.859 0 0 0 2.885-.7 4.426 4.426 0 0 0 1.887-1.968 6.855 6.855 0 0 0 .458-2.831Zm7.254-11.4v-3.266h2.831v3.262Zm0 19.789v-16.692h2.831v16.689Zm7.152 0v-16.692h2.533v2.373a5.991 5.991 0 0 1 5.311-2.75 7.019 7.019 0 0 1 2.777.539 4.249 4.249 0 0 1 1.887 1.429 5.06 5.06 0 0 1 .89 2.076 15.7 15.7 0 0 1 .162 2.75v10.272H754.4v-10.165a7.018 7.018 0 0 0-.35-2.561 2.7 2.7 0 0 0-1.159-1.375 3.691 3.691 0 0 0-1.968-.512 4.586 4.586 0 0 0-3.127 1.159q-1.296 1.132-1.296 4.341v9.113ZM773 159.212l2.912.35a7.273 7.273 0 0 1-2.561 3.99 8.751 8.751 0 0 1-10.6-.836 8.887 8.887 0 0 1-2.13-6.336 9.259 9.259 0 0 1 2.157-6.552 7.393 7.393 0 0 1 5.635-2.319 7.053 7.053 0 0 1 5.446 2.292 8.968 8.968 0 0 1 2.13 6.39v.755h-12.451a6.512 6.512 0 0 0 1.564 4.233 4.634 4.634 0 0 0 3.478 1.456 4.4 4.4 0 0 0 2.669-.809 5.545 5.545 0 0 0 1.751-2.614Zm-9.3-4.583h9.328a5.593 5.593 0 0 0-1.078-3.154 4.319 4.319 0 0 0-3.5-1.645 4.522 4.522 0 0 0-3.289 1.321 5.113 5.113 0 0 0-1.461 3.478Zm15.746 9.949v-16.689h2.534v2.534a7.016 7.016 0 0 1 1.779-2.346 3.2 3.2 0 0 1 1.833-.566 5.522 5.522 0 0 1 2.912.917l-.971 2.615a4.067 4.067 0 0 0-2.076-.62 2.648 2.648 0 0 0-1.672.566 3.152 3.152 0 0 0-1.052 1.537 10.789 10.789 0 0 0-.485 3.316v8.735Zm21.558 0v-2.1a5.155 5.155 0 0 1-4.664 2.48 6.511 6.511 0 0 1-3.667-1.105 7.263 7.263 0 0 1-2.588-3.074 10.617 10.617 0 0 1-.917-4.529 11.757 11.757 0 0 1 .836-4.529 6.59 6.59 0 0 1 2.48-3.127 6.765 6.765 0 0 1 3.748-1.078 5.636 5.636 0 0 1 4.583 2.292v-8.282h2.831v23.052Zm-8.924-8.331a7.28 7.28 0 0 0 1.348 4.8 4.057 4.057 0 0 0 3.181 1.591 4.006 4.006 0 0 0 3.154-1.51 7.066 7.066 0 0 0 1.294-4.637q0-3.424-1.321-5.015a4.058 4.058 0 0 0-3.262-1.618 3.9 3.9 0 0 0-3.128 1.537 7.578 7.578 0 0 0-1.265 4.852Z" fill="#fff"/><path data-name="Path 1362" d="M1085.286 64.08a58.161 58.161 0 0 1 58.161-58.161h389.318a58.161 58.161 0 0 1 58.161 58.161v232.637a58.161 58.161 0 0 1-58.161 58.161h-389.318a58.161 58.161 0 0 1-58.161-58.161Z" fill="rgba(0,0,0,0)" fill-rule="evenodd"/><path data-name="Path 1363" d="M1085.286 64.08a58.161 58.161 0 0 1 58.161-58.161h389.318a58.161 58.161 0 0 1 58.161 58.161v232.637a58.161 58.161 0 0 1-58.161 58.161h-389.318a58.161 58.161 0 0 1-58.161-58.161Z" fill="none" stroke="#000" stroke-linejoin="round" stroke-miterlimit="10" stroke-dasharray="4 3"/><path data-name="Path 1364" d="m1434.269 315.274-6.093-23.052h3.127l3.5 15.125q.566 2.373.971 4.691.863-3.694 1.024-4.26l4.395-15.556h3.667l3.316 11.674a60.921 60.921 0 0 1 1.779 8.142q.458-2.184 1.159-4.988l3.613-14.829h3.074l-6.336 23.052h-2.939l-4.853-17.552q-.62-2.211-.728-2.7-.35 1.564-.674 2.7l-4.88 17.552Zm26.019-19.79v-3.262h2.831v3.262Zm0 19.789v-16.688h2.831v16.689Zm7.152 0v-16.688h2.534v2.373a5.991 5.991 0 0 1 5.311-2.75 7.019 7.019 0 0 1 2.777.539 4.248 4.248 0 0 1 1.887 1.429 5.062 5.062 0 0 1 .89 2.076 15.707 15.707 0 0 1 .162 2.75v10.272h-2.833v-10.165a7.018 7.018 0 0 0-.35-2.561 2.7 2.7 0 0 0-1.159-1.375 3.691 3.691 0 0 0-1.968-.512 4.587 4.587 0 0 0-3.128 1.159q-1.294 1.132-1.294 4.341v9.113Zm28.715 0v-2.1a5.155 5.155 0 0 1-4.664 2.48 6.511 6.511 0 0 1-3.667-1.105 7.262 7.262 0 0 1-2.588-3.074 10.615 10.615 0 0 1-.917-4.529 11.755 11.755 0 0 1 .836-4.529 6.59 6.59 0 0 1 2.48-3.127 6.765 6.765 0 0 1 3.748-1.078 5.636 5.636 0 0 1 4.583 2.292v-8.277h2.831v23.052Zm-8.924-8.331a7.28 7.28 0 0 0 1.348 4.8 4.057 4.057 0 0 0 3.181 1.591 4.006 4.006 0 0 0 3.154-1.51 7.067 7.067 0 0 0 1.294-4.637q0-3.424-1.321-5.015a4.058 4.058 0 0 0-3.262-1.618 3.9 3.9 0 0 0-3.128 1.537 7.578 7.578 0 0 0-1.269 4.853Zm14.965-.027q0-4.637 2.561-6.848a7.772 7.772 0 0 1 5.257-1.86 7.481 7.481 0 0 1 5.635 2.265 8.539 8.539 0 0 1 2.184 6.228 11.054 11.054 0 0 1-.971 5.069 6.885 6.885 0 0 1-2.831 2.858 8.1 8.1 0 0 1-4.017 1.025 7.506 7.506 0 0 1-5.662-2.238q-2.164-2.266-2.164-6.498Zm2.912 0a7.292 7.292 0 0 0 1.375 4.826 4.687 4.687 0 0 0 7.037 0 7.334 7.334 0 0 0 1.4-4.907 6.9 6.9 0 0 0-1.4-4.691 4.686 4.686 0 0 0-7.037 0 7.069 7.069 0 0 0-1.379 4.773Zm19.116 8.358-5.123-16.689h2.939l2.642 9.625 1 3.586q.081-.27.863-3.451l2.669-9.76h2.912l2.48 9.679.836 3.181.971-3.208 2.858-9.652h2.75l-5.23 16.689h-2.939l-2.642-10-.647-2.831-3.37 12.833Zm19.042-4.988 2.8-.431a3.9 3.9 0 0 0 1.294 2.588 4.617 4.617 0 0 0 3.02.89 4.458 4.458 0 0 0 2.885-.782 2.425 2.425 0 0 0 .944-1.887 1.743 1.743 0 0 0-.836-1.51 11.64 11.64 0 0 0-2.885-.944 28.642 28.642 0 0 1-4.341-1.375 4.181 4.181 0 0 1-1.806-1.564 4.291 4.291 0 0 1-.62-2.265 4.226 4.226 0 0 1 .512-2.049 4.43 4.43 0 0 1 1.4-1.591 5.483 5.483 0 0 1 1.779-.809 8.433 8.433 0 0 1 2.453-.35 9.647 9.647 0 0 1 3.451.566 4.639 4.639 0 0 1 2.184 1.537 5.873 5.873 0 0 1 1 2.588l-2.777.377a3.028 3.028 0 0 0-1.105-2.022 3.906 3.906 0 0 0-2.534-.728 4.664 4.664 0 0 0-2.8.647 1.9 1.9 0 0 0-.809 1.51 1.694 1.694 0 0 0 .323 1 2.5 2.5 0 0 0 1.105.755q.4.162 2.48.728a32.947 32.947 0 0 1 4.206 1.294 4.258 4.258 0 0 1 1.86 1.483 4.153 4.153 0 0 1 .674 2.426 4.686 4.686 0 0 1-.836 2.669 5.351 5.351 0 0 1-2.373 1.941 8.84 8.84 0 0 1-3.532.674 7.915 7.915 0 0 1-4.961-1.348 6.244 6.244 0 0 1-2.159-4.017Z"/><path data-name="Path 1365" d="M1106.11 64.315a39.882 39.882 0 0 1 39.882-39.882h385.981a39.882 39.882 0 0 1 39.882 39.882v159.524a39.882 39.882 0 0 1-39.882 39.882h-385.981a39.882 39.882 0 0 1-39.882-39.882Z" fill="#0081be" fill-rule="evenodd"/><path data-name="Path 1366" d="m1161.203 230.229-5.23-19.762h2.665l3.02 12.941q.485 2.049.836 4.044.755-3.154.89-3.64l3.748-13.346h3.154l2.831 10a50.379 50.379 0 0 1 1.537 6.983q.377-1.86 1-4.287l3.1-12.7h2.615l-5.419 19.762h-2.507l-4.179-15.071q-.512-1.887-.62-2.319-.3 1.375-.566 2.319l-4.206 15.071Zm22.31-16.985v-2.777h2.425v2.778Zm0 16.985v-14.316h2.425v14.316Zm6.134 0v-14.316h2.184v2.022a5.134 5.134 0 0 1 4.556-2.346 6 6 0 0 1 2.373.458 3.7 3.7 0 0 1 1.618 1.213 4.687 4.687 0 0 1 .755 1.806 13.783 13.783 0 0 1 .135 2.346v8.816h-2.43v-8.708a6.2 6.2 0 0 0-.3-2.211 2.219 2.219 0 0 0-1-1.186 3.127 3.127 0 0 0-1.672-.431 3.943 3.943 0 0 0-2.7 1q-1.105.971-1.105 3.721v7.819Zm24.629 0v-1.806a4.421 4.421 0 0 1-3.99 2.13 5.6 5.6 0 0 1-3.154-.944 6.353 6.353 0 0 1-2.238-2.642 9.188 9.188 0 0 1-.782-3.882 10.235 10.235 0 0 1 .7-3.882 5.629 5.629 0 0 1 2.157-2.669 5.693 5.693 0 0 1 3.208-.944 4.743 4.743 0 0 1 2.292.539 4.545 4.545 0 0 1 1.645 1.429v-7.091h2.424v19.762Zm-7.657-7.145a6.274 6.274 0 0 0 1.159 4.125 3.5 3.5 0 0 0 2.723 1.348 3.419 3.419 0 0 0 2.7-1.294 6.005 6.005 0 0 0 1.132-3.99 6.732 6.732 0 0 0-1.132-4.314 3.5 3.5 0 0 0-2.8-1.375 3.343 3.343 0 0 0-2.7 1.321 6.576 6.576 0 0 0-1.082 4.18Zm12.82-.027q0-3.963 2.211-5.878a6.694 6.694 0 0 1 4.5-1.591 6.384 6.384 0 0 1 4.826 1.941 7.276 7.276 0 0 1 1.887 5.338 9.412 9.412 0 0 1-.836 4.341 5.975 5.975 0 0 1-2.427 2.48 7.024 7.024 0 0 1-3.451.863 6.464 6.464 0 0 1-4.853-1.914 7.752 7.752 0 0 1-1.858-5.579Zm2.507 0a6.173 6.173 0 0 0 1.186 4.125 3.864 3.864 0 0 0 3.02 1.375 3.784 3.784 0 0 0 2.993-1.375 6.217 6.217 0 0 0 1.213-4.206 5.9 5.9 0 0 0-1.213-4.017 3.784 3.784 0 0 0-2.993-1.375 3.864 3.864 0 0 0-3.02 1.375 6.063 6.063 0 0 0-1.186 4.099Zm16.406 7.172-4.395-14.316h2.507l2.292 8.25.836 3.074q.054-.216.755-2.939l2.265-8.385h2.507l2.13 8.3.728 2.723.809-2.75 2.453-8.277h2.373l-4.474 14.32h-2.534l-2.265-8.574-.566-2.453-2.885 11.027Zm16.325-4.287 2.4-.377a3.384 3.384 0 0 0 1.105 2.238 4.034 4.034 0 0 0 2.588.755 3.82 3.82 0 0 0 2.48-.674 2.093 2.093 0 0 0 .809-1.618 1.5 1.5 0 0 0-.7-1.294 10.614 10.614 0 0 0-2.48-.809 24.2 24.2 0 0 1-3.721-1.159 3.784 3.784 0 0 1-1.564-1.375 3.679 3.679 0 0 1-.512-1.914 3.72 3.72 0 0 1 .431-1.779 3.881 3.881 0 0 1 1.186-1.348 4.532 4.532 0 0 1 1.537-.7 7.342 7.342 0 0 1 2.1-.3 8.272 8.272 0 0 1 2.966.485 3.915 3.915 0 0 1 1.86 1.321 5 5 0 0 1 .863 2.211l-2.373.324a2.584 2.584 0 0 0-.944-1.725 3.432 3.432 0 0 0-2.184-.62 3.958 3.958 0 0 0-2.4.566 1.571 1.571 0 0 0-.7 1.267 1.359 1.359 0 0 0 .3.863 2.309 2.309 0 0 0 .917.647q.377.135 2.157.62a26.4 26.4 0 0 1 3.586 1.132 3.437 3.437 0 0 1 2.184 3.343 4.026 4.026 0 0 1-.728 2.292 4.616 4.616 0 0 1-2.049 1.645 7.232 7.232 0 0 1-2.993.593 6.722 6.722 0 0 1-4.26-1.159 5.416 5.416 0 0 1-1.861-3.448Zm21.852-2.076 2.48-.216a5.426 5.426 0 0 0 .809 2.453 4.564 4.564 0 0 0 1.995 1.537 7.729 7.729 0 0 0 3.02.566 7.4 7.4 0 0 0 2.642-.431 3.672 3.672 0 0 0 1.7-1.213 2.837 2.837 0 0 0 .566-1.7 2.509 2.509 0 0 0-.539-1.618 4.048 4.048 0 0 0-1.779-1.186q-.782-.3-3.5-.944a19.728 19.728 0 0 1-3.828-1.24 5.594 5.594 0 0 1-2.1-1.833 4.535 4.535 0 0 1-.7-2.48 5.026 5.026 0 0 1 .836-2.777 5.3 5.3 0 0 1 2.48-2 9.512 9.512 0 0 1 3.64-.674 9.653 9.653 0 0 1 3.882.728 5.473 5.473 0 0 1 2.561 2.076 5.987 5.987 0 0 1 1 3.1l-2.507.189a4.039 4.039 0 0 0-1.375-2.8 5.268 5.268 0 0 0-3.451-.971 5.529 5.529 0 0 0-3.451.863 2.606 2.606 0 0 0-1.078 2.1 2.292 2.292 0 0 0 .755 1.752 10.678 10.678 0 0 0 3.936 1.4 26.349 26.349 0 0 1 4.395 1.267 5.743 5.743 0 0 1 2.52 2.031 4.821 4.821 0 0 1 .836 2.8 5.33 5.33 0 0 1-.917 2.966 5.878 5.878 0 0 1-2.588 2.184 8.986 8.986 0 0 1-3.8.782 11.361 11.361 0 0 1-4.5-.782 6.62 6.62 0 0 1-2.858-2.373 6.69 6.69 0 0 1-1.082-3.556Zm28.39 6.363v-2.1a5.252 5.252 0 0 1-4.556 2.426 5.837 5.837 0 0 1-2.373-.485 4 4 0 0 1-1.618-1.213 4.688 4.688 0 0 1-.755-1.806 13.683 13.683 0 0 1-.135-2.265v-8.87h2.426v7.927a15.391 15.391 0 0 0 .135 2.561 2.589 2.589 0 0 0 .971 1.51 3.072 3.072 0 0 0 1.833.539 4.06 4.06 0 0 0 2.049-.539 3.02 3.02 0 0 0 1.348-1.537 7.582 7.582 0 0 0 .4-2.8v-7.657h2.427v14.316Zm8.21 0h-2.265v-19.762h2.426v7.037a4.826 4.826 0 0 1 3.936-1.914 5.81 5.81 0 0 1 2.48.539 4.844 4.844 0 0 1 1.941 1.483 7.067 7.067 0 0 1 1.213 2.346 9.412 9.412 0 0 1 .431 2.885 8.212 8.212 0 0 1-1.833 5.716 5.681 5.681 0 0 1-4.368 2 4.518 4.518 0 0 1-3.963-2.13Zm-.027-7.279a7.385 7.385 0 0 0 .7 3.721 3.467 3.467 0 0 0 5.85.512 6.34 6.34 0 0 0 1.159-4.125 6.248 6.248 0 0 0-1.132-4.125 3.344 3.344 0 0 0-2.669-1.348 3.5 3.5 0 0 0-2.75 1.375 6.038 6.038 0 0 0-1.159 3.985Zm12.173 2.993 2.4-.377a3.384 3.384 0 0 0 1.105 2.238 4.034 4.034 0 0 0 2.588.755 3.82 3.82 0 0 0 2.48-.674 2.093 2.093 0 0 0 .809-1.618 1.5 1.5 0 0 0-.7-1.294 10.616 10.616 0 0 0-2.48-.809 24.2 24.2 0 0 1-3.721-1.159 3.783 3.783 0 0 1-1.564-1.375 3.679 3.679 0 0 1-.512-1.914 3.721 3.721 0 0 1 .431-1.779 3.882 3.882 0 0 1 1.186-1.348 4.533 4.533 0 0 1 1.537-.7 7.342 7.342 0 0 1 2.1-.3 8.272 8.272 0 0 1 2.966.485 3.915 3.915 0 0 1 1.86 1.321 5 5 0 0 1 .863 2.211l-2.373.324a2.584 2.584 0 0 0-.944-1.725 3.432 3.432 0 0 0-2.184-.62 3.958 3.958 0 0 0-2.4.566 1.571 1.571 0 0 0-.7 1.267 1.359 1.359 0 0 0 .3.863 2.308 2.308 0 0 0 .917.647q.378.135 2.157.62a26.4 26.4 0 0 1 3.586 1.132 3.437 3.437 0 0 1 2.184 3.343 4.025 4.025 0 0 1-.728 2.292 4.615 4.615 0 0 1-2.049 1.645 7.231 7.231 0 0 1-2.993.593 6.722 6.722 0 0 1-4.26-1.159 5.417 5.417 0 0 1-1.862-3.449Zm14.667 9.814-.27-2.292a5.258 5.258 0 0 0 1.375.216 2.664 2.664 0 0 0 1.294-.27 2.316 2.316 0 0 0 .809-.755 12.588 12.588 0 0 0 .728-1.806q.081-.189.216-.593l-5.419-14.343h2.615l2.966 8.277q.593 1.591 1.051 3.316a28.549 28.549 0 0 1 1-3.262l3.047-8.331h2.427l-5.446 14.559a27.353 27.353 0 0 1-1.348 3.262 4.88 4.88 0 0 1-1.483 1.752 3.472 3.472 0 0 1-2 .566 4.861 4.861 0 0 1-1.566-.297Zm12.941-9.814 2.4-.377a3.384 3.384 0 0 0 1.105 2.238 4.034 4.034 0 0 0 2.588.755 3.82 3.82 0 0 0 2.48-.674 2.093 2.093 0 0 0 .809-1.618 1.5 1.5 0 0 0-.7-1.294 10.616 10.616 0 0 0-2.48-.809 24.2 24.2 0 0 1-3.721-1.159 3.783 3.783 0 0 1-1.564-1.375 3.679 3.679 0 0 1-.512-1.914 3.721 3.721 0 0 1 .431-1.779 3.882 3.882 0 0 1 1.186-1.348 4.533 4.533 0 0 1 1.537-.7 7.342 7.342 0 0 1 2.1-.3 8.272 8.272 0 0 1 2.966.485 3.914 3.914 0 0 1 1.86 1.321 5 5 0 0 1 .863 2.211l-2.373.324a2.584 2.584 0 0 0-.944-1.725 3.432 3.432 0 0 0-2.184-.62 3.958 3.958 0 0 0-2.4.566 1.571 1.571 0 0 0-.7 1.267 1.359 1.359 0 0 0 .3.863 2.308 2.308 0 0 0 .917.647q.377.135 2.157.62a26.4 26.4 0 0 1 3.586 1.132 3.437 3.437 0 0 1 2.184 3.343 4.025 4.025 0 0 1-.728 2.292 4.615 4.615 0 0 1-2.049 1.645 7.232 7.232 0 0 1-2.993.593 6.722 6.722 0 0 1-4.26-1.159 5.417 5.417 0 0 1-1.862-3.449Zm20.059 2.1.35 2.157a9 9 0 0 1-1.833.216 4.267 4.267 0 0 1-2.049-.4 2.417 2.417 0 0 1-1.025-1.105 8.9 8.9 0 0 1-.3-2.885v-8.223h-1.779v-1.887h1.779v-3.559l2.426-1.456v5.015h2.427v1.887h-2.427v8.358a5.063 5.063 0 0 0 .108 1.348 1.118 1.118 0 0 0 .431.485 1.768 1.768 0 0 0 .836.162 6.682 6.682 0 0 0 1.052-.111Zm12.173-2.427 2.507.3a6.094 6.094 0 0 1-2.211 3.424 7.4 7.4 0 0 1-9.059-.728 7.581 7.581 0 0 1-1.833-5.419 7.911 7.911 0 0 1 1.86-5.608 6.3 6.3 0 0 1 4.826-2 6.043 6.043 0 0 1 4.664 1.968 7.661 7.661 0 0 1 1.833 5.473v.647h-10.676a5.621 5.621 0 0 0 1.321 3.64 4.021 4.021 0 0 0 2.993 1.24 3.735 3.735 0 0 0 2.292-.7 4.577 4.577 0 0 0 1.482-2.234Zm-7.953-3.936h7.98a4.776 4.776 0 0 0-.917-2.7 3.705 3.705 0 0 0-2.993-1.4 3.9 3.9 0 0 0-2.831 1.132 4.325 4.325 0 0 0-1.241 2.971Zm13.521 8.547v-14.314h2.155v2a4.964 4.964 0 0 1 1.779-1.672 5.069 5.069 0 0 1 2.561-.647 4.671 4.671 0 0 1 2.615.674 3.4 3.4 0 0 1 1.429 1.833 5.14 5.14 0 0 1 4.422-2.507 4.3 4.3 0 0 1 3.262 1.186 4.929 4.929 0 0 1 1.159 3.613v9.841h-2.4v-9.032a6.267 6.267 0 0 0-.243-2.076 2 2 0 0 0-.863-1.025 2.6 2.6 0 0 0-1.456-.4 3.4 3.4 0 0 0-2.507 1 4.4 4.4 0 0 0-1 3.208v8.331h-2.427v-9.3a4.092 4.092 0 0 0-.593-2.426 2.246 2.246 0 0 0-1.941-.809 3.493 3.493 0 0 0-1.887.539 3.134 3.134 0 0 0-1.267 1.591 8.993 8.993 0 0 0-.377 2.966v7.441Zm30.857 0v-19.76h2.615v17.417h9.733v2.346Zm15.164-16.982v-2.777h2.427v2.777Zm0 16.985v-14.317h2.427v14.316Zm6.134 0v-14.317h2.184v2.022a5.134 5.134 0 0 1 4.556-2.346 6 6 0 0 1 2.373.458 3.7 3.7 0 0 1 1.618 1.213 4.685 4.685 0 0 1 .755 1.806 13.779 13.779 0 0 1 .135 2.346v8.816h-2.427v-8.708a6.2 6.2 0 0 0-.3-2.211 2.219 2.219 0 0 0-1-1.186 3.127 3.127 0 0 0-1.672-.431 3.943 3.943 0 0 0-2.7 1q-1.105.971-1.105 3.721v7.819Zm24.737 0v-2.1a5.252 5.252 0 0 1-4.556 2.426 5.837 5.837 0 0 1-2.373-.485 4 4 0 0 1-1.618-1.213 4.688 4.688 0 0 1-.755-1.806 13.683 13.683 0 0 1-.135-2.265v-8.87h2.427v7.927a15.4 15.4 0 0 0 .135 2.561 2.589 2.589 0 0 0 .971 1.51 3.072 3.072 0 0 0 1.833.539 4.06 4.06 0 0 0 2.049-.539 3.02 3.02 0 0 0 1.348-1.537 7.585 7.585 0 0 0 .4-2.8v-7.657h2.426v14.316Zm4.354 0 5.23-7.441-4.853-6.875h3.047l2.184 3.343q.62.971 1 1.618.593-.89 1.105-1.591l2.4-3.37h2.912l-4.961 6.74 5.338 7.576h-2.993l-2.939-4.449-.782-1.213-3.748 5.662Zm27.055 0-5.446-14.316h2.561l3.074 8.574q.512 1.375.917 2.885.324-1.132.917-2.723l3.181-8.735h2.48l-5.419 14.316Zm21.919-2.346v2.346h-13.076a4.184 4.184 0 0 1 .3-1.7 8.662 8.662 0 0 1 1.591-2.615 25.459 25.459 0 0 1 3.181-2.993 27.307 27.307 0 0 0 4.341-4.179 5.1 5.1 0 0 0 1.132-2.939 3.259 3.259 0 0 0-1.025-2.426 3.7 3.7 0 0 0-2.7-1 3.79 3.79 0 0 0-2.8 1.051 3.936 3.936 0 0 0-1.052 2.912l-2.507-.243a6.175 6.175 0 0 1 1.941-4.26 6.575 6.575 0 0 1 4.476-1.456 6.2 6.2 0 0 1 4.5 1.591 5.1 5.1 0 0 1 1.672 3.882 6.027 6.027 0 0 1-.485 2.346 9.077 9.077 0 0 1-1.618 2.4 40.074 40.074 0 0 1-3.748 3.478 37.067 37.067 0 0 0-2.8 2.507 8.07 8.07 0 0 0-1.025 1.294Z" fill="#fff"/><path data-name="Path 1367" d="M1121.327 53.93a10.163 10.163 0 0 1 10.163-10.163h414.989a10.163 10.163 0 0 1 10.163 10.163v40.651a10.163 10.163 0 0 1-10.163 10.163H1131.49a10.163 10.163 0 0 1-10.163-10.163Z" fill="#326ce5" fill-rule="evenodd"/><path data-name="Path 1368" d="M1121.327 53.93a10.163 10.163 0 0 1 10.163-10.163h414.989a10.163 10.163 0 0 1 10.163 10.163v40.651a10.163 10.163 0 0 1-10.163 10.163H1131.49a10.163 10.163 0 0 1-10.163-10.163Z" fill="none" stroke="#15c" stroke-linejoin="round" stroke-miterlimit="10"/><path data-name="Path 1369" d="M1218.765 86.196V63.144h3.075v11.432l11.43-11.432h4.125l-9.655 9.356 10.083 13.7h-4.013l-8.223-11.674-3.747 3.69v7.98Zm32.175 0v-2.453a6.085 6.085 0 0 1-5.284 2.831 6.851 6.851 0 0 1-2.777-.566 4.526 4.526 0 0 1-1.887-1.429 5.3 5.3 0 0 1-.863-2.1 12.975 12.975 0 0 1-.189-2.642v-10.33h2.831v9.248a15.293 15.293 0 0 0 .189 2.993 3.007 3.007 0 0 0 1.132 1.752 3.449 3.449 0 0 0 2.13.647 4.618 4.618 0 0 0 2.373-.647 3.7 3.7 0 0 0 1.591-1.779 9.053 9.053 0 0 0 .458-3.262v-8.952h2.831v16.689Zm9.572 0h-2.615V63.144h2.831v8.223a5.642 5.642 0 0 1 4.583-2.238 7 7 0 0 1 2.912.62 5.926 5.926 0 0 1 2.265 1.752 7.945 7.945 0 0 1 1.375 2.7 11.016 11.016 0 0 1 .512 3.4 9.519 9.519 0 0 1-2.13 6.632 6.6 6.6 0 0 1-5.1 2.346 5.335 5.335 0 0 1-4.637-2.48Zm-.027-8.466a8.548 8.548 0 0 0 .836 4.341 4.04 4.04 0 0 0 6.821.566 7.346 7.346 0 0 0 1.348-4.8 7.479 7.479 0 0 0-1.294-4.826 3.955 3.955 0 0 0-3.155-1.564 4.11 4.11 0 0 0-3.208 1.618 7.109 7.109 0 0 0-1.347 4.665Zm26.774 3.1 2.912.35a7.272 7.272 0 0 1-2.561 3.99 8.751 8.751 0 0 1-10.6-.836 8.887 8.887 0 0 1-2.13-6.336 9.259 9.259 0 0 1 2.157-6.552 7.393 7.393 0 0 1 5.635-2.319 7.053 7.053 0 0 1 5.446 2.292 8.968 8.968 0 0 1 2.13 6.39v.755h-12.452a6.511 6.511 0 0 0 1.564 4.233 4.634 4.634 0 0 0 3.478 1.456 4.4 4.4 0 0 0 2.669-.809 5.546 5.546 0 0 0 1.752-2.613Zm-9.3-4.583h9.328a5.593 5.593 0 0 0-1.078-3.154 4.319 4.319 0 0 0-3.5-1.645 4.522 4.522 0 0 0-3.289 1.321 5.112 5.112 0 0 0-1.462 3.478Zm15.746 9.949V69.507h2.535v2.534a7.018 7.018 0 0 1 1.779-2.346 3.2 3.2 0 0 1 1.833-.566 5.522 5.522 0 0 1 2.912.917l-.971 2.615a4.067 4.067 0 0 0-2.076-.62 2.648 2.648 0 0 0-1.672.566 3.152 3.152 0 0 0-1.052 1.537 10.791 10.791 0 0 0-.485 3.316v8.735Zm10.747 0V69.507h2.534v2.373a5.991 5.991 0 0 1 5.311-2.75 7.02 7.02 0 0 1 2.777.539 4.248 4.248 0 0 1 1.887 1.429 5.06 5.06 0 0 1 .89 2.076 15.707 15.707 0 0 1 .162 2.75v10.272h-2.831V76.032a7.018 7.018 0 0 0-.35-2.561 2.7 2.7 0 0 0-1.159-1.375 3.691 3.691 0 0 0-1.968-.512 4.587 4.587 0 0 0-3.128 1.159q-1.294 1.132-1.294 4.341v9.113Zm29.335-5.365 2.912.35a7.272 7.272 0 0 1-2.561 3.99 8.751 8.751 0 0 1-10.6-.836 8.887 8.887 0 0 1-2.13-6.336 9.259 9.259 0 0 1 2.157-6.552 7.393 7.393 0 0 1 5.635-2.319 7.052 7.052 0 0 1 5.446 2.292 8.967 8.967 0 0 1 2.13 6.39v.755h-12.454a6.512 6.512 0 0 0 1.564 4.233 4.634 4.634 0 0 0 3.478 1.456 4.4 4.4 0 0 0 2.669-.809 5.546 5.546 0 0 0 1.753-2.614Zm-9.3-4.583h9.328a5.593 5.593 0 0 0-1.078-3.154 4.319 4.319 0 0 0-3.5-1.645 4.522 4.522 0 0 0-3.289 1.321 5.112 5.112 0 0 0-1.464 3.477Zm21.947 7.414.4 2.507a10.74 10.74 0 0 1-2.13.243 4.931 4.931 0 0 1-2.4-.485 2.772 2.772 0 0 1-1.186-1.267 10.1 10.1 0 0 1-.35-3.343v-9.626h-2.076v-2.184h2.076v-4.125l2.8-1.7v5.824h2.858v2.185h-2.858v9.787a5.365 5.365 0 0 0 .135 1.537 1.347 1.347 0 0 0 .485.566 2.139 2.139 0 0 0 1 .189 9.593 9.593 0 0 0 1.244-.108Zm14.2-2.831 2.912.35a7.272 7.272 0 0 1-2.561 3.99 8.751 8.751 0 0 1-10.6-.836 8.887 8.887 0 0 1-2.13-6.336 9.259 9.259 0 0 1 2.157-6.552 7.393 7.393 0 0 1 5.635-2.319 7.052 7.052 0 0 1 5.446 2.292 8.968 8.968 0 0 1 2.13 6.39v.755h-12.453a6.511 6.511 0 0 0 1.564 4.233 4.634 4.634 0 0 0 3.478 1.456 4.4 4.4 0 0 0 2.669-.809 5.545 5.545 0 0 0 1.752-2.614Zm-9.3-4.583h9.328a5.593 5.593 0 0 0-1.078-3.154 4.319 4.319 0 0 0-3.505-1.645 4.522 4.522 0 0 0-3.289 1.321 5.112 5.112 0 0 0-1.459 3.477Zm14.641 4.961 2.8-.431a3.9 3.9 0 0 0 1.294 2.588 4.617 4.617 0 0 0 3.02.89 4.458 4.458 0 0 0 2.885-.782 2.425 2.425 0 0 0 .944-1.887 1.742 1.742 0 0 0-.836-1.51 11.642 11.642 0 0 0-2.885-.944 28.645 28.645 0 0 1-4.341-1.375 4.181 4.181 0 0 1-1.806-1.564 4.291 4.291 0 0 1-.62-2.265 4.226 4.226 0 0 1 .512-2.049 4.43 4.43 0 0 1 1.4-1.591 5.482 5.482 0 0 1 1.779-.809 8.433 8.433 0 0 1 2.453-.35 9.647 9.647 0 0 1 3.451.566 4.639 4.639 0 0 1 2.184 1.537 5.873 5.873 0 0 1 1 2.588l-2.777.377a3.028 3.028 0 0 0-1.105-2.022 3.907 3.907 0 0 0-2.534-.728 4.665 4.665 0 0 0-2.8.647 1.9 1.9 0 0 0-.809 1.51 1.694 1.694 0 0 0 .324 1 2.5 2.5 0 0 0 1.105.755q.4.162 2.48.728a32.951 32.951 0 0 1 4.206 1.294 4.258 4.258 0 0 1 1.86 1.483 4.153 4.153 0 0 1 .674 2.426 4.686 4.686 0 0 1-.836 2.669 5.352 5.352 0 0 1-2.373 1.941 8.84 8.84 0 0 1-3.532.674 7.915 7.915 0 0 1-4.961-1.348 6.243 6.243 0 0 1-2.159-4.019Zm31.565 11.754a27.863 27.863 0 0 1-3.963-6.9 21.56 21.56 0 0 1-1.618-8.223 21.233 21.233 0 0 1 1.213-7.145 30.5 30.5 0 0 1 4.368-7.927h2.022q-1.887 3.262-2.507 4.664a26.792 26.792 0 0 0-1.51 4.529 26.333 26.333 0 0 0-.674 5.9 28.406 28.406 0 0 0 4.691 15.1Zm5.328-6.767V63.144h2.831v13.157l6.713-6.794h3.64l-6.363 6.2 7.01 10.488h-3.478l-5.527-8.547-2 1.941v6.605Zm15.314-6.093 2.831-.377a6.241 6.241 0 0 0 1.645 3.478 4.16 4.16 0 0 0 2.858 1.051 4.583 4.583 0 0 0 3.37-1.375 4.648 4.648 0 0 0 1.375-3.424 4.336 4.336 0 0 0-4.5-4.476 8.492 8.492 0 0 0-2 .3l.324-2.48q.27.027.458.027a5.739 5.739 0 0 0 3.235-.944 3.2 3.2 0 0 0 1.456-2.885 3.461 3.461 0 0 0-1.052-2.588 3.737 3.737 0 0 0-2.723-1.025 3.834 3.834 0 0 0-2.75 1.051 5.054 5.054 0 0 0-1.4 3.1l-2.831-.512a7.246 7.246 0 0 1 2.346-4.395 6.816 6.816 0 0 1 4.583-1.564 7.4 7.4 0 0 1 3.451.809 5.8 5.8 0 0 1 2.426 2.211 5.568 5.568 0 0 1 .863 2.966 4.884 4.884 0 0 1-.809 2.723 5.6 5.6 0 0 1-2.373 1.941 5.419 5.419 0 0 1 3.175 1.966 5.953 5.953 0 0 1 1.132 3.721 6.773 6.773 0 0 1-2.211 5.1 7.68 7.68 0 0 1-5.554 2.1 7.227 7.227 0 0 1-5.037-1.811 7.064 7.064 0 0 1-2.292-4.688Zm17.553 1.105 2.8-.431a3.9 3.9 0 0 0 1.294 2.588 4.617 4.617 0 0 0 3.02.89 4.458 4.458 0 0 0 2.885-.782 2.425 2.425 0 0 0 .944-1.887 1.743 1.743 0 0 0-.836-1.51 11.644 11.644 0 0 0-2.885-.944 28.645 28.645 0 0 1-4.341-1.375 4.18 4.18 0 0 1-1.806-1.564 4.291 4.291 0 0 1-.62-2.265 4.226 4.226 0 0 1 .512-2.049 4.43 4.43 0 0 1 1.4-1.591 5.48 5.48 0 0 1 1.779-.809 8.433 8.433 0 0 1 2.453-.35 9.647 9.647 0 0 1 3.451.566 4.639 4.639 0 0 1 2.184 1.537 5.874 5.874 0 0 1 1 2.588l-2.777.377a3.028 3.028 0 0 0-1.105-2.022 3.906 3.906 0 0 0-2.534-.728 4.665 4.665 0 0 0-2.8.647 1.9 1.9 0 0 0-.809 1.51 1.694 1.694 0 0 0 .324 1 2.5 2.5 0 0 0 1.105.755q.4.162 2.48.728a32.941 32.941 0 0 1 4.206 1.294 4.258 4.258 0 0 1 1.86 1.483 4.154 4.154 0 0 1 .674 2.426 4.686 4.686 0 0 1-.836 2.669 5.352 5.352 0 0 1-2.373 1.941 8.841 8.841 0 0 1-3.532.674 7.914 7.914 0 0 1-4.961-1.348 6.243 6.243 0 0 1-2.16-4.018Zm19.088 11.755h-2.053a28.291 28.291 0 0 0 4.718-15.1 25.624 25.624 0 0 0-.674-5.851 23.921 23.921 0 0 0-1.51-4.529 52.792 52.792 0 0 0-2.534-4.718h2.049a30.493 30.493 0 0 1 4.368 7.927 21.892 21.892 0 0 1-.431 15.368 28.377 28.377 0 0 1-3.937 6.903Z" fill="#fff"/><path data-name="Path 1370" d="M1120.447 132.311a10.163 10.163 0 0 1 10.163-10.163h414.991a10.163 10.163 0 0 1 10.163 10.163v40.647a10.163 10.163 0 0 1-10.163 10.163H1130.61a10.163 10.163 0 0 1-10.163-10.163Z" fill="#575757" fill-rule="evenodd"/><path data-name="Path 1371" d="m1275.962 158.457 2.777.377a7.268 7.268 0 0 1-2.346 4.5 6.776 6.776 0 0 1-4.61 1.618 7.146 7.146 0 0 1-5.5-2.238 9.1 9.1 0 0 1-2.076-6.417 11.7 11.7 0 0 1 .89-4.745 6.133 6.133 0 0 1 2.723-3.02 8.044 8.044 0 0 1 3.99-1.025 6.92 6.92 0 0 1 4.449 1.375 6.306 6.306 0 0 1 2.211 3.909l-2.75.4a4.548 4.548 0 0 0-1.4-2.507 3.544 3.544 0 0 0-2.4-.863 4.413 4.413 0 0 0-3.478 1.537q-1.348 1.537-1.348 4.853 0 3.37 1.294 4.907a4.229 4.229 0 0 0 3.37 1.51 3.927 3.927 0 0 0 2.777-1.025 5.035 5.035 0 0 0 1.427-3.146Zm4.152-2.238q0-4.637 2.561-6.848a7.772 7.772 0 0 1 5.257-1.86 7.481 7.481 0 0 1 5.635 2.265 8.539 8.539 0 0 1 2.184 6.228 11.054 11.054 0 0 1-.971 5.069 6.885 6.885 0 0 1-2.831 2.858 8.1 8.1 0 0 1-4.017 1.025 7.506 7.506 0 0 1-5.662-2.238q-2.156-2.265-2.156-6.498Zm2.912 0a7.291 7.291 0 0 0 1.375 4.826 4.686 4.686 0 0 0 7.037 0 7.334 7.334 0 0 0 1.4-4.907 6.9 6.9 0 0 0-1.4-4.691 4.686 4.686 0 0 0-7.037 0 7.068 7.068 0 0 0-1.375 4.773Zm16.043 8.358v-16.688h2.534v2.373a5.991 5.991 0 0 1 5.311-2.75 7.019 7.019 0 0 1 2.777.539 4.248 4.248 0 0 1 1.887 1.429 5.06 5.06 0 0 1 .89 2.076 15.692 15.692 0 0 1 .162 2.75v10.272h-2.831v-10.165a7.018 7.018 0 0 0-.35-2.561 2.7 2.7 0 0 0-1.159-1.375 3.691 3.691 0 0 0-1.968-.512 4.587 4.587 0 0 0-3.127 1.159q-1.294 1.132-1.294 4.341v9.113Zm24.077-2.534.4 2.507a10.74 10.74 0 0 1-2.13.243 4.931 4.931 0 0 1-2.4-.485 2.771 2.771 0 0 1-1.186-1.267 10.1 10.1 0 0 1-.35-3.343v-9.625h-2.076v-2.184h2.076v-4.125l2.8-1.7v5.824h2.866v2.184h-2.858v9.787a5.365 5.365 0 0 0 .135 1.537 1.346 1.346 0 0 0 .485.566 2.14 2.14 0 0 0 1 .189 9.6 9.6 0 0 0 1.238-.108Zm13.662.485a11.266 11.266 0 0 1-3.047 1.887 8.712 8.712 0 0 1-3.1.539 6.076 6.076 0 0 1-4.233-1.348 4.7 4.7 0 0 1-.917-5.662 4.541 4.541 0 0 1 1.456-1.618 7.12 7.12 0 0 1 2.049-.944 20.836 20.836 0 0 1 2.507-.431 25.652 25.652 0 0 0 5.042-.971q.027-.593.027-.728a3.172 3.172 0 0 0-.809-2.453 4.8 4.8 0 0 0-3.237-.942 4.95 4.95 0 0 0-2.939.7 4.3 4.3 0 0 0-1.4 2.453l-2.777-.377a6.738 6.738 0 0 1 1.24-2.831 5.405 5.405 0 0 1 2.507-1.7 11.093 11.093 0 0 1 3.775-.593 9.8 9.8 0 0 1 3.478.512 4.3 4.3 0 0 1 1.968 1.267 4.207 4.207 0 0 1 .89 1.914 16.826 16.826 0 0 1 .135 2.615v3.775a38.412 38.412 0 0 0 .189 4.988 6.959 6.959 0 0 0 .7 2h-2.939a5.559 5.559 0 0 1-.565-2.051Zm-.243-6.336a19.62 19.62 0 0 1-4.61 1.078 10.2 10.2 0 0 0-2.48.566 2.619 2.619 0 0 0-1.132.917 2.457 2.457 0 0 0-.377 1.348 2.4 2.4 0 0 0 .863 1.887 3.7 3.7 0 0 0 2.507.755 5.86 5.86 0 0 0 2.885-.7 4.427 4.427 0 0 0 1.887-1.968 6.856 6.856 0 0 0 .458-2.831Zm7.254-11.4v-3.266h2.827v3.262Zm0 19.789v-16.692h2.827v16.689Zm7.152 0v-16.692h2.534v2.373a5.991 5.991 0 0 1 5.311-2.75 7.02 7.02 0 0 1 2.777.539 4.249 4.249 0 0 1 1.887 1.429 5.062 5.062 0 0 1 .89 2.076 15.707 15.707 0 0 1 .162 2.75v10.272h-2.831v-10.165a7.018 7.018 0 0 0-.35-2.561 2.7 2.7 0 0 0-1.159-1.375 3.691 3.691 0 0 0-1.968-.512 4.587 4.587 0 0 0-3.128 1.159q-1.294 1.132-1.294 4.341v9.113Zm29.335-5.365 2.912.35a7.272 7.272 0 0 1-2.561 3.99 8.751 8.751 0 0 1-10.6-.836 8.887 8.887 0 0 1-2.13-6.336 9.259 9.259 0 0 1 2.157-6.552 7.393 7.393 0 0 1 5.635-2.319 7.052 7.052 0 0 1 5.446 2.292 8.967 8.967 0 0 1 2.13 6.39v.755h-12.449a6.512 6.512 0 0 0 1.564 4.233 4.634 4.634 0 0 0 3.478 1.456 4.4 4.4 0 0 0 2.669-.809 5.546 5.546 0 0 0 1.749-2.618Zm-9.3-4.583h9.328a5.593 5.593 0 0 0-1.078-3.154 4.319 4.319 0 0 0-3.5-1.645 4.522 4.522 0 0 0-3.289 1.321 5.112 5.112 0 0 0-1.463 3.474Zm15.746 9.949v-16.693h2.534v2.534a7.018 7.018 0 0 1 1.779-2.346 3.2 3.2 0 0 1 1.833-.566 5.522 5.522 0 0 1 2.912.917l-.971 2.615a4.068 4.068 0 0 0-2.076-.62 2.648 2.648 0 0 0-1.672.566 3.152 3.152 0 0 0-1.052 1.537 10.791 10.791 0 0 0-.485 3.316v8.735Zm21.558 0v-2.1a5.155 5.155 0 0 1-4.664 2.48 6.511 6.511 0 0 1-3.667-1.105 7.263 7.263 0 0 1-2.588-3.074 10.615 10.615 0 0 1-.917-4.529 11.755 11.755 0 0 1 .836-4.529 6.589 6.589 0 0 1 2.48-3.127 6.764 6.764 0 0 1 3.748-1.078 5.636 5.636 0 0 1 4.583 2.292v-8.286h2.831v23.052Zm-8.924-8.331a7.28 7.28 0 0 0 1.348 4.8 4.057 4.057 0 0 0 3.181 1.591 4.006 4.006 0 0 0 3.154-1.51 7.067 7.067 0 0 0 1.294-4.637q0-3.424-1.321-5.015a4.058 4.058 0 0 0-3.262-1.618 3.9 3.9 0 0 0-3.127 1.537 7.578 7.578 0 0 0-1.268 4.848Z" fill="#fff"/><path data-name="Path 1372" d="M406.887 423.309h611.029V144.078h88.193" fill="rgba(0,0,0,0)" fill-rule="evenodd"/><path data-name="Path 1373" d="M406.887 423.309h611.029V144.078h57.134" fill="none" stroke="#000" stroke-linejoin="round" stroke-miterlimit="10" stroke-width="3"/><path data-name="Path 1374" d="m1075.051 152.627 23.491-8.55-23.491-8.55Z" stroke="#000" stroke-miterlimit="10" stroke-width="3" fill-rule="evenodd"/><path data-name="Path 1375" d="M97.488 150.168a13.225 13.225 0 0 1 13.221-13.224h192.73a13.225 13.225 0 0 1 13.225 13.225v52.9a13.225 13.225 0 0 1-13.225 13.225h-192.73a13.225 13.225 0 0 1-13.221-13.229Z" fill="#ccc" fill-rule="evenodd"/><path data-name="Path 1376" d="M97.488 150.168a13.225 13.225 0 0 1 13.221-13.224h192.73a13.225 13.225 0 0 1 13.225 13.225v52.9a13.225 13.225 0 0 1-13.225 13.225h-192.73a13.225 13.225 0 0 1-13.221-13.229Z" fill="none" stroke="#000" stroke-linejoin="round" stroke-miterlimit="10"/><path data-name="Path 1377" d="M174.07 184.899v-11.917h1.833v1.7a4.236 4.236 0 0 1 3.775-1.968 5.189 5.189 0 0 1 2 .377 2.872 2.872 0 0 1 1.348 1.025 3.841 3.841 0 0 1 .647 1.483 12.124 12.124 0 0 1 .108 1.968v7.333h-2.022v-7.253a5.155 5.155 0 0 0-.243-1.833 1.913 1.913 0 0 0-.836-.971 2.555 2.555 0 0 0-1.4-.377 3.327 3.327 0 0 0-2.238.809q-.944.809-.944 3.1v6.525Zm20.959-3.828 2.076.243a5.1 5.1 0 0 1-1.833 2.858 6.2 6.2 0 0 1-7.549-.62 6.275 6.275 0 0 1-1.537-4.5 6.575 6.575 0 0 1 1.537-4.664 5.287 5.287 0 0 1 4.044-1.672 5.1 5.1 0 0 1 3.909 1.618 6.465 6.465 0 0 1 1.513 4.582v.539h-8.9a4.606 4.606 0 0 0 1.105 3.02 3.322 3.322 0 0 0 2.48 1.025 3.176 3.176 0 0 0 1.914-.566 3.94 3.94 0 0 0 1.241-1.863Zm-6.632-3.289h6.659a4.064 4.064 0 0 0-.755-2.238 3.091 3.091 0 0 0-2.507-1.186 3.184 3.184 0 0 0-2.346.944 3.67 3.67 0 0 0-1.051 2.48Zm11.227 7.118v-11.918h1.833v1.806a5.193 5.193 0 0 1 1.267-1.672 2.293 2.293 0 0 1 1.321-.4 3.944 3.944 0 0 1 2.076.647l-.7 1.86a2.977 2.977 0 0 0-1.483-.431 1.972 1.972 0 0 0-1.213.4 2.182 2.182 0 0 0-.728 1.105 7.55 7.55 0 0 0-.35 2.346v6.255Zm15.423 0v-1.51a3.711 3.711 0 0 1-3.343 1.779 4.738 4.738 0 0 1-2.615-.782 5.291 5.291 0 0 1-1.86-2.184 7.829 7.829 0 0 1-.647-3.262 8.5 8.5 0 0 1 .593-3.235 4.575 4.575 0 0 1 1.779-2.211 4.827 4.827 0 0 1 2.669-.782 3.916 3.916 0 0 1 1.914.458 3.628 3.628 0 0 1 1.375 1.159v-5.9h2.022v16.473Zm-6.39-5.958a5.155 5.155 0 0 0 .971 3.424 2.934 2.934 0 0 0 2.292 1.132 2.832 2.832 0 0 0 2.238-1.078 4.989 4.989 0 0 0 .917-3.289 5.559 5.559 0 0 0-.944-3.586 2.884 2.884 0 0 0-2.319-1.159 2.832 2.832 0 0 0-2.265 1.105 5.4 5.4 0 0 0-.89 3.45Zm19.234 1.591 2 .27a5.115 5.115 0 0 1-1.672 3.208 4.909 4.909 0 0 1-3.316 1.159 5.18 5.18 0 0 1-3.936-1.591 6.54 6.54 0 0 1-1.483-4.583 8.3 8.3 0 0 1 .647-3.4 4.391 4.391 0 0 1 1.941-2.157 5.827 5.827 0 0 1 2.858-.728 4.916 4.916 0 0 1 3.181 1 4.453 4.453 0 0 1 1.591 2.777l-1.968.3a3.232 3.232 0 0 0-1.025-1.806 2.474 2.474 0 0 0-1.7-.62 3.183 3.183 0 0 0-2.507 1.105 5.242 5.242 0 0 0-.944 3.451 5.387 5.387 0 0 0 .917 3.5 3.077 3.077 0 0 0 2.426 1.078 2.776 2.776 0 0 0 1.968-.728 3.581 3.581 0 0 0 1.02-2.236Zm8.129 2.561.3 1.779a7.282 7.282 0 0 1-1.537.189 3.532 3.532 0 0 1-1.726-.35 1.952 1.952 0 0 1-.836-.917 7.418 7.418 0 0 1-.243-2.4v-6.849h-1.489v-1.564h1.483v-2.966l2.022-1.213v4.179h2.022v1.564h-2.022v6.983a4.524 4.524 0 0 0 .081 1.105.944.944 0 0 0 .35.4 1.469 1.469 0 0 0 .7.135 6.221 6.221 0 0 0 .894-.076Zm1.941 1.806v-16.474h2.022v16.473Z"/><path data-name="Path 1378" d="M97.488 257.245a13.225 13.225 0 0 1 13.221-13.225h192.73a13.225 13.225 0 0 1 13.225 13.225v52.9a13.225 13.225 0 0 1-13.225 13.225h-192.73a13.225 13.225 0 0 1-13.221-13.229Z" fill="#ccc" fill-rule="evenodd"/><path data-name="Path 1379" d="M97.488 257.245a13.225 13.225 0 0 1 13.221-13.225h192.73a13.225 13.225 0 0 1 13.225 13.225v52.9a13.225 13.225 0 0 1-13.225 13.225h-192.73a13.225 13.225 0 0 1-13.221-13.229Z" fill="none" stroke="#000" stroke-linejoin="round" stroke-miterlimit="10"/><path data-name="Path 1380" d="M172.177 291.975v-16.473h2.022v9.409l4.772-4.853h2.615l-4.556 4.422 5.015 7.5h-2.48l-3.936-6.093-1.429 1.375v4.718Zm19.291 0v-1.752a4.371 4.371 0 0 1-3.775 2.022 4.821 4.821 0 0 1-1.968-.4 3.453 3.453 0 0 1-1.375-1 4.106 4.106 0 0 1-.62-1.51 11.712 11.712 0 0 1-.108-1.887v-7.387h2.022v6.605a13.312 13.312 0 0 0 .108 2.13 2.115 2.115 0 0 0 .809 1.267 2.626 2.626 0 0 0 1.537.431 3.4 3.4 0 0 0 1.7-.458 2.5 2.5 0 0 0 1.132-1.267 6.5 6.5 0 0 0 .324-2.319v-6.39h2.022v11.917Zm6.832 0h-1.86v-16.473h2.022v5.878a3.985 3.985 0 0 1 3.262-1.591 4.8 4.8 0 0 1 2.076.458 3.99 3.99 0 0 1 1.618 1.24 5.526 5.526 0 0 1 1 1.914 8.164 8.164 0 0 1 .35 2.426 6.837 6.837 0 0 1-1.51 4.745 4.733 4.733 0 0 1-3.64 1.672 3.825 3.825 0 0 1-3.316-1.752Zm0-6.039a6.247 6.247 0 0 0 .566 3.074 2.906 2.906 0 0 0 4.88.431 5.268 5.268 0 0 0 .971-3.451 5.193 5.193 0 0 0-.944-3.424 2.783 2.783 0 0 0-2.238-1.132 2.91 2.91 0 0 0-2.292 1.159 5.181 5.181 0 0 0-.944 3.344Zm19.1 2.211 2.076.243a5.1 5.1 0 0 1-1.833 2.858 6.2 6.2 0 0 1-7.549-.62 6.275 6.275 0 0 1-1.537-4.5 6.575 6.575 0 0 1 1.537-4.664 5.287 5.287 0 0 1 4.044-1.672 5.1 5.1 0 0 1 3.909 1.618 6.465 6.465 0 0 1 1.51 4.583v.539h-8.9a4.606 4.606 0 0 0 1.105 3.02 3.322 3.322 0 0 0 2.48 1.025 3.176 3.176 0 0 0 1.914-.566 3.94 3.94 0 0 0 1.242-1.864Zm-6.632-3.289h6.659a4.064 4.064 0 0 0-.755-2.238 3.091 3.091 0 0 0-2.507-1.186 3.184 3.184 0 0 0-2.346.944 3.67 3.67 0 0 0-1.053 2.48Zm19.045 2.75 2 .27a5.115 5.115 0 0 1-1.672 3.208 4.909 4.909 0 0 1-3.316 1.159 5.18 5.18 0 0 1-3.936-1.591 6.54 6.54 0 0 1-1.483-4.583 8.3 8.3 0 0 1 .647-3.4 4.391 4.391 0 0 1 1.941-2.157 5.827 5.827 0 0 1 2.858-.728 4.916 4.916 0 0 1 3.181 1 4.453 4.453 0 0 1 1.591 2.777l-1.968.3a3.232 3.232 0 0 0-1.025-1.806 2.474 2.474 0 0 0-1.7-.62 3.183 3.183 0 0 0-2.507 1.105 5.242 5.242 0 0 0-.944 3.451 5.387 5.387 0 0 0 .917 3.5 3.077 3.077 0 0 0 2.426 1.078 2.776 2.776 0 0 0 1.968-.728 3.581 3.581 0 0 0 1.02-2.235Zm8.129 2.561.3 1.779a7.281 7.281 0 0 1-1.537.189 3.532 3.532 0 0 1-1.725-.35 1.952 1.952 0 0 1-.836-.917 7.418 7.418 0 0 1-.243-2.4v-6.848h-1.488v-1.564h1.48v-2.966l2.022-1.213v4.179h2.022v1.564h-2.022v6.983a4.524 4.524 0 0 0 .081 1.105.944.944 0 0 0 .35.4 1.469 1.469 0 0 0 .7.135 6.225 6.225 0 0 0 .894-.076Zm1.941 1.806v-16.473h2.022v16.473Z"/><path data-name="Path 1381" d="M97.488 364.321a13.225 13.225 0 0 1 13.225-13.225h192.73a13.225 13.225 0 0 1 13.22 13.225v52.9a13.225 13.225 0 0 1-13.225 13.225H110.709a13.225 13.225 0 0 1-13.221-13.225Z" fill="#ccc" fill-rule="evenodd"/><path data-name="Path 1382" d="M97.488 364.321a13.225 13.225 0 0 1 13.225-13.225h192.73a13.225 13.225 0 0 1 13.22 13.225v52.9a13.225 13.225 0 0 1-13.225 13.225H110.709a13.225 13.225 0 0 1-13.221-13.225Z" fill="none" stroke="#000" stroke-linejoin="round" stroke-miterlimit="10"/><path data-name="Path 1383" d="M182.075 399.051v-16.473h2.18v6.767h8.547v-6.767h2.184v16.473h-2.181v-7.765h-8.55v7.765Zm24.454-3.828 2.076.243a5.1 5.1 0 0 1-1.833 2.858 6.2 6.2 0 0 1-7.549-.62 6.275 6.275 0 0 1-1.537-4.5 6.575 6.575 0 0 1 1.537-4.664 5.287 5.287 0 0 1 4.044-1.672 5.1 5.1 0 0 1 3.909 1.618 6.465 6.465 0 0 1 1.51 4.583v.539h-8.9a4.606 4.606 0 0 0 1.105 3.02 3.322 3.322 0 0 0 2.48 1.025 3.177 3.177 0 0 0 1.914-.566 3.94 3.94 0 0 0 1.244-1.864Zm-6.632-3.289h6.658a4.064 4.064 0 0 0-.755-2.238 3.091 3.091 0 0 0-2.507-1.186 3.184 3.184 0 0 0-2.346.944 3.67 3.67 0 0 0-1.051 2.48Zm11.227 7.118v-16.474h2.022v16.473Zm5.136 0v-11.917h1.806v1.672a4.107 4.107 0 0 1 1.483-1.4 4.216 4.216 0 0 1 2.13-.539 3.97 3.97 0 0 1 2.184.539 2.919 2.919 0 0 1 1.186 1.537 4.318 4.318 0 0 1 3.694-2.076 3.57 3.57 0 0 1 2.723 1 4.077 4.077 0 0 1 .971 2.993v8.2h-2.022v-7.522a4.878 4.878 0 0 0-.216-1.725 1.644 1.644 0 0 0-.7-.863 2.224 2.224 0 0 0-1.213-.324 2.818 2.818 0 0 0-2.076.836 3.655 3.655 0 0 0-.836 2.669v6.929h-2.022v-7.738a3.319 3.319 0 0 0-.512-2.022 1.826 1.826 0 0 0-1.591-.674 2.928 2.928 0 0 0-1.591.458 2.445 2.445 0 0 0-1.051 1.294 7.487 7.487 0 0 0-.324 2.507v6.174Z"/></g></svg>
