<svg xmlns="http://www.w3.org/2000/svg" viewBox="0 0 619.33621 603.14879"><path d="M518.08105,296.74229a26.45494,26.45494,0,1,1-15.32791-23.97711A26.45493,26.45493,0,0,1,518.08105,296.74229Zm-78.27264-23.97711a26.42567,26.42567,0,1,0,15.32791,23.97711A26.42565,26.42565,0,0,0,439.80841,272.76518Zm234.32684,70.3396a52.35262,52.35262,0,0,0-67.12146-7.40933c-23.839,16.68655-26.49945,46.94251-24.53411,69.37845.22375,2.585.49176,5.21008.75122,7.7485l.02233.22046c1.35157,13.25843,2.628,25.782-1.59924,34.06-2.15167,4.21542-7.14947,7.88171-12.74762,9.34348-4.58679,1.20459-9.042.78076-11.9223-1.139-7.03925-4.68717-10.03107-10.21018-9.41467-17.38068.55145-6.41794,3.90674-12.44485,5.57879-15.09616q.08067-.10629.16077-.21783c11.20288-15.76932,46.64429-73.07752,32.35382-148.42444-.09088-.47928-.187-.95-.2818-1.42307l-.09234.00067C573.76282,213.30074,521.311,168.258,458.528,168.258c-66.78272,0-121.88562,50.96175-128.46515,116.03815-9.49186,70.33993,23.2966,123.26275,34.01614,138.35138.05249.07348.10449.143.15549.21,1.67093,2.65393,5.02014,8.68216,5.56353,15.09158.60706,7.158-2.38623,12.6745-9.41879,17.35837-2.876,1.91516-7.33551,2.33966-11.93509,1.135-5.5852-1.4585-10.58484-5.1261-12.739-9.34744-4.22083-8.26224-2.94687-20.776-1.59613-34.0423.27588-2.69067.54275-5.32489.77551-7.97028,3.56427-40.65576-11.37344-60.17273-24.531-69.385a51.25018,51.25018,0,0,0-68.44513,74.91983A21.64132,21.64132,0,1,0,274.984,382.69966c-2.088-2.47348-1.98126-8.0162.20026-10.40375,2.18316-2.38885,7.69259-2.99771,10.343-1.14227,5.16315,3.61511,7.55414,15.167,6.23966,30.14639-.20651,2.34818-.44351,4.68454-.69449,7.15738l-.02051.20142c-1.749,17.1445-3.92575,38.48148,6.10614,58.11847,7.74393,15.17227,22.8255,26.96432,40.34641,31.5452a63.17268,63.17268,0,0,0,15.94088,2.07064,55.50514,55.50514,0,0,0,30.92453-9.062c17.008-11.32556,26.89051-27.10538,28.57962-45.63357,1.43424-15.73127-3.24179-32.63037-13.1669-47.58548a10.02412,10.02412,0,0,0-.7063-.93756c-8.89962-12.64563-35.85278-56.906-24.851-114.92475a94.8231,94.8231,0,0,1,2.28223-9.48456h-.1171c11.58539-34.0787,44.83347-59.49365,82.13755-59.49365,37.98461,0,71.888,25.31194,82.91864,59.95261.865,2.83465,1.05432,5.667,1.69073,9.025v.00131a148.35785,148.35785,0,0,1,2.06836,15.1319h0c4.27844,50.50644-18.81818,88.28226-26.93115,99.80924a9.66559,9.66559,0,0,0-.69318.92181c-9.92413,14.9538-14.59949,31.85355-13.16492,47.58612,1.68979,18.52951,11.57294,34.30869,28.579,45.63031a55.49511,55.49511,0,0,0,30.9242,9.06332,63.16068,63.16068,0,0,0,15.94452-2.07129c17.5188-4.58023,32.60016-16.37094,40.34283-31.53927,10.02942-19.64816,7.85382-40.993,6.10431-58.15457l-.01245-.124c-.25391-2.48922-.49408-4.84-.70038-7.202-1.31451-14.982,1.07636-26.53522,6.23493-30.14771,2.65423-1.85611,8.16314-1.2525,10.34631,1.14292,2.18152,2.38623,2.28778,7.92828.20013,10.40179a21.641,21.641,0,0,0,33.07093,27.92221h0a52.35578,52.35578,0,0,0-1.3155-67.51642Z" transform="translate(-148.67509 -74.37762)" fill="#fff"/><path d="M768.01123,350.32372A309.44748,309.44748,0,0,0,604.21765,77.08935,22.85838,22.85838,0,0,0,582.64832,117.398c128.61615,68.681,177.20324,228.62192,108.52227,357.23807S462.54868,651.83928,333.9325,583.15831,156.72926,354.53642,225.41023,225.92024A264.00388,264.00388,0,0,1,333.9325,117.398a22.85836,22.85836,0,1,0-21.55729-40.315l-.012.00644c-150.92719,80.849-207.73675,268.74079-126.88771,419.668A310.0172,310.0172,0,0,0,328.75037,631.8101H310.54626a20.657,20.657,0,0,0-20.657,20.65674v4.40284A20.65673,20.65673,0,0,0,310.546,677.52641H605.25085a20.65676,20.65676,0,0,0,20.657-20.65649v-4.40314a20.657,20.657,0,0,0-20.657-20.65674H587.83069A310.415,310.415,0,0,0,768.01123,350.32372Z" transform="translate(-148.67509 -74.37762)" fill="#fff"/></svg>
